GeoramaExtended-Black.ufo
<glyph name="exclam" format="2">
  <advance width="333.0"/>
  <unicode hex="0021"/>
  <outline>
    <contour>
      <point x="57.99999999999999" y="259.0" type="line"/>
      <point x="279.3" y="259.0" type="line"/>
      <point x="298.09999999999997" y="740.0" type="line"/>
      <point x="40.099999999999994" y="740.0" type="line"/>
    </contour>
    <contour>
      <point x="24.5" y="104.2" type="curve" smooth="yes"/>
      <point x="24.5" y="28.3"/>
      <point x="64.4" y="-10.7"/>
      <point x="166.5" y="-10.7" type="curve" smooth="yes"/>
      <point x="268.6" y="-10.7"/>
      <point x="308.5" y="28.3"/>
      <point x="308.5" y="104.2" type="curve" smooth="yes"/>
      <point x="308.5" y="181.1"/>
      <point x="268.6" y="220.1"/>
      <point x="166.5" y="220.1" type="curve" smooth="yes"/>
      <point x="64.4" y="220.1"/>
      <point x="24.5" y="181.1"/>
    </contour>
  </outline>
</glyph>
<glyph name="numbersign" format="2">
  <advance width="861.0"/>
  <unicode hex="0023"/>
  <outline>
    <contour>
      <point x="84.29999999999998" y="409.29999999999995" type="line"/>
      <point x="154.2" y="409.29999999999995" type="line"/>
      <point x="132.7" y="293.4" type="line"/>
      <point x="63.1" y="293.4" type="line"/>
      <point x="63.1" y="132.3" type="line"/>
      <point x="103.69999999999999" y="132.3" type="line"/>
      <point x="81.3" y="0.0" type="line"/>
      <point x="335.8" y="0.0" type="line"/>
      <point x="358.19999999999993" y="132.3" type="line"/>
      <point x="425.0" y="132.3" type="line"/>
      <point x="402.6" y="0.0" type="line"/>
      <point x="657.1" y="0.0" type="line"/>
      <point x="679.5" y="132.3" type="line"/>
      <point x="777.4" y="132.3" type="line"/>
      <point x="777.4" y="293.4" type="line"/>
      <point x="708.4999999999999" y="293.4" type="line"/>
      <point x="730.0" y="409.29999999999995" type="line"/>
      <point x="798.6" y="409.29999999999995" type="line"/>
      <point x="798.6" y="569.6" type="line"/>
      <point x="758.3" y="569.6" type="line"/>
      <point x="780.3000000000001" y="700.0" type="line"/>
      <point x="525.8000000000001" y="700.0" type="line"/>
      <point x="503.79999999999995" y="569.6" type="line"/>
      <point x="437.0" y="569.6" type="line"/>
      <point x="459.0" y="700.0" type="line"/>
      <point x="204.5" y="700.0" type="line"/>
      <point x="182.5" y="569.6" type="line"/>
      <point x="84.29999999999998" y="569.6" type="line"/>
    </contour>
    <contour>
      <point x="408.7" y="409.29999999999995" type="line"/>
      <point x="475.5" y="409.29999999999995" type="line"/>
      <point x="453.9999999999999" y="293.4" type="line"/>
      <point x="387.20000000000005" y="293.4" type="line"/>
    </contour>
  </outline>
</glyph>
<glyph name="dollar" format="2">
  <advance width="861.0"/>
  <unicode hex="0024"/>
  <outline>
    <contour>
      <point x="375.8" y="-10.0" type="curve" smooth="yes"/>
      <point x="633.8" y="-17.7"/>
      <point x="818.0" y="47.1"/>
      <point x="818.0" y="226.3" type="curve" smooth="yes"/>
      <point x="818.0" y="354.7"/>
      <point x="726.4" y="419.09999999999997"/>
      <point x="550.9" y="444.2" type="curve" smooth="yes"/>
      <point x="393.4" y="464.6"/>
      <point x="346.9" y="459.7"/>
      <point x="346.9" y="492.2" type="curve" smooth="yes"/>
      <point x="346.9" y="515.0999999999999"/>
      <point x="368.5" y="520.6"/>
      <point x="440.2999999999999" y="520.6" type="curve" smooth="yes"/>
      <point x="541.0999999999999" y="520.6"/>
      <point x="656.1999999999999" y="505.9"/>
      <point x="727.5999999999999" y="483.5" type="curve"/>
      <point x="770.0" y="671.2" type="line"/>
      <point x="683.4999999999999" y="693.3"/>
      <point x="571.1" y="710.0"/>
      <point x="456.4" y="710.0" type="curve" smooth="yes"/>
      <point x="218.79999999999998" y="710.0"/>
      <point x="66.8" y="646.2"/>
      <point x="66.8" y="470.5" type="curve" smooth="yes"/>
      <point x="66.8" y="354.0"/>
      <point x="142.0" y="289.70000000000005"/>
      <point x="267.7" y="262.59999999999997" type="curve" smooth="yes"/>
      <point x="454.0999999999999" y="227.70000000000002"/>
      <point x="533.5" y="237.5"/>
      <point x="533.5" y="202.5" type="curve" smooth="yes"/>
      <point x="533.5" y="180.7"/>
      <point x="509.00000000000006" y="173.39999999999998"/>
      <point x="437.79999999999995" y="173.39999999999998" type="curve" smooth="yes"/>
      <point x="328.8" y="173.39999999999998"/>
      <point x="200.6" y="193.9"/>
      <point x="88.60000000000001" y="230.29999999999998" type="curve"/>
      <point x="43.699999999999996" y="42.8" type="line"/>
      <point x="137.1" y="13.199999999999998"/>
      <point x="256.9" y="-6.5"/>
    </contour>
    <contour>
      <point x="349.7" y="-105.0" type="line"/>
      <point x="538.7" y="-105.0" type="line"/>
      <point x="538.7" y="15.600000000000001" type="line"/>
      <point x="349.7" y="8.5" type="line"/>
    </contour>
    <contour>
      <point x="349.7" y="685.6" type="line"/>
      <point x="538.7" y="691.1" type="line"/>
      <point x="538.7" y="804.4" type="line"/>
      <point x="349.7" y="804.4" type="line"/>
    </contour>
  </outline>
</glyph>
<glyph name="ampersand" format="2">
  <advance width="950.3"/>
  <unicode hex="0026"/>
  <outline>
    <contour>
      <point x="626.4" y="0.0" type="line"/>
      <point x="943.0999999999999" y="0.0" type="line"/>
      <point x="485.49999999999994" y="435.6" type="line" smooth="yes"/>
      <point x="439.2" y="477.8"/>
      <point x="429.6" y="490.59999999999997"/>
      <point x="429.6" y="508.70000000000005" type="curve" smooth="yes"/>
      <point x="429.6" y="530.8"/>
      <point x="447.5" y="541.2"/>
      <point x="479.0" y="541.2" type="curve" smooth="yes"/>
      <point x="509.80000000000007" y="541.2"/>
      <point x="525.3" y="528.1"/>
      <point x="525.3" y="502.6" type="curve" smooth="yes"/>
      <point x="525.3" y="484.4"/>
      <point x="517.2" y="472.6"/>
      <point x="500.09999999999997" y="462.90000000000003" type="curve"/>
      <point x="606.5" y="364.6" type="line"/>
      <point x="725.4" y="397.2"/>
      <point x="767.9" y="452.9"/>
      <point x="767.9" y="531.0999999999999" type="curve" smooth="yes"/>
      <point x="767.9" y="648.1999999999999"/>
      <point x="662.5" y="710.0"/>
      <point x="469.29999999999995" y="710.0" type="curve" smooth="yes"/>
      <point x="241.8" y="710.0"/>
      <point x="155.39999999999998" y="629.7"/>
      <point x="155.39999999999998" y="508.6" type="curve" smooth="yes"/>
      <point x="155.39999999999998" y="455.7"/>
      <point x="169.4" y="406.8"/>
      <point x="228.29999999999998" y="354.1" type="curve" smooth="yes"/>
    </contour>
    <contour>
      <point x="367.3" y="-10.0" type="curve" smooth="yes"/>
      <point x="492.1" y="-10.0"/>
      <point x="558.9999999999999" y="11.900000000000002"/>
      <point x="617.6" y="47.60000000000001" type="curve"/>
      <point x="485.9" y="174.7" type="line"/>
      <point x="472.29999999999995" y="167.3"/>
      <point x="453.00000000000006" y="161.9"/>
      <point x="411.0" y="161.9" type="curve" smooth="yes"/>
      <point x="335.2" y="161.9"/>
      <point x="282.5" y="196.7"/>
      <point x="282.5" y="238.60000000000002" type="curve" smooth="yes"/>
      <point x="282.5" y="265.8"/>
      <point x="298.4" y="278.6"/>
      <point x="328.59999999999997" y="288.40000000000003" type="curve"/>
      <point x="209.79999999999998" y="402.7" type="line"/>
      <point x="86.99999999999999" y="368.9"/>
      <point x="35.4" y="303.20000000000005"/>
      <point x="35.4" y="214.70000000000002" type="curve" smooth="yes"/>
      <point x="35.4" y="72.3"/>
      <point x="152.2" y="-10.0"/>
    </contour>
    <contour>
      <point x="779.9000000000001" y="119.00000000000001" type="line"/>
      <point x="839.1999999999999" y="172.7"/>
      <point x="877.3" y="238.29999999999998"/>
      <point x="877.3" y="312.79999999999995" type="curve" smooth="yes"/>
      <point x="877.3" y="333.8"/>
      <point x="876.3" y="343.59999999999997"/>
      <point x="875.0" y="358.0" type="curve"/>
      <point x="668.6" y="358.0" type="line"/>
      <point x="668.9" y="345.5"/>
      <point x="668.5" y="332.4"/>
      <point x="665.7" y="320.09999999999997" type="curve" smooth="yes"/>
      <point x="660.1" y="299.09999999999997"/>
      <point x="651.5" y="283.09999999999997"/>
      <point x="625.8" y="266.09999999999997" type="curve"/>
    </contour>
  </outline>
</glyph>
<glyph name="quotesingle" format="2">
  <advance width="276.09999999999997"/>
  <unicode hex="0027"/>
  <outline>
    <contour>
      <point x="34.599999999999994" y="427.0" type="line"/>
      <point x="240.6" y="427.0" type="line"/>
      <point x="250.29999999999998" y="700.0" type="line"/>
      <point x="25.799999999999997" y="700.0" type="line"/>
    </contour>
  </outline>
</glyph>
<glyph name="parenleft" format="2">
  <advance width="421.7"/>
  <unicode hex="0028"/>
  <outline>
    <contour>
      <point x="30.800000000000004" y="265.0" type="curve" smooth="yes"/>
      <point x="30.800000000000004" y="14.999999999999996"/>
      <point x="132.10000000000002" y="-197.0"/>
      <point x="392.7" y="-220.0" type="curve"/>
      <point x="392.7" y="-55.0" type="line"/>
      <point x="273.9" y="-15.300000000000004"/>
      <point x="242.2" y="66.9"/>
      <point x="242.2" y="265.0" type="curve" smooth="yes"/>
      <point x="242.2" y="463.1"/>
      <point x="273.9" y="545.3000000000001"/>
      <point x="392.7" y="585.0" type="curve"/>
      <point x="392.7" y="750.0" type="line"/>
      <point x="132.10000000000002" y="727.0"/>
      <point x="30.800000000000004" y="515.0"/>
    </contour>
  </outline>
</glyph>
<glyph name="parenright" format="2">
  <advance width="421.7"/>
  <unicode hex="0029"/>
  <outline>
    <contour>
      <point x="28.999999999999996" y="-55.0" type="curve"/>
      <point x="28.999999999999996" y="-220.0" type="line"/>
      <point x="289.59999999999997" y="-197.0"/>
      <point x="390.9" y="14.999999999999996"/>
      <point x="390.9" y="265.0" type="curve" smooth="yes"/>
      <point x="390.9" y="515.0"/>
      <point x="289.59999999999997" y="727.0"/>
      <point x="28.999999999999996" y="750.0" type="curve"/>
      <point x="28.999999999999996" y="585.0" type="line"/>
      <point x="147.79999999999998" y="545.3000000000001"/>
      <point x="179.5" y="463.1"/>
      <point x="179.5" y="265.0" type="curve" smooth="yes"/>
      <point x="179.5" y="66.9"/>
      <point x="147.79999999999998" y="-15.300000000000004"/>
    </contour>
  </outline>
</glyph>
<glyph name="asterisk" format="2">
  <advance width="451.99999999999994"/>
  <unicode hex="002A"/>
  <outline>
    <contour>
      <point x="146.1" y="325.8" type="line"/>
      <point x="226.00000000000003" y="409.7" type="line"/>
      <point x="305.9" y="325.79999999999995" type="line"/>
      <point x="392.2" y="385.8" type="line"/>
      <point x="336.2" y="488.3" type="line"/>
      <point x="440.40000000000003" y="539.2" type="line"/>
      <point x="407.70000000000005" y="637.9" type="line"/>
      <point x="293.40000000000003" y="619.0999999999999" type="line"/>
      <point x="279.6" y="733.0" type="line"/>
      <point x="172.39999999999998" y="733.0" type="line"/>
      <point x="158.59999999999997" y="619.0999999999999" type="line"/>
      <point x="44.300000000000004" y="637.9" type="line"/>
      <point x="11.6" y="539.2" type="line"/>
      <point x="115.79999999999998" y="488.3" type="line"/>
      <point x="59.79999999999999" y="385.8" type="line"/>
    </contour>
  </outline>
</glyph>
<glyph name="plus" format="2">
  <advance width="673.4"/>
  <unicode hex="002B"/>
  <outline>
    <contour>
      <point x="226.6" y="109.80000000000001" type="line"/>
      <point x="446.1" y="109.80000000000001" type="line"/>
      <point x="446.1" y="226.5" type="line"/>
      <point x="618.8" y="226.5" type="line"/>
      <point x="618.8" y="418.0" type="line"/>
      <point x="446.1" y="418.0" type="line"/>
      <point x="446.1" y="534.0" type="line"/>
      <point x="226.6" y="534.0" type="line"/>
      <point x="226.6" y="418.0" type="line"/>
      <point x="54.599999999999994" y="418.0" type="line"/>
      <point x="54.599999999999994" y="226.5" type="line"/>
      <point x="226.6" y="226.5" type="line"/>
    </contour>
  </outline>
</glyph>
<glyph name="comma" format="2">
  <advance width="333.0"/>
  <unicode hex="002C"/>
  <outline>
    <contour>
      <point x="47.2" y="111.0" type="line"/>
      <point x="50.400000000000006" y="83.3"/>
      <point x="51.099999999999994" y="57.0"/>
      <point x="51.099999999999994" y="37.7" type="curve" smooth="yes"/>
      <point x="51.099999999999994" y="-28.9"/>
      <point x="35.2" y="-98.8"/>
      <point x="-12.900000000000002" y="-166.2" type="curve"/>
      <point x="188.79999999999998" y="-193.1" type="line"/>
      <point x="261.8" y="-115.8"/>
      <point x="297.7" y="-47.1"/>
      <point x="297.7" y="34.3" type="curve" smooth="yes"/>
      <point x="297.7" y="65.0"/>
      <point x="293.09999999999997" y="91.0"/>
      <point x="286.0" y="112.0" type="curve"/>
    </contour>
  </outline>
</glyph>
<glyph name="period" format="2">
  <advance width="344.2"/>
  <unicode hex="002E"/>
  <outline>
    <contour>
      <point x="30.099999999999994" y="105.1" type="curve" smooth="yes"/>
      <point x="30.099999999999994" y="29.2"/>
      <point x="70.0" y="-9.8"/>
      <point x="172.1" y="-9.8" type="curve" smooth="yes"/>
      <point x="274.2" y="-9.8"/>
      <point x="314.1" y="29.2"/>
      <point x="314.1" y="105.1" type="curve" smooth="yes"/>
      <point x="314.1" y="182.0"/>
      <point x="274.2" y="221.0"/>
      <point x="172.1" y="221.0" type="curve" smooth="yes"/>
      <point x="70.0" y="221.0"/>
      <point x="30.099999999999994" y="182.0"/>
    </contour>
  </outline>
</glyph>
<glyph name="slash" format="2">
  <advance width="568.5"/>
  <unicode hex="002F"/>
  <outline>
    <contour>
      <point x="3.9999999999999982" y="-210.0" type="line"/>
      <point x="206.2" y="-210.0" type="line"/>
      <point x="564.5" y="740.0" type="line"/>
      <point x="362.0" y="740.0" type="line"/>
    </contour>
  </outline>
</glyph>
<glyph name="zero" format="2">
  <advance width="861.0"/>
  <unicode hex="0030"/>
  <outline>
    <contour>
      <point x="33.199999999999996" y="350.0" type="curve" smooth="yes"/>
      <point x="33.199999999999996" y="73.5"/>
      <point x="207.9" y="-10.0"/>
      <point x="430.5" y="-10.0" type="curve" smooth="yes"/>
      <point x="652.1999999999999" y="-10.0"/>
      <point x="827.8" y="74.7"/>
      <point x="827.8" y="350.0" type="curve" smooth="yes"/>
      <point x="827.8" y="625.6"/>
      <point x="656.6999999999999" y="710.0"/>
      <point x="430.5" y="710.0" type="curve" smooth="yes"/>
      <point x="207.0" y="710.0"/>
      <point x="33.199999999999996" y="628.0"/>
    </contour>
    <contour>
      <point x="306.79999999999995" y="346.1" type="curve" smooth="yes"/>
      <point x="306.79999999999995" y="504.1"/>
      <point x="363.7" y="531.4"/>
      <point x="430.5" y="531.4" type="curve" smooth="yes"/>
      <point x="497.2999999999999" y="531.4"/>
      <point x="554.1999999999999" y="504.4"/>
      <point x="554.1999999999999" y="346.1" type="curve" smooth="yes"/>
      <point x="554.1999999999999" y="197.70000000000002"/>
      <point x="498.19999999999993" y="168.6"/>
      <point x="430.5" y="168.6" type="curve" smooth="yes"/>
      <point x="362.8" y="168.6"/>
      <point x="306.79999999999995" y="197.4"/>
    </contour>
  </outline>
</glyph>
<glyph name="one" format="2">
  <advance width="861.0"/>
  <unicode hex="0031"/>
  <outline>
    <contour>
      <point x="138.4" y="0.0" type="line"/>
      <point x="786.7" y="0.0" type="line"/>
      <point x="786.7" y="195.0" type="line"/>
      <point x="611.6999999999999" y="195.0" type="line"/>
      <point x="611.6999999999999" y="700.0" type="line"/>
      <point x="478.5999999999999" y="700.0" type="line"/>
      <point x="117.6" y="577.1999999999999" type="line"/>
      <point x="175.39999999999998" y="378.2" type="line"/>
      <point x="343.29999999999995" y="433.1" type="line"/>
      <point x="343.29999999999995" y="195.0" type="line"/>
      <point x="138.4" y="195.0" type="line"/>
    </contour>
  </outline>
</glyph>
<glyph name="two" format="2">
  <advance width="861.1999999999999"/>
  <unicode hex="0032"/>
  <outline>
    <contour>
      <point x="66.6" y="154.1" type="curve"/>
      <point x="66.8" y="0.0" type="line"/>
      <point x="799.3" y="0.0" type="line"/>
      <point x="799.3" y="195.0" type="line"/>
      <point x="513.7" y="195.0" type="line"/>
      <point x="669.9" y="290.0"/>
      <point x="726.6" y="356.4"/>
      <point x="726.6" y="470.4" type="curve" smooth="yes"/>
      <point x="726.6" y="615.8"/>
      <point x="602.5" y="710.0"/>
      <point x="398.1" y="710.0" type="curve" smooth="yes"/>
      <point x="283.3" y="710.0"/>
      <point x="146.39999999999998" y="677.3"/>
      <point x="59.7" y="628.9" type="curve"/>
      <point x="131.1" y="438.8" type="line"/>
      <point x="209.39999999999998" y="470.5"/>
      <point x="280.1" y="486.0"/>
      <point x="336.4" y="486.0" type="curve" smooth="yes"/>
      <point x="414.5" y="486.0"/>
      <point x="446.20000000000005" y="455.4"/>
      <point x="446.20000000000005" y="409.4" type="curve" smooth="yes"/>
      <point x="446.20000000000005" y="335.1"/>
      <point x="320.1" y="249.2"/>
    </contour>
  </outline>
</glyph>
<glyph name="three" format="2">
  <advance width="860.9999999999999"/>
  <unicode hex="0033"/>
  <outline>
    <contour>
      <point x="46.0" y="41.50000000000001" type="line"/>
      <point x="139.0" y="6.000000000000001"/>
      <point x="246.0" y="-9.5"/>
      <point x="387.5" y="-9.5" type="curve" smooth="yes"/>
      <point x="663.5" y="-9.5"/>
      <point x="794.0" y="68.0"/>
      <point x="794.0" y="208.0" type="curve" smooth="yes"/>
      <point x="794.0" y="284.5"/>
      <point x="747.0" y="340.5"/>
      <point x="656.0" y="366.5" type="curve"/>
      <point x="734.0" y="392.5"/>
      <point x="776.5" y="444.5"/>
      <point x="776.5" y="518.0" type="curve" smooth="yes"/>
      <point x="776.5" y="641.5"/>
      <point x="672.0" y="710.0"/>
      <point x="402.49999999999994" y="710.0" type="curve" smooth="yes"/>
      <point x="264.0" y="710.0"/>
      <point x="124.99999999999999" y="692.0"/>
      <point x="57.999999999999986" y="663.5" type="curve"/>
      <point x="104.0" y="479.0" type="line"/>
      <point x="174.99999999999997" y="495.5"/>
      <point x="267.0" y="506.0"/>
      <point x="353.99999999999994" y="506.0" type="curve" smooth="yes"/>
      <point x="467.5" y="506.0"/>
      <point x="515.0" y="495.5"/>
      <point x="515.0" y="472.0" type="curve" smooth="yes"/>
      <point x="515.0" y="444.5"/>
      <point x="478.5" y="434.5"/>
      <point x="356.99999999999994" y="434.5" type="curve" smooth="yes"/>
      <point x="217.0" y="434.5" type="line"/>
      <point x="217.0" y="264.0" type="line"/>
      <point x="343.99999999999994" y="264.0" type="line" smooth="yes"/>
      <point x="468.5" y="264.0"/>
      <point x="524.5" y="250.5"/>
      <point x="524.5" y="224.0" type="curve" smooth="yes"/>
      <point x="524.5" y="196.5"/>
      <point x="495.0" y="188.0"/>
      <point x="371.5" y="188.0" type="curve" smooth="yes"/>
      <point x="276.5" y="188.0"/>
      <point x="163.0" y="200.5"/>
      <point x="99.0" y="219.5" type="curve"/>
    </contour>
  </outline>
</glyph>
<glyph name="four" format="2">
  <advance width="860.9999999999999"/>
  <unicode hex="0034"/>
  <outline>
    <contour>
      <point x="15.000000000000004" y="84.0" type="line"/>
      <point x="429.0" y="84.0" type="line"/>
      <point x="429.0" y="0.0" type="line"/>
      <point x="700.5" y="0.0" type="line"/>
      <point x="700.5" y="84.0" type="line"/>
      <point x="814.5" y="84.0" type="line"/>
      <point x="814.5" y="257.5" type="line"/>
      <point x="700.5" y="257.5" type="line"/>
      <point x="700.5" y="700.0" type="line"/>
      <point x="507.0" y="700.0" type="line"/>
      <point x="15.000000000000004" y="234.5" type="line"/>
    </contour>
    <contour>
      <point x="268.0" y="257.5" type="line"/>
      <point x="432.0" y="420.0" type="line"/>
      <point x="432.0" y="257.5" type="line"/>
    </contour>
  </outline>
</glyph>
<glyph name="five" format="2">
  <advance width="861.0"/>
  <unicode hex="0035"/>
  <outline>
    <contour>
      <point x="50.400000000000006" y="38.099999999999994" type="line"/>
      <point x="152.4" y="1.6000000000000014"/>
      <point x="265.49999999999994" y="-10.0"/>
      <point x="384.2" y="-10.0" type="curve" smooth="yes"/>
      <point x="634.6" y="-10.0"/>
      <point x="801.8" y="64.0"/>
      <point x="801.8" y="238.0" type="curve" smooth="yes"/>
      <point x="801.8" y="401.09999999999997"/>
      <point x="666.4" y="440.0"/>
      <point x="422.2" y="442.1" type="curve" smooth="yes"/>
      <point x="332.0" y="442.7" type="line"/>
      <point x="340.0" y="502.9" type="line"/>
      <point x="750.6999999999999" y="502.9" type="line"/>
      <point x="750.6999999999999" y="700.0" type="line"/>
      <point x="154.2" y="700.0" type="line"/>
      <point x="93.5" y="278.3" type="line"/>
      <point x="103.6" y="269.5" type="line"/>
      <point x="323.8999999999999" y="269.5" type="line" smooth="yes"/>
      <point x="511.8999999999999" y="269.5"/>
      <point x="538.3999999999999" y="250.7"/>
      <point x="538.3999999999999" y="226.5" type="curve" smooth="yes"/>
      <point x="538.3999999999999" y="200.10000000000002"/>
      <point x="496.9" y="186.7"/>
      <point x="368.3" y="186.7" type="curve" smooth="yes"/>
      <point x="269.09999999999997" y="186.7"/>
      <point x="158.5" y="199.6"/>
      <point x="96.7" y="216.9" type="curve"/>
    </contour>
  </outline>
</glyph>
<glyph name="six" format="2">
  <advance width="861.0"/>
  <unicode hex="0036"/>
  <outline>
    <contour>
      <point x="441.49999999999994" y="-10.0" type="curve" smooth="yes"/>
      <point x="696.0" y="-10.0"/>
      <point x="826.5" y="73.0"/>
      <point x="826.5" y="241.00000000000003" type="curve" smooth="yes"/>
      <point x="826.5" y="383.0"/>
      <point x="728.0" y="457.5"/>
      <point x="525.0" y="457.5" type="curve" smooth="yes"/>
      <point x="422.0" y="457.5"/>
      <point x="343.0" y="442.49999999999994"/>
      <point x="275.0" y="406.5" type="curve"/>
      <point x="275.0" y="252.00000000000003" type="line"/>
      <point x="344.5" y="270.00000000000006"/>
      <point x="391.99999999999994" y="281.50000000000006"/>
      <point x="454.49999999999994" y="281.50000000000006" type="curve" smooth="yes"/>
      <point x="534.9999999999999" y="281.50000000000006"/>
      <point x="568.0" y="264.0"/>
      <point x="568.0" y="228.99999999999997" type="curve" smooth="yes"/>
      <point x="568.0" y="188.99999999999997"/>
      <point x="534.0" y="173.0"/>
      <point x="468.0" y="173.0" type="curve" smooth="yes"/>
      <point x="339.00000000000006" y="173.0"/>
      <point x="295.5" y="212.5"/>
      <point x="295.5" y="346.0" type="curve" smooth="yes"/>
      <point x="295.5" y="462.0"/>
      <point x="359.5" y="513.0"/>
      <point x="521.5" y="513.0" type="curve" smooth="yes"/>
      <point x="607.0" y="513.0"/>
      <point x="659.9999999999999" y="504.0"/>
      <point x="750.0" y="484.0" type="curve"/>
      <point x="797.0" y="669.5000000000001" type="line"/>
      <point x="728.0" y="693.9999999999999"/>
      <point x="620.4999999999999" y="710.0"/>
      <point x="489.4999999999999" y="710.0" type="curve" smooth="yes"/>
      <point x="189.0" y="710.0"/>
      <point x="37.5" y="573.5"/>
      <point x="37.5" y="326.50000000000006" type="curve" smooth="yes"/>
      <point x="37.5" y="101.50000000000001"/>
      <point x="173.49999999999997" y="-10.0"/>
    </contour>
  </outline>
</glyph>
<glyph name="seven" format="2">
  <advance width="861.0"/>
  <unicode hex="0037"/>
  <outline>
    <contour>
      <point x="210.3" y="0.0" type="curve"/>
      <point x="491.70000000000005" y="0.0" type="line"/>
      <point x="497.29999999999995" y="105.0"/>
      <point x="541.4" y="196.0"/>
      <point x="639.6999999999999" y="327.40000000000003" type="curve" smooth="yes"/>
      <point x="799.3" y="539.8" type="line"/>
      <point x="799.3" y="700.0" type="line"/>
      <point x="84.5" y="700.0" type="line"/>
      <point x="84.5" y="503.5" type="line"/>
      <point x="485.1" y="503.5" type="line"/>
      <point x="343.29999999999995" y="332.3" type="line" smooth="yes"/>
      <point x="247.60000000000002" y="217.4"/>
      <point x="210.3" y="120.9"/>
    </contour>
  </outline>
</glyph>
<glyph name="eight" format="2">
  <advance width="861.1999999999999"/>
  <unicode hex="0038"/>
  <outline>
    <contour>
      <point x="472.20000000000005" y="418.5" type="curve"/>
      <point x="657.0" y="371.6" type="line"/>
      <point x="746.1" y="401.0"/>
      <point x="783.3" y="464.6"/>
      <point x="783.3" y="519.4" type="curve" smooth="yes"/>
      <point x="783.3" y="642.2"/>
      <point x="656.1" y="710.0"/>
      <point x="427.79999999999995" y="710.0" type="curve" smooth="yes"/>
      <point x="199.7" y="710.0"/>
      <point x="71.4" y="634.2"/>
      <point x="71.4" y="491.8" type="curve" smooth="yes"/>
      <point x="71.4" y="211.7"/>
      <point x="542.7" y="289.5"/>
      <point x="542.7" y="191.8" type="curve" smooth="yes"/>
      <point x="542.7" y="171.5"/>
      <point x="515.7" y="162.8"/>
      <point x="449.4" y="162.8" type="curve" smooth="yes"/>
      <point x="348.2" y="162.8"/>
      <point x="295.6" y="183.4"/>
      <point x="295.6" y="219.0" type="curve" smooth="yes"/>
      <point x="295.6" y="244.2"/>
      <point x="310.3" y="256.7"/>
      <point x="345.5" y="276.1" type="curve"/>
      <point x="175.9" y="352.6" type="line"/>
      <point x="74.4" y="339.6"/>
      <point x="28.9" y="268.8"/>
      <point x="28.9" y="201.4" type="curve" smooth="yes"/>
      <point x="28.9" y="64.5"/>
      <point x="167.0" y="-10.0"/>
      <point x="437.4" y="-10.0" type="curve" smooth="yes"/>
      <point x="713.7" y="-10.0"/>
      <point x="832.5" y="59.9"/>
      <point x="832.5" y="212.2" type="curve" smooth="yes"/>
      <point x="832.5" y="472.4"/>
      <point x="326.4" y="415.8"/>
      <point x="326.4" y="500.7" type="curve" smooth="yes"/>
      <point x="326.4" y="520.4"/>
      <point x="345.0" y="536.9"/>
      <point x="429.19999999999993" y="536.9" type="curve" smooth="yes"/>
      <point x="507.0" y="536.9"/>
      <point x="537.0" y="518.0"/>
      <point x="537.0" y="485.4" type="curve" smooth="yes"/>
      <point x="537.0" y="456.7"/>
      <point x="516.6" y="441.0"/>
    </contour>
  </outline>
</glyph>
<glyph name="nine" format="2">
  <advance width="861.0"/>
  <unicode hex="0039"/>
  <outline>
    <contour>
      <point x="374.5" y="-10.0" type="curve" smooth="yes"/>
      <point x="675.0" y="-10.0"/>
      <point x="826.0" y="121.99999999999999"/>
      <point x="826.0" y="362.5" type="curve" smooth="yes"/>
      <point x="826.0" y="594.0"/>
      <point x="691.5" y="710.0"/>
      <point x="422.99999999999994" y="710.0" type="curve" smooth="yes"/>
      <point x="168.5" y="710.0"/>
      <point x="35.99999999999999" y="625.5"/>
      <point x="35.99999999999999" y="462.49999999999994" type="curve" smooth="yes"/>
      <point x="35.99999999999999" y="315.0"/>
      <point x="143.0" y="242.99999999999997"/>
      <point x="345.0" y="242.99999999999997" type="curve" smooth="yes"/>
      <point x="447.9999999999999" y="242.99999999999997"/>
      <point x="527.5" y="259.0"/>
      <point x="588.5" y="293.5" type="curve"/>
      <point x="588.5" y="449.5" type="line"/>
      <point x="523.5" y="431.00000000000006"/>
      <point x="476.49999999999994" y="419.49999999999994"/>
      <point x="413.0" y="419.49999999999994" type="curve" smooth="yes"/>
      <point x="331.00000000000006" y="419.49999999999994"/>
      <point x="295.5" y="434.0"/>
      <point x="295.5" y="472.5" type="curve" smooth="yes"/>
      <point x="295.5" y="511.0"/>
      <point x="335.00000000000006" y="527.0"/>
      <point x="398.99999999999994" y="527.0" type="curve" smooth="yes"/>
      <point x="510.5" y="527.0"/>
      <point x="568.0" y="487.0"/>
      <point x="568.0" y="355.49999999999994" type="curve" smooth="yes"/>
      <point x="568.0" y="239.5"/>
      <point x="506.5" y="185.5"/>
      <point x="334.49999999999994" y="185.5" type="curve" smooth="yes"/>
      <point x="258.99999999999994" y="185.5"/>
      <point x="201.0" y="194.5"/>
      <point x="112.00000000000001" y="215.0" type="curve"/>
      <point x="65.99999999999999" y="30.499999999999996" type="line"/>
      <point x="135.0" y="5.999999999999999"/>
      <point x="243.49999999999997" y="-10.0"/>
    </contour>
  </outline>
</glyph>
<glyph name="less" format="2">
  <advance width="673.4"/>
  <unicode hex="003C"/>
  <outline>
    <contour>
      <point x="625.0999999999999" y="47.1" type="line"/>
      <point x="625.0999999999999" y="238.79999999999998" type="line"/>
      <point x="269.7" y="316.2" type="line"/>
      <point x="625.0999999999999" y="393.2" type="line"/>
      <point x="625.0999999999999" y="586.0" type="line"/>
      <point x="48.3" y="410.6" type="line"/>
      <point x="48.3" y="219.70000000000002" type="line"/>
    </contour>
  </outline>
</glyph>
<glyph name="equal" format="2">
  <advance width="667.4"/>
  <unicode hex="003D"/>
  <outline>
    <contour>
      <point x="612.8" y="290.8" type="line"/>
      <point x="54.599999999999994" y="290.8" type="line"/>
      <point x="54.599999999999994" y="99.3" type="line"/>
      <point x="612.8" y="99.3" type="line"/>
    </contour>
    <contour>
      <point x="612.8" y="534.1" type="line"/>
      <point x="54.599999999999994" y="534.1" type="line"/>
      <point x="54.599999999999994" y="342.6" type="line"/>
      <point x="612.8" y="342.6" type="line"/>
    </contour>
  </outline>
</glyph>
<glyph name="greater" format="2">
  <advance width="673.4"/>
  <unicode hex="003E"/>
  <outline>
    <contour>
      <point x="625.0999999999999" y="219.7" type="line"/>
      <point x="625.0999999999999" y="410.6" type="line"/>
      <point x="48.3" y="586.0" type="line"/>
      <point x="48.3" y="393.2" type="line"/>
      <point x="403.7" y="316.2" type="line"/>
      <point x="48.3" y="238.8" type="line"/>
      <point x="48.3" y="47.1" type="line"/>
    </contour>
  </outline>
</glyph>
<glyph name="question" format="2">
  <advance width="636.4"/>
  <unicode hex="003F"/>
  <outline>
    <contour>
      <point x="188.6" y="259.0" type="line"/>
      <point x="410.2" y="259.0" type="line"/>
      <point x="411.6" y="311.7" type="line"/>
      <point x="571.9000000000001" y="352.5"/>
      <point x="623.1999999999999" y="424.9"/>
      <point x="623.1999999999999" y="525.9" type="curve" smooth="yes"/>
      <point x="623.1999999999999" y="684.0"/>
      <point x="479.59999999999997" y="749.7"/>
      <point x="316.1" y="749.7" type="curve" smooth="yes"/>
      <point x="220.99999999999997" y="749.7"/>
      <point x="92.4" y="717.8"/>
      <point x="17.2" y="672.3000000000001" type="curve"/>
      <point x="83.0" y="486.0" type="line"/>
      <point x="153.4" y="518.5999999999999"/>
      <point x="217.2" y="538.9"/>
      <point x="271.70000000000005" y="538.9" type="curve" smooth="yes"/>
      <point x="325.4" y="538.9"/>
      <point x="350.2" y="528.0"/>
      <point x="350.2" y="505.4" type="curve" smooth="yes"/>
      <point x="350.2" y="481.59999999999997"/>
      <point x="341.0" y="460.79999999999995"/>
      <point x="182.5" y="427.5" type="curve"/>
    </contour>
    <contour>
      <point x="156.5" y="104.2" type="curve" smooth="yes"/>
      <point x="156.5" y="28.3"/>
      <point x="196.1" y="-10.7"/>
      <point x="298.5" y="-10.7" type="curve" smooth="yes"/>
      <point x="400.3" y="-10.7"/>
      <point x="440.5" y="28.3"/>
      <point x="440.5" y="104.2" type="curve" smooth="yes"/>
      <point x="440.5" y="181.1"/>
      <point x="400.3" y="220.1"/>
      <point x="298.5" y="220.1" type="curve" smooth="yes"/>
      <point x="196.1" y="220.1"/>
      <point x="156.5" y="181.1"/>
    </contour>
  </outline>
</glyph>
<glyph name="at" format="2">
  <advance width="1020.5"/>
  <unicode hex="0040"/>
  <outline>
    <contour>
      <point x="471.9999999999999" y="-124.3" type="curve" smooth="yes"/>
      <point x="548.9" y="-124.3"/>
      <point x="642.4" y="-113.10000000000001"/>
      <point x="714.9000000000001" y="-93.89999999999999" type="curve"/>
      <point x="689.3999999999999" y="2.6999999999999993" type="line"/>
      <point x="628.2" y="-12.3"/>
      <point x="553.9000000000001" y="-21.000000000000004"/>
      <point x="486.3999999999999" y="-21.000000000000004" type="curve" smooth="yes"/>
      <point x="295.4" y="-21.000000000000004"/>
      <point x="143.20000000000002" y="42.3"/>
      <point x="143.20000000000002" y="258.5" type="curve" smooth="yes"/>
      <point x="143.20000000000002" y="459.3"/>
      <point x="284.0" y="611.0"/>
      <point x="525.9" y="611.0" type="curve" smooth="yes"/>
      <point x="764.5" y="611.0"/>
      <point x="883.0999999999999" y="512.2"/>
      <point x="883.0999999999999" y="327.5" type="curve" smooth="yes"/>
      <point x="883.0999999999999" y="209.5"/>
      <point x="841.5999999999999" y="157.6"/>
      <point x="794.7" y="161.1" type="curve" smooth="yes"/>
      <point x="765.2" y="161.1"/>
      <point x="746.9" y="181.29999999999998"/>
      <point x="751.4999999999999" y="235.3" type="curve" smooth="yes"/>
      <point x="771.8999999999999" y="484.1" type="line"/>
      <point x="702.4" y="509.4"/>
      <point x="611.3" y="525.6"/>
      <point x="539.8" y="525.6" type="curve" smooth="yes"/>
      <point x="354.59999999999997" y="525.6"/>
      <point x="245.00000000000003" y="417.2"/>
      <point x="245.00000000000003" y="255.4" type="curve" smooth="yes"/>
      <point x="245.00000000000003" y="127.3"/>
      <point x="315.19999999999993" y="56.7"/>
      <point x="425.4" y="56.7" type="curve" smooth="yes"/>
      <point x="503.0999999999999" y="56.7"/>
      <point x="563.0999999999999" y="96.6"/>
      <point x="602.8000000000001" y="148.79999999999998" type="curve"/>
      <point x="625.0" y="90.30000000000001"/>
      <point x="670.3" y="47.400000000000006"/>
      <point x="761.5" y="47.400000000000006" type="curve" smooth="yes"/>
      <point x="923.7" y="40.400000000000006"/>
      <point x="995.6" y="176.7"/>
      <point x="995.6" y="333.6" type="curve" smooth="yes"/>
      <point x="995.6" y="574.6"/>
      <point x="820.4000000000001" y="710.0"/>
      <point x="544.0" y="710.0" type="curve" smooth="yes"/>
      <point x="217.7" y="710.0"/>
      <point x="25.500000000000007" y="520.0"/>
      <point x="25.500000000000007" y="261.3" type="curve" smooth="yes"/>
      <point x="25.500000000000007" y="-20.599999999999994"/>
      <point x="215.59999999999997" y="-124.3"/>
    </contour>
    <contour>
      <point x="492.9" y="202.9" type="curve" smooth="yes"/>
      <point x="460.0" y="202.9"/>
      <point x="437.0" y="225.9"/>
      <point x="437.0" y="269.9" type="curve" smooth="yes"/>
      <point x="437.0" y="347.90000000000003"/>
      <point x="480.1" y="399.7"/>
      <point x="526.0" y="399.7" type="curve" smooth="yes"/>
      <point x="550.5999999999999" y="399.7"/>
      <point x="567.0999999999999" y="397.8"/>
      <point x="589.6999999999999" y="388.79999999999995" type="curve"/>
      <point x="576.1" y="251.7" type="line" smooth="yes"/>
      <point x="554.3" y="220.0"/>
      <point x="525.9000000000001" y="202.9"/>
    </contour>
  </outline>
</glyph>
<glyph name="A" format="2">
  <advance width="917.6999999999999"/>
  <unicode hex="0041"/>
  <anchor x="913.5999999999999" y="0.0" name="ogonek"/>
  <anchor x="447.90000000000003" y="0.0" name="bottom"/>
  <anchor x="459.8" y="700.0" name="top"/>
  <outline>
    <contour>
      <point x="4.1" y="0.0" type="line"/>
      <point x="298.4" y="0.0" type="line"/>
      <point x="327.79999999999995" y="91.0" type="line"/>
      <point x="570.5" y="91.0" type="line"/>
      <point x="600.5" y="0.0" type="line"/>
      <point x="913.5999999999999" y="0.0" type="line"/>
      <point x="612.0" y="700.0" type="line"/>
      <point x="304.2" y="700.0" type="line"/>
    </contour>
    <contour>
      <point x="389.0" y="281.0" type="line"/>
      <point x="449.3" y="497.9" type="line"/>
      <point x="509.3" y="281.0" type="line"/>
    </contour>
  </outline>
</glyph>
<glyph name="B" format="2">
  <advance width="881.3"/>
  <unicode hex="0042"/>
  <anchor x="438.7" y="700.0" name="top"/>
  <anchor x="438.7" y="0.0" name="bottom"/>
  <outline>
    <contour>
      <point x="59.1" y="5.0" type="line"/>
      <point x="288.3" y="-8.0"/>
      <point x="292.7" y="-10.0"/>
      <point x="446.1" y="-10.0" type="curve" smooth="yes"/>
      <point x="774.8999999999999" y="-10.0"/>
      <point x="871.1" y="44.0"/>
      <point x="871.1" y="210.2" type="curve" smooth="yes"/>
      <point x="871.1" y="303.79999999999995"/>
      <point x="804.3000000000001" y="369.8"/>
      <point x="690.9" y="391.4" type="curve"/>
      <point x="690.9" y="393.4" type="line"/>
      <point x="785.0" y="425.70000000000005"/>
      <point x="819.6999999999999" y="469.0"/>
      <point x="819.6999999999999" y="545.8000000000001" type="curve" smooth="yes"/>
      <point x="819.6999999999999" y="664.9"/>
      <point x="722.3" y="710.0"/>
      <point x="446.1" y="710.0" type="curve" smooth="yes"/>
      <point x="346.0" y="710.0"/>
      <point x="219.0" y="705.0"/>
      <point x="59.1" y="695.0" type="curve"/>
    </contour>
    <contour>
      <point x="335.9" y="431.7" type="line"/>
      <point x="335.9" y="514.6999999999999" type="line"/>
      <point x="385.29999999999995" y="517.7"/>
      <point x="392.7" y="518.7"/>
      <point x="435.3999999999999" y="518.7" type="curve" smooth="yes"/>
      <point x="530.4" y="518.7"/>
      <point x="553.4" y="507.1"/>
      <point x="553.4" y="474.2" type="curve" smooth="yes"/>
      <point x="553.4" y="443.90000000000003"/>
      <point x="530.0" y="431.7"/>
      <point x="488.70000000000005" y="431.7" type="curve" smooth="yes"/>
    </contour>
    <contour>
      <point x="335.9" y="184.70000000000002" type="curve"/>
      <point x="335.9" y="269.3" type="line"/>
      <point x="483.6" y="269.3" type="line" smooth="yes"/>
      <point x="561.4" y="269.3"/>
      <point x="581.9000000000001" y="259.3"/>
      <point x="581.9000000000001" y="225.7" type="curve" smooth="yes"/>
      <point x="581.9000000000001" y="190.6"/>
      <point x="555.4" y="181.0"/>
      <point x="425.9" y="181.0" type="curve" smooth="yes"/>
      <point x="404.9" y="181.0"/>
      <point x="359.69999999999993" y="182.7"/>
    </contour>
  </outline>
</glyph>
<glyph name="C" format="2">
  <advance width="855.9"/>
  <unicode hex="0043"/>
  <anchor x="466.4" y="700.0" name="top"/>
  <anchor x="455.1" y="0.0" name="bottom"/>
  <outline>
    <contour>
      <point x="27.9" y="333.9" type="curve" smooth="yes"/>
      <point x="27.9" y="84.4"/>
      <point x="179.6" y="-10.0"/>
      <point x="467.9" y="-10.0" type="curve" smooth="yes"/>
      <point x="644.9000000000001" y="-10.0"/>
      <point x="731.9" y="10.2"/>
      <point x="821.0" y="34.8" type="curve"/>
      <point x="772.8" y="225.6" type="line"/>
      <point x="688.3999999999999" y="208.9"/>
      <point x="593.2" y="197.0"/>
      <point x="511.30000000000007" y="197.0" type="curve" smooth="yes"/>
      <point x="363.4" y="197.0"/>
      <point x="311.3" y="237.2"/>
      <point x="311.3" y="340.09999999999997" type="curve" smooth="yes"/>
      <point x="311.3" y="454.90000000000003"/>
      <point x="359.8" y="499.79999999999995"/>
      <point x="514.5999999999999" y="499.79999999999995" type="curve" smooth="yes"/>
      <point x="582.3" y="499.79999999999995"/>
      <point x="661.5" y="490.6"/>
      <point x="751.1" y="475.4" type="curve"/>
      <point x="805.0" y="672.6" type="line"/>
      <point x="708.5" y="699.0"/>
      <point x="637.5999999999999" y="710.0"/>
      <point x="495.99999999999994" y="710.0" type="curve" smooth="yes"/>
      <point x="187.09999999999997" y="710.0"/>
      <point x="27.9" y="598.5"/>
    </contour>
  </outline>
</glyph>
<glyph name="D" format="2">
  <advance width="927.8"/>
  <unicode hex="0044"/>
  <anchor x="461.40000000000003" y="700.0" name="top"/>
  <outline>
    <contour>
      <point x="460.5" y="-10.0" type="curve" smooth="yes"/>
      <point x="749.8999999999999" y="-10.0"/>
      <point x="899.9" y="108.39999999999999"/>
      <point x="899.9" y="347.0" type="curve" smooth="yes"/>
      <point x="899.9" y="599.4000000000001"/>
      <point x="763.1999999999999" y="710.0"/>
      <point x="439.99999999999994" y="710.0" type="curve" smooth="yes"/>
      <point x="302.7" y="710.0"/>
      <point x="197.4" y="707.0"/>
      <point x="59.1" y="699.4000000000001" type="curve"/>
      <point x="59.1" y="0.0" type="line"/>
      <point x="176.79999999999998" y="-4.9"/>
      <point x="288.0" y="-10.0"/>
    </contour>
    <contour>
      <point x="481.7" y="180.0" type="curve" smooth="yes"/>
      <point x="415.7" y="180.0"/>
      <point x="388.20000000000005" y="182.39999999999998"/>
      <point x="335.6" y="184.10000000000002" type="curve"/>
      <point x="335.6" y="516.4" type="line"/>
      <point x="366.5" y="519.1"/>
      <point x="412.0" y="520.0999999999999"/>
      <point x="474.0" y="520.0999999999999" type="curve" smooth="yes"/>
      <point x="564.8" y="520.0999999999999"/>
      <point x="617.8" y="468.5"/>
      <point x="617.8" y="347.90000000000003" type="curve" smooth="yes"/>
      <point x="617.8" y="236.9"/>
      <point x="563.5" y="180.0"/>
    </contour>
  </outline>
</glyph>
<glyph name="E" format="2">
  <advance width="833.1"/>
  <unicode hex="0045"/>
  <anchor x="799.3999999999999" y="0.0" name="ogonek"/>
  <anchor x="429.3" y="0.0" name="bottom"/>
  <anchor x="439.1" y="700.0" name="top"/>
  <outline>
    <contour>
      <point x="59.1" y="0.0" type="line"/>
      <point x="799.3999999999999" y="0.0" type="line"/>
      <point x="799.3999999999999" y="196.9" type="line"/>
      <point x="328.9" y="196.9" type="line"/>
      <point x="328.9" y="261.90000000000003" type="line"/>
      <point x="746.5" y="261.90000000000003" type="line"/>
      <point x="746.5" y="438.3" type="line"/>
      <point x="328.9" y="438.3" type="line"/>
      <point x="328.9" y="501.6" type="line"/>
      <point x="775.8" y="501.6" type="line"/>
      <point x="775.8" y="700.0" type="line"/>
      <point x="59.1" y="700.0" type="line"/>
    </contour>
  </outline>
</glyph>
<glyph name="F" format="2">
  <advance width="789.5999999999999"/>
  <unicode hex="0046"/>
  <outline>
    <contour>
      <point x="59.1" y="0.0" type="line"/>
      <point x="336.2" y="0.0" type="line"/>
      <point x="336.2" y="185.6" type="line"/>
      <point x="710.8" y="185.6" type="line"/>
      <point x="710.8" y="387.5" type="line"/>
      <point x="335.6" y="387.5" type="line"/>
      <point x="335.6" y="491.1" type="line"/>
      <point x="768.5" y="491.1" type="line"/>
      <point x="768.5" y="700.0" type="line"/>
      <point x="59.1" y="700.0" type="line"/>
    </contour>
  </outline>
</glyph>
<glyph name="G" format="2">
  <advance width="885.5999999999998"/>
  <unicode hex="0047"/>
  <anchor x="466.5" y="700.0" name="top"/>
  <anchor x="456.70000000000005" y="0.0" name="bottom"/>
  <outline>
    <contour>
      <point x="27.9" y="334.5" type="curve" smooth="yes"/>
      <point x="27.9" y="99.89999999999999"/>
      <point x="164.8" y="-10.0"/>
      <point x="451.2" y="-10.0" type="curve" smooth="yes"/>
      <point x="604.2" y="-10.0"/>
      <point x="731.1" y="10.8"/>
      <point x="842.0" y="55.0" type="curve"/>
      <point x="842.0" y="428.29999999999995" type="line"/>
      <point x="475.70000000000005" y="428.29999999999995" type="line"/>
      <point x="475.70000000000005" y="244.0" type="line"/>
      <point x="597.6999999999999" y="244.0" type="line"/>
      <point x="597.6999999999999" y="190.1" type="line"/>
      <point x="573.1" y="185.79999999999998"/>
      <point x="535.8000000000001" y="182.8"/>
      <point x="497.49999999999994" y="182.8" type="curve" smooth="yes"/>
      <point x="370.9" y="182.8"/>
      <point x="310.7" y="220.4"/>
      <point x="310.7" y="338.0" type="curve" smooth="yes"/>
      <point x="310.7" y="454.90000000000003"/>
      <point x="367.1" y="500.4"/>
      <point x="514.0" y="500.4" type="curve" smooth="yes"/>
      <point x="579.6999999999999" y="500.4"/>
      <point x="666.1" y="491.4"/>
      <point x="759.8" y="475.1" type="curve"/>
      <point x="810.4" y="672.9" type="line"/>
      <point x="706.2" y="699.8"/>
      <point x="627.1999999999999" y="710.0"/>
      <point x="496.90000000000003" y="710.0" type="curve" smooth="yes"/>
      <point x="179.2" y="710.0"/>
      <point x="27.9" y="588.5999999999999"/>
    </contour>
  </outline>
</glyph>
<glyph name="H" format="2">
  <advance width="939.0999999999998"/>
  <unicode hex="0048"/>
  <anchor x="469.70000000000005" y="700.0" name="top"/>
  <outline>
    <contour>
      <point x="59.1" y="0.0" type="line"/>
      <point x="335.6" y="0.0" type="line"/>
      <point x="335.6" y="216.10000000000002" type="line"/>
      <point x="603.5" y="216.10000000000002" type="line"/>
      <point x="603.5" y="0.0" type="line"/>
      <point x="880.0" y="0.0" type="line"/>
      <point x="880.0" y="700.0" type="line"/>
      <point x="603.5" y="700.0" type="line"/>
      <point x="603.5" y="439.6" type="line"/>
      <point x="335.6" y="439.6" type="line"/>
      <point x="335.6" y="700.0" type="line"/>
      <point x="59.1" y="700.0" type="line"/>
    </contour>
  </outline>
</glyph>
<glyph name="I" format="2">
  <advance width="394.70000000000005"/>
  <unicode hex="0049"/>
  <anchor x="335.6" y="0.0" name="ogonek"/>
  <anchor x="197.5" y="0.0" name="bottom"/>
  <anchor x="197.5" y="700.0" name="top"/>
  <outline>
    <contour>
      <point x="59.1" y="0.0" type="line"/>
      <point x="335.6" y="0.0" type="line"/>
      <point x="335.6" y="700.0" type="line"/>
      <point x="59.1" y="700.0" type="line"/>
    </contour>
  </outline>
</glyph>
<glyph name="J" format="2">
  <advance width="733.8"/>
  <unicode hex="004A"/>
  <anchor x="375.8" y="700.0" name="top"/>
  <outline>
    <contour>
      <point x="8.399999999999999" y="35.89999999999999" type="line"/>
      <point x="130.7" y="3.9000000000000004"/>
      <point x="248.89999999999998" y="-10.0"/>
      <point x="355.0" y="-10.0" type="curve" smooth="yes"/>
      <point x="587.9" y="-10.0"/>
      <point x="680.1999999999999" y="80.3"/>
      <point x="680.1999999999999" y="272.7" type="curve" smooth="yes"/>
      <point x="680.1999999999999" y="700.0" type="line"/>
      <point x="74.89999999999999" y="700.0" type="line"/>
      <point x="74.89999999999999" y="482.29999999999995" type="line"/>
      <point x="403.7" y="482.29999999999995" type="line"/>
      <point x="403.7" y="317.7" type="line" smooth="yes"/>
      <point x="403.7" y="229.3"/>
      <point x="370.09999999999997" y="199.6"/>
      <point x="284.59999999999997" y="199.6" type="curve" smooth="yes"/>
      <point x="231.2" y="199.6"/>
      <point x="156.79999999999998" y="212.29999999999998"/>
      <point x="61.2" y="232.0" type="curve"/>
    </contour>
  </outline>
</glyph>
<glyph name="K" format="2">
  <advance width="934.5"/>
  <unicode hex="004B"/>
  <anchor x="465.0" y="700.0" name="top"/>
  <anchor x="466.0" y="0.0" name="bottom"/>
  <outline>
    <contour>
      <point x="866.9999999999999" y="-10.0" type="curve" smooth="yes"/>
      <point x="876.9999999999999" y="-10.0"/>
      <point x="887.9999999999999" y="-9.5"/>
      <point x="899.4999999999999" y="-8.0" type="curve"/>
      <point x="899.4999999999999" y="232.0" type="line"/>
      <point x="890.9999999999999" y="231.5"/>
      <point x="882.9999999999999" y="231.5"/>
      <point x="875.4999999999999" y="231.5" type="curve" smooth="yes"/>
      <point x="815.0" y="232.0"/>
      <point x="750.5" y="251.0"/>
      <point x="647.0" y="305.5" type="curve" smooth="yes"/>
      <point x="316.0" y="480.5" type="line"/>
      <point x="316.0" y="700.0" type="line"/>
      <point x="68.49999999999999" y="700.0" type="line"/>
      <point x="68.49999999999999" y="0.0" type="line"/>
      <point x="316.0" y="0.0" type="line"/>
      <point x="316.0" y="212.0" type="line"/>
      <point x="605.0" y="55.0" type="line" smooth="yes"/>
      <point x="694.5" y="6.500000000000002"/>
      <point x="784.0" y="-10.0"/>
    </contour>
    <contour>
      <point x="499.0" y="295.0" type="line"/>
      <point x="683.5" y="375.5"/>
      <point x="827.0" y="480.0"/>
      <point x="904.5" y="606.5" type="curve"/>
      <point x="710.0" y="711.0" type="line"/>
      <point x="613.5" y="581.5"/>
      <point x="459.49999999999994" y="471.5"/>
      <point x="336.0" y="413.0" type="curve"/>
    </contour>
  </outline>
</glyph>
<glyph name="L" format="2">
  <advance width="779.7"/>
  <unicode hex="004C"/>
  <anchor x="390.0" y="350.0" name="center"/>
  <anchor x="197.5" y="700.0" name="top"/>
  <anchor x="456.70000000000005" y="700.0" name="topright"/>
  <anchor x="408.3" y="0.0" name="bottom"/>
  <outline>
    <contour>
      <point x="59.1" y="0.0" type="line"/>
      <point x="752.2" y="0.0" type="line"/>
      <point x="752.2" y="221.39999999999998" type="line"/>
      <point x="335.9" y="221.39999999999998" type="line"/>
      <point x="335.9" y="700.0" type="line"/>
      <point x="59.1" y="700.0" type="line"/>
    </contour>
  </outline>
</glyph>
<glyph name="M" format="2">
  <advance width="1025.4"/>
  <unicode hex="004D"/>
  <outline>
    <contour>
      <point x="59.29999999999999" y="0.0" type="line"/>
      <point x="312.9" y="0.0" type="line"/>
      <point x="312.9" y="359.8" type="line"/>
      <point x="447.6" y="102.5" type="line"/>
      <point x="570.7" y="102.5" type="line"/>
      <point x="712.4999999999999" y="369.2" type="line"/>
      <point x="712.4999999999999" y="0.0" type="line"/>
      <point x="966.1" y="0.0" type="line"/>
      <point x="966.1" y="700.0" type="line"/>
      <point x="698.9999999999999" y="700.0" type="line"/>
      <point x="517.9" y="371.3" type="line"/>
      <point x="341.9" y="700.0" type="line"/>
      <point x="59.29999999999999" y="700.0" type="line"/>
    </contour>
  </outline>
</glyph>
<glyph name="N" format="2">
  <advance width="881.0"/>
  <unicode hex="004E"/>
  <anchor x="441.0" y="700.0" name="top"/>
  <anchor x="441.0" y="0.0" name="bottom"/>
  <outline>
    <contour>
      <point x="58.999999999999986" y="0.0" type="line"/>
      <point x="307.0" y="0.0" type="line"/>
      <point x="307.0" y="322.5" type="line"/>
      <point x="576.4999999999999" y="0.0" type="line"/>
      <point x="821.9999999999999" y="0.0" type="line"/>
      <point x="821.9999999999999" y="700.0" type="line"/>
      <point x="574.4999999999999" y="700.0" type="line"/>
      <point x="574.4999999999999" y="355.0" type="line"/>
      <point x="305.5" y="700.0" type="line"/>
      <point x="58.999999999999986" y="700.0" type="line"/>
    </contour>
  </outline>
</glyph>
<glyph name="O" format="2">
  <advance width="926.5"/>
  <unicode hex="004F"/>
  <anchor x="588.0" y="1.5000000000000018" name="ogonek"/>
  <anchor x="464.0" y="700.0" name="top"/>
  <anchor x="742.0" y="691.0" name="topright"/>
  <anchor x="464.5" y="0.0" name="bottom"/>
  <outline>
    <contour>
      <point x="464.5" y="180.5" type="curve" smooth="yes"/>
      <point x="360.5" y="180.5"/>
      <point x="309.5" y="226.5"/>
      <point x="309.5" y="351.0" type="curve" smooth="yes"/>
      <point x="309.5" y="472.0"/>
      <point x="358.0" y="519.5"/>
      <point x="464.5" y="519.5" type="curve" smooth="yes"/>
      <point x="575.5" y="519.5"/>
      <point x="617.4999999999999" y="466.0"/>
      <point x="617.4999999999999" y="351.5" type="curve" smooth="yes"/>
      <point x="617.4999999999999" y="235.5"/>
      <point x="574.0" y="180.5"/>
    </contour>
    <contour>
      <point x="464.5" y="-10.0" type="curve" smooth="yes"/>
      <point x="762.5" y="-10.0"/>
      <point x="898.5" y="103.5"/>
      <point x="898.5" y="353.5" type="curve" smooth="yes"/>
      <point x="898.5" y="592.0"/>
      <point x="778.0" y="710.0"/>
      <point x="464.5" y="710.0" type="curve" smooth="yes"/>
      <point x="149.50000000000003" y="710.0"/>
      <point x="28.000000000000004" y="591.5"/>
      <point x="28.000000000000004" y="352.0" type="curve" smooth="yes"/>
      <point x="28.000000000000004" y="103.0"/>
      <point x="165.00000000000003" y="-10.0"/>
    </contour>
  </outline>
</glyph>
<glyph name="P" format="2">
  <advance width="922.5"/>
  <unicode hex="0050"/>
  <outline>
    <contour>
      <point x="59.1" y="0.0" type="line"/>
      <point x="335.9" y="0.0" type="line"/>
      <point x="335.9" y="164.0" type="line"/>
      <point x="457.0" y="160.0"/>
      <point x="412.0" y="160.0"/>
      <point x="536.2" y="160.0" type="curve" smooth="yes"/>
      <point x="815.6999999999999" y="160.0"/>
      <point x="900.9" y="241.7"/>
      <point x="900.9" y="438.0" type="curve" smooth="yes"/>
      <point x="900.9" y="638.1999999999999"/>
      <point x="815.4" y="710.0"/>
      <point x="461.9" y="710.0" type="curve" smooth="yes"/>
      <point x="410.3" y="710.0"/>
      <point x="266.2" y="707.6"/>
      <point x="59.1" y="700.6" type="curve"/>
    </contour>
    <contour>
      <point x="336.2" y="512.4" type="line"/>
      <point x="417.9" y="516.1"/>
      <point x="429.3" y="516.1"/>
      <point x="484.4" y="516.1" type="curve" smooth="yes"/>
      <point x="591.9000000000001" y="516.1"/>
      <point x="619.2" y="490.6"/>
      <point x="619.2" y="440.90000000000003" type="curve" smooth="yes"/>
      <point x="619.2" y="379.0"/>
      <point x="607.7" y="355.09999999999997"/>
      <point x="427.6" y="355.09999999999997" type="curve" smooth="yes"/>
      <point x="403.2" y="355.09999999999997"/>
      <point x="386.29999999999995" y="355.8"/>
      <point x="336.2" y="359.2" type="curve"/>
    </contour>
  </outline>
</glyph>
<glyph name="Q" format="2">
  <advance width="926.8"/>
  <unicode hex="0051"/>
  <outline>
    <contour>
      <point x="715.2" y="48.4" type="curve"/>
      <point x="469.5" y="8.2" type="line"/>
      <point x="531.1" y="-129.0"/>
      <point x="617.9" y="-195.6"/>
      <point x="745.5" y="-195.6" type="curve" smooth="yes"/>
      <point x="786.9" y="-195.6"/>
      <point x="830.0999999999999" y="-189.1"/>
      <point x="873.8999999999999" y="-176.3" type="curve"/>
      <point x="845.9999999999999" y="21.8" type="line"/>
      <point x="831.1999999999999" y="17.3"/>
      <point x="815.5" y="15.4"/>
      <point x="798.5" y="15.4" type="curve" smooth="yes"/>
      <point x="767.2" y="15.4"/>
      <point x="738.0" y="26.400000000000006"/>
    </contour>
    <component base="O"/>
  </outline>
</glyph>
<glyph name="R" format="2">
  <advance width="978.5"/>
  <unicode hex="0052"/>
  <anchor x="481.99999999999994" y="700.0" name="top"/>
  <anchor x="485.99999999999994" y="0.0" name="bottom"/>
  <outline>
    <contour>
      <point x="898.9999999999999" y="-10.0" type="curve" smooth="yes"/>
      <point x="918.9999999999999" y="-10.0"/>
      <point x="935.0" y="-9.0"/>
      <point x="945.5" y="-7.5" type="curve"/>
      <point x="946.5" y="219.5" type="line"/>
      <point x="940.0" y="219.5"/>
      <point x="931.5" y="219.0"/>
      <point x="925.0" y="219.0" type="curve" smooth="yes"/>
      <point x="861.9999999999999" y="219.0"/>
      <point x="772.0" y="265.0"/>
      <point x="698.0" y="274.0" type="curve"/>
      <point x="821.0" y="295.5"/>
      <point x="899.0" y="358.0"/>
      <point x="899.0" y="481.5" type="curve" smooth="yes"/>
      <point x="899.0" y="639.0"/>
      <point x="783.5" y="709.5"/>
      <point x="469.5" y="709.5" type="curve" smooth="yes"/>
      <point x="375.5" y="709.5"/>
      <point x="246.99999999999997" y="706.0"/>
      <point x="68.49999999999999" y="699.0" type="curve"/>
      <point x="68.49999999999999" y="0.0" type="line"/>
      <point x="315.5" y="0.0" type="line"/>
      <point x="315.5" y="206.0" type="line"/>
      <point x="345.0" y="205.5"/>
      <point x="370.0" y="205.0"/>
      <point x="395.0" y="205.0" type="curve" smooth="yes"/>
      <point x="406.0" y="205.0"/>
      <point x="416.5" y="205.0"/>
      <point x="428.0" y="204.5" type="curve"/>
      <point x="580.0" y="82.5"/>
      <point x="754.4999999999999" y="-10.0"/>
    </contour>
    <contour>
      <point x="486.49999999999994" y="361.0" type="curve" smooth="yes"/>
      <point x="407.5" y="361.0"/>
      <point x="374.5" y="362.5"/>
      <point x="315.5" y="365.5" type="curve"/>
      <point x="315.5" y="524.5" type="line"/>
      <point x="396.0" y="528.5"/>
      <point x="414.0" y="529.0"/>
      <point x="477.0" y="529.0" type="curve" smooth="yes"/>
      <point x="609.0" y="529.0"/>
      <point x="646.5" y="508.0"/>
      <point x="646.5" y="452.0" type="curve" smooth="yes"/>
      <point x="646.5" y="390.5"/>
      <point x="607.0" y="361.0"/>
    </contour>
  </outline>
</glyph>
<glyph name="S" format="2">
  <advance width="850.5"/>
  <unicode hex="0053"/>
  <anchor x="433.5" y="700.0" name="top"/>
  <anchor x="416.2" y="0.0" name="bottom"/>
  <outline>
    <contour>
      <point x="795.7" y="671.2" type="line"/>
      <point x="715.7" y="690.5"/>
      <point x="590.6" y="710.0"/>
      <point x="445.0" y="710.0" type="curve" smooth="yes"/>
      <point x="157.0" y="710.0"/>
      <point x="28.6" y="623.8"/>
      <point x="28.6" y="465.7" type="curve" smooth="yes"/>
      <point x="28.6" y="356.5"/>
      <point x="80.99999999999997" y="293.6"/>
      <point x="242.60000000000002" y="263.1" type="curve" smooth="yes"/>
      <point x="470.3" y="225.5"/>
      <point x="538.4" y="233.60000000000002"/>
      <point x="538.4" y="209.4" type="curve" smooth="yes"/>
      <point x="538.4" y="189.3"/>
      <point x="522.8" y="174.1"/>
      <point x="430.1" y="174.1" type="curve" smooth="yes"/>
      <point x="317.6" y="174.1"/>
      <point x="176.3" y="193.7"/>
      <point x="51.1" y="233.0" type="curve"/>
      <point x="2.700000000000003" y="42.6" type="line"/>
      <point x="125.4" y="5.900000000000002"/>
      <point x="273.2" y="-10.0"/>
      <point x="399.2" y="-10.0" type="curve" smooth="yes"/>
      <point x="681.0" y="-10.0"/>
      <point x="838.3" y="67.6"/>
      <point x="838.3" y="234.0" type="curve" smooth="yes"/>
      <point x="838.3" y="356.3"/>
      <point x="774.1" y="414.9"/>
      <point x="555.4" y="443.0" type="curve" smooth="yes"/>
      <point x="356.1" y="468.0"/>
      <point x="329.0" y="463.9"/>
      <point x="329.0" y="483.8" type="curve" smooth="yes"/>
      <point x="329.0" y="508.3"/>
      <point x="358.3" y="519.8"/>
      <point x="431.7" y="519.8" type="curve" smooth="yes"/>
      <point x="542.6" y="519.8"/>
      <point x="678.1" y="503.3"/>
      <point x="750.3" y="480.5" type="curve"/>
    </contour>
  </outline>
</glyph>
<glyph name="T" format="2">
  <advance width="877.6"/>
  <unicode hex="0054"/>
  <anchor x="438.8" y="700.0" name="top"/>
  <anchor x="438.8" y="0.0" name="bottom"/>
  <outline>
    <contour>
      <point x="850.1" y="477.4" type="line"/>
      <point x="850.1" y="700.0" type="line"/>
      <point x="27.499999999999996" y="700.0" type="line"/>
      <point x="27.499999999999996" y="477.4" type="line"/>
      <point x="300.7" y="477.4" type="line"/>
      <point x="300.7" y="0.0" type="line"/>
      <point x="577.2" y="0.0" type="line"/>
      <point x="577.2" y="477.4" type="line"/>
    </contour>
  </outline>
</glyph>
<glyph name="U" format="2">
  <advance width="921.0999999999999"/>
  <unicode hex="0055"/>
  <anchor x="578.3" y="0.6000000000000001" name="ogonek"/>
  <anchor x="460.7" y="700.0" name="top"/>
  <anchor x="867.5" y="700.0" name="topright"/>
  <anchor x="460.7" y="0.0" name="bottom"/>
  <outline>
    <contour>
      <point x="53.599999999999994" y="265.6" type="line"/>
      <point x="53.599999999999994" y="80.2"/>
      <point x="177.89999999999998" y="-10.0"/>
      <point x="460.1" y="-10.0" type="curve" smooth="yes"/>
      <point x="744.4000000000001" y="-10.0"/>
      <point x="867.5" y="80.2"/>
      <point x="867.5" y="265.6" type="curve" smooth="yes"/>
      <point x="867.5" y="700.0" type="line"/>
      <point x="596.0" y="700.0" type="line"/>
      <point x="596.0" y="280.5" type="line" smooth="yes"/>
      <point x="596.0" y="227.0"/>
      <point x="558.4000000000001" y="191.7"/>
      <point x="462.2" y="191.7" type="curve" smooth="yes"/>
      <point x="371.2" y="191.7"/>
      <point x="324.5" y="220.70000000000002"/>
      <point x="324.5" y="280.5" type="curve" smooth="yes"/>
      <point x="324.5" y="700.0" type="line"/>
      <point x="53.599999999999994" y="700.0" type="line"/>
    </contour>
  </outline>
</glyph>
<glyph name="V" format="2">
  <advance width="888.1"/>
  <unicode hex="0056"/>
  <outline>
    <contour>
      <point x="290.2" y="0.0" type="line"/>
      <point x="600.0" y="0.0" type="line"/>
      <point x="894.1" y="700.0" type="line"/>
      <point x="587.7" y="700.2" type="line"/>
      <point x="446.5" y="209.5" type="line"/>
      <point x="303.5" y="700.2" type="line"/>
      <point x="-6.0" y="700.0" type="line"/>
    </contour>
  </outline>
</glyph>
<glyph name="W" format="2">
  <advance width="1058.5"/>
  <unicode hex="0057"/>
  <anchor x="529.5" y="700.0" name="top"/>
  <anchor x="529.5" y="0.0" name="bottom"/>
  <outline>
    <contour>
      <point x="880.4" y="0.0" type="line"/>
      <point x="1061.2" y="700.1" type="line"/>
      <point x="765.4000000000001" y="700.1" type="line"/>
      <point x="739.6999999999999" y="241.6" type="line"/>
      <point x="664.7" y="656.7" type="line"/>
      <point x="401.5" y="656.7" type="line"/>
      <point x="314.6" y="239.8" type="line"/>
      <point x="288.9" y="700.1" type="line"/>
      <point x="-2.6999999999999993" y="700.1" type="line"/>
      <point x="170.10000000000002" y="0.0" type="line"/>
      <point x="438.5" y="0.0" type="line"/>
      <point x="524.9" y="353.0" type="line"/>
      <point x="597.8" y="0.0" type="line"/>
    </contour>
  </outline>
</glyph>
<glyph name="X" format="2">
  <advance width="827.9"/>
  <unicode hex="0058"/>
  <outline>
    <contour>
      <point x="-4.1" y="-0.20000000000000018" type="line"/>
      <point x="345.6" y="-0.20000000000000018" type="line"/>
      <point x="423.8" y="220.9" type="line"/>
      <point x="504.5" y="-0.20000000000000018" type="line"/>
      <point x="832.3" y="-0.20000000000000018" type="line"/>
      <point x="600.5" y="360.8" type="line"/>
      <point x="819.8" y="700.2" type="line"/>
      <point x="503.3" y="700.2" type="line"/>
      <point x="419.4" y="496.0" type="line"/>
      <point x="345.9" y="700.2" type="line"/>
      <point x="17.1" y="700.2" type="line"/>
      <point x="234.9" y="360.6" type="line"/>
    </contour>
  </outline>
</glyph>
<glyph name="Y" format="2">
  <advance width="888.4"/>
  <unicode hex="0059"/>
  <anchor x="444.2" y="700.0" name="top"/>
  <anchor x="444.20000000000005" y="0.0" name="bottom"/>
  <outline>
    <contour>
      <point x="305.79999999999995" y="0.0" type="line"/>
      <point x="582.3" y="0.0" type="line"/>
      <point x="582.3" y="220.6" type="line"/>
      <point x="894.6" y="700.0" type="line"/>
      <point x="585.1" y="700.0" type="line"/>
      <point x="445.59999999999997" y="371.09999999999997" type="line"/>
      <point x="306.1" y="700.0" type="line"/>
      <point x="-6.199999999999999" y="700.0" type="line"/>
      <point x="305.79999999999995" y="220.6" type="line"/>
    </contour>
  </outline>
</glyph>
<glyph name="Z" format="2">
  <advance width="844.5"/>
  <unicode hex="005A"/>
  <anchor x="423.0" y="350.0" name="center"/>
  <anchor x="423.0" y="0.0" name="bottom"/>
  <anchor x="424.8" y="700.0" name="top"/>
  <outline>
    <contour>
      <point x="28.9" y="0.0" type="line"/>
      <point x="814.6999999999999" y="0.0" type="line"/>
      <point x="814.6999999999999" y="198.6" type="line"/>
      <point x="416.29999999999995" y="198.6" type="line"/>
      <point x="416.29999999999995" y="200.29999999999998" type="line"/>
      <point x="786.6999999999999" y="513.0" type="line"/>
      <point x="786.6999999999999" y="700.0" type="line"/>
      <point x="50.8" y="700.0" type="line"/>
      <point x="50.8" y="501.4" type="line"/>
      <point x="411.5" y="501.4" type="line"/>
      <point x="411.5" y="499.69999999999993" type="line"/>
      <point x="28.9" y="187.0" type="line"/>
    </contour>
  </outline>
</glyph>
<glyph name="bracketleft" format="2">
  <advance width="421.7"/>
  <unicode hex="005B"/>
  <outline>
    <contour>
      <point x="231.70000000000002" y="-55.0" type="line"/>
      <point x="231.70000000000002" y="585.0" type="line"/>
      <point x="392.7" y="585.0" type="line"/>
      <point x="392.7" y="740.0" type="line"/>
      <point x="30.799999999999997" y="740.0" type="line"/>
      <point x="30.799999999999997" y="-210.0" type="line"/>
      <point x="392.7" y="-210.0" type="line"/>
      <point x="392.7" y="-55.0" type="line"/>
    </contour>
  </outline>
</glyph>
<glyph name="backslash" format="2">
  <advance width="568.5"/>
  <unicode hex="005C"/>
  <outline>
    <contour>
      <point x="206.5" y="740.0" type="line"/>
      <point x="3.9999999999999982" y="740.0" type="line"/>
      <point x="362.3" y="-210.0" type="line"/>
      <point x="564.5" y="-210.0" type="line"/>
    </contour>
  </outline>
</glyph>
<glyph name="bracketright" format="2">
  <advance width="421.7"/>
  <unicode hex="005D"/>
  <outline>
    <contour>
      <point x="29.0" y="-55.0" type="line"/>
      <point x="29.0" y="-210.0" type="line"/>
      <point x="390.9" y="-210.0" type="line"/>
      <point x="390.9" y="740.0" type="line"/>
      <point x="29.0" y="740.0" type="line"/>
      <point x="29.0" y="585.0" type="line"/>
      <point x="190.0" y="585.0" type="line"/>
      <point x="190.0" y="-55.0" type="line"/>
    </contour>
  </outline>
</glyph>
<glyph name="asciicircum" format="2">
  <advance width="673.4"/>
  <unicode hex="005E"/>
  <outline>
    <contour>
      <point x="44.7" y="214.0" type="line"/>
      <point x="246.7" y="214.0" type="line"/>
      <point x="336.7" y="439.70000000000005" type="line"/>
      <point x="427.7" y="214.0" type="line"/>
      <point x="628.7" y="214.0" type="line"/>
      <point x="447.4" y="700.0" type="line"/>
      <point x="226.0" y="700.0" type="line"/>
    </contour>
  </outline>
</glyph>
<glyph name="underscore" format="2">
  <advance width="915.8"/>
  <unicode hex="005F"/>
  <outline>
    <contour>
      <point x="20.0" y="-209.7" type="line"/>
      <point x="895.8" y="-209.7" type="line"/>
      <point x="895.8" y="-41.7" type="line"/>
      <point x="20.0" y="-41.7" type="line"/>
    </contour>
  </outline>
</glyph>
<glyph name="a" format="2">
  <advance width="752.0"/>
  <unicode hex="0061"/>
  <anchor x="716.0" y="12.5" name="ogonek"/>
  <anchor x="377.5" y="0.0" name="bottom"/>
  <anchor x="372.0" y="550.0" name="top"/>
  <outline>
    <contour>
      <point x="30.000000000000004" y="167.5" type="curve" smooth="yes"/>
      <point x="30.000000000000004" y="50.50000000000001"/>
      <point x="112.99999999999999" y="-10.0"/>
      <point x="222.5" y="-10.0" type="curve" smooth="yes"/>
      <point x="323.5" y="-10.0"/>
      <point x="395.49999999999994" y="18.500000000000007"/>
      <point x="466.0" y="65.5" type="curve"/>
      <point x="491.0" y="13.000000000000002"/>
      <point x="540.0" y="-10.0"/>
      <point x="613.0" y="-10.0" type="curve" smooth="yes"/>
      <point x="667.0" y="-10.0"/>
      <point x="712.5" y="3.9999999999999996"/>
      <point x="746.0" y="26.0" type="curve"/>
      <point x="729.0" y="185.5" type="line"/>
      <point x="722.5" y="183.0"/>
      <point x="713.0" y="182.5"/>
      <point x="706.0" y="182.5" type="curve" smooth="yes"/>
      <point x="689.0" y="182.5"/>
      <point x="676.0" y="193.5"/>
      <point x="676.0" y="234.0" type="curve" smooth="yes"/>
      <point x="676.0" y="336.0" type="line" smooth="yes"/>
      <point x="676.0" y="486.0"/>
      <point x="575.0" y="560.0"/>
      <point x="336.0" y="560.0" type="curve" smooth="yes"/>
      <point x="246.5" y="560.0"/>
      <point x="142.5" y="543.0"/>
      <point x="62.99999999999999" y="521.5" type="curve"/>
      <point x="96.5" y="346.0" type="line"/>
      <point x="170.5" y="365.5"/>
      <point x="258.0" y="376.5"/>
      <point x="318.5" y="376.5" type="curve" smooth="yes"/>
      <point x="398.49999999999994" y="376.5"/>
      <point x="444.0" y="364.0"/>
      <point x="444.0" y="332.0" type="curve" smooth="yes"/>
      <point x="444.0" y="347.5" type="line"/>
      <point x="146.0" y="336.5"/>
      <point x="30.000000000000004" y="311.0"/>
    </contour>
    <contour>
      <point x="270.0" y="179.0" type="curve" smooth="yes"/>
      <point x="270.0" y="224.5"/>
      <point x="314.0" y="230.0"/>
      <point x="444.0" y="231.0" type="curve"/>
      <point x="444.0" y="170.0" type="line"/>
      <point x="410.0" y="144.0"/>
      <point x="353.5" y="131.5"/>
      <point x="320.5" y="131.5" type="curve" smooth="yes"/>
      <point x="290.0" y="131.5"/>
      <point x="270.0" y="144.0"/>
    </contour>
  </outline>
</glyph>
<glyph name="b" format="2">
  <advance width="774.8"/>
  <unicode hex="0062"/>
  <outline>
    <contour>
      <point x="43.5" y="21.799999999999997" type="line"/>
      <point x="174.39999999999998" y="1.2999999999999998"/>
      <point x="290.29999999999995" y="-10.0"/>
      <point x="383.99999999999994" y="-10.0" type="curve" smooth="yes"/>
      <point x="643.0999999999999" y="-10.0"/>
      <point x="751.5" y="75.19999999999999"/>
      <point x="751.5" y="283.5" type="curve" smooth="yes"/>
      <point x="751.5" y="462.9"/>
      <point x="667.9" y="560.0"/>
      <point x="517.4" y="560.0" type="curve" smooth="yes"/>
      <point x="443.9" y="560.0"/>
      <point x="377.2" y="542.0"/>
      <point x="306.0" y="502.8" type="curve"/>
      <point x="306.0" y="740.0" type="line"/>
      <point x="43.5" y="740.0" type="line"/>
    </contour>
    <contour>
      <point x="306.0" y="171.9" type="curve"/>
      <point x="306.0" y="339.9" type="line"/>
      <point x="345.7" y="353.7"/>
      <point x="380.9" y="360.6"/>
      <point x="409.4" y="360.6" type="curve" smooth="yes"/>
      <point x="458.4999999999999" y="360.6"/>
      <point x="482.9" y="335.6"/>
      <point x="482.9" y="267.40000000000003" type="curve" smooth="yes"/>
      <point x="482.9" y="189.6"/>
      <point x="451.50000000000006" y="160.5"/>
      <point x="390.9" y="160.5" type="curve" smooth="yes"/>
      <point x="362.70000000000005" y="160.5"/>
      <point x="332.4" y="164.3"/>
    </contour>
  </outline>
</glyph>
<glyph name="c" format="2">
  <advance width="692.3"/>
  <unicode hex="0063"/>
  <anchor x="384.6" y="550.0" name="top"/>
  <anchor x="384.59999999999997" y="0.0" name="bottom"/>
  <outline>
    <contour>
      <point x="23.3" y="260.3" type="curve" smooth="yes"/>
      <point x="23.3" y="77.30000000000001"/>
      <point x="137.0" y="-10.0"/>
      <point x="378.09999999999997" y="-10.0" type="curve" smooth="yes"/>
      <point x="476.4" y="-10.0"/>
      <point x="582.9" y="2.0"/>
      <point x="673.5999999999999" y="22.300000000000004" type="curve"/>
      <point x="641.5" y="200.4" type="line"/>
      <point x="559.2" y="187.39999999999998"/>
      <point x="502.99999999999994" y="182.0"/>
      <point x="432.1" y="182.0" type="curve" smooth="yes"/>
      <point x="343.8" y="182.0"/>
      <point x="291.9" y="208.6"/>
      <point x="291.9" y="270.79999999999995" type="curve" smooth="yes"/>
      <point x="291.9" y="333.3"/>
      <point x="329.70000000000005" y="364.2"/>
      <point x="418.2" y="364.2" type="curve" smooth="yes"/>
      <point x="478.79999999999995" y="364.2"/>
      <point x="549.4000000000001" y="358.0"/>
      <point x="628.2" y="344.6" type="curve"/>
      <point x="658.5" y="533.9" type="line"/>
      <point x="586.9" y="550.2"/>
      <point x="492.79999999999995" y="560.0"/>
      <point x="402.4" y="560.0" type="curve" smooth="yes"/>
      <point x="156.7" y="560.0"/>
      <point x="23.3" y="454.6"/>
    </contour>
  </outline>
</glyph>
<glyph name="d" format="2">
  <advance width="775.8"/>
  <unicode hex="0064"/>
  <anchor x="390.8" y="275.0" name="center"/>
  <anchor x="379.5" y="740.0" name="top"/>
  <anchor x="769.3" y="740.0" name="topright"/>
  <anchor x="390.8" y="0.0" name="bottom"/>
  <outline>
    <contour>
      <point x="506.0999999999999" y="-2.8" type="line"/>
      <point x="732.3" y="-2.8" type="line"/>
      <point x="732.3" y="740.0" type="line"/>
      <point x="469.5" y="740.0" type="line"/>
      <point x="469.5" y="556.4" type="line"/>
      <point x="439.9" y="558.7"/>
      <point x="408.5" y="560.0"/>
      <point x="377.9" y="560.0" type="curve" smooth="yes"/>
      <point x="132.89999999999998" y="560.0"/>
      <point x="23.3" y="467.59999999999997"/>
      <point x="23.3" y="269.2" type="curve" smooth="yes"/>
      <point x="23.3" y="91.10000000000001"/>
      <point x="108.19999999999999" y="-10.0"/>
      <point x="255.59999999999997" y="-10.0" type="curve" smooth="yes"/>
      <point x="331.8" y="-10.0"/>
      <point x="398.8" y="8.0"/>
      <point x="470.3" y="47.800000000000004" type="curve"/>
    </contour>
    <contour>
      <point x="468.8" y="208.3" type="line"/>
      <point x="430.0" y="195.4"/>
      <point x="394.19999999999993" y="188.5"/>
      <point x="365.99999999999994" y="188.5" type="curve" smooth="yes"/>
      <point x="316.59999999999997" y="188.5"/>
      <point x="292.2" y="215.0"/>
      <point x="292.2" y="287.7" type="curve" smooth="yes"/>
      <point x="292.2" y="360.40000000000003"/>
      <point x="323.6" y="388.6"/>
      <point x="383.9" y="388.6" type="curve" smooth="yes"/>
      <point x="413.09999999999997" y="388.6"/>
      <point x="442.4" y="384.8"/>
      <point x="468.8" y="376.3" type="curve"/>
    </contour>
  </outline>
</glyph>
<glyph name="e" format="2">
  <advance width="725.8999999999999"/>
  <unicode hex="0065"/>
  <anchor x="631.3" y="12.399999999999999" name="ogonek"/>
  <anchor x="363.9" y="0.0" name="bottom"/>
  <anchor x="373.79999999999995" y="550.0" name="top"/>
  <outline>
    <contour>
      <point x="388.3" y="-10.0" type="curve" smooth="yes"/>
      <point x="505.79999999999995" y="-10.0"/>
      <point x="593.7" y="-0.09999999999999787"/>
      <point x="693.7" y="26.600000000000005" type="curve"/>
      <point x="666.2" y="189.4" type="line"/>
      <point x="568.6" y="171.70000000000002"/>
      <point x="487.29999999999995" y="163.79999999999998"/>
      <point x="425.4" y="163.79999999999998" type="curve" smooth="yes"/>
      <point x="326.7" y="163.79999999999998"/>
      <point x="295.0" y="180.1"/>
      <point x="293.6" y="200.70000000000002" type="curve" smooth="yes"/>
      <point x="293.6" y="202.3"/>
      <point x="293.59999999999997" y="202.9"/>
      <point x="293.6" y="204.5" type="curve"/>
      <point x="462.7" y="208.9"/>
      <point x="595.4" y="219.10000000000002"/>
      <point x="691.2" y="224.7" type="curve"/>
      <point x="692.8999999999999" y="244.3"/>
      <point x="693.2" y="273.5"/>
      <point x="693.2" y="289.9" type="curve" smooth="yes"/>
      <point x="693.2" y="478.7"/>
      <point x="593.3" y="560.0"/>
      <point x="379.5" y="560.0" type="curve" smooth="yes"/>
      <point x="185.99999999999997" y="560.0"/>
      <point x="23.3" y="480.2"/>
      <point x="23.3" y="267.7" type="curve" smooth="yes"/>
      <point x="23.3" y="57.4"/>
      <point x="166.70000000000002" y="-10.0"/>
    </contour>
    <contour>
      <point x="294.3" y="333.4" type="curve"/>
      <point x="305.5" y="382.8"/>
      <point x="327.0" y="398.90000000000003"/>
      <point x="366.3" y="398.90000000000003" type="curve" smooth="yes"/>
      <point x="410.20000000000005" y="398.90000000000003"/>
      <point x="427.4000000000001" y="382.4"/>
      <point x="433.00000000000006" y="337.5" type="curve"/>
      <point x="389.09999999999997" y="335.8"/>
      <point x="337.0" y="334.8"/>
    </contour>
  </outline>
</glyph>
<glyph name="f" format="2">
  <advance width="543.0"/>
  <unicode hex="0066"/>
  <outline>
    <contour>
      <point x="97.0" y="0.0" type="line"/>
      <point x="355.5" y="0.0" type="line"/>
      <point x="355.5" y="327.20000000000005" type="line"/>
      <point x="509.70000000000005" y="327.20000000000005" type="line"/>
      <point x="509.70000000000005" y="497.5" type="line"/>
      <point x="355.8" y="497.5" type="line"/>
      <point x="355.8" y="508.4" type="line" smooth="yes"/>
      <point x="355.8" y="547.6"/>
      <point x="385.4" y="563.8"/>
      <point x="434.4" y="563.8" type="curve" smooth="yes"/>
      <point x="467.2" y="563.8"/>
      <point x="514.6999999999999" y="557.5999999999999"/>
      <point x="544.6" y="549.5" type="curve"/>
      <point x="575.0999999999999" y="718.1999999999999" type="line"/>
      <point x="515.5" y="739.1999999999999"/>
      <point x="445.4" y="750.0"/>
      <point x="376.40000000000003" y="750.0" type="curve" smooth="yes"/>
      <point x="196.59999999999997" y="750.0"/>
      <point x="97.0" y="663.4000000000001"/>
      <point x="97.0" y="513.1999999999999" type="curve" smooth="yes"/>
      <point x="97.0" y="497.5" type="line"/>
      <point x="11.299999999999997" y="481.40000000000003" type="line"/>
      <point x="11.299999999999997" y="327.20000000000005" type="line"/>
      <point x="97.0" y="327.20000000000005" type="line"/>
    </contour>
  </outline>
</glyph>
<glyph name="g" format="2">
  <advance width="750.1"/>
  <unicode hex="0067"/>
  <anchor x="348.69999999999993" y="550.0" name="top"/>
  <anchor x="342.7" y="-217.0" name="bottom"/>
  <outline>
    <contour>
      <point x="308.4" y="-220.0" type="curve" smooth="yes"/>
      <point x="593.4999999999999" y="-220.0"/>
      <point x="726.8" y="-147.9"/>
      <point x="726.8" y="-4.0" type="curve" smooth="yes"/>
      <point x="726.8" y="91.9"/>
      <point x="646.0" y="154.9"/>
      <point x="512.8" y="154.9" type="curve" smooth="yes"/>
      <point x="276.9" y="154.9" type="line" smooth="yes"/>
      <point x="252.1" y="154.9"/>
      <point x="240.10000000000002" y="161.5"/>
      <point x="240.10000000000002" y="177.5" type="curve" smooth="yes"/>
      <point x="240.10000000000002" y="192.8"/>
      <point x="246.5" y="202.9"/>
      <point x="265.59999999999997" y="215.3" type="curve"/>
      <point x="143.9" y="243.0" type="line"/>
      <point x="76.0" y="216.5"/>
      <point x="30.599999999999994" y="174.2"/>
      <point x="30.599999999999994" y="109.10000000000001" type="curve" smooth="yes"/>
      <point x="30.599999999999994" y="5.500000000000007"/>
      <point x="141.2" y="-22.7"/>
      <point x="301.29999999999995" y="-22.7" type="curve" smooth="yes"/>
      <point x="411.1" y="-22.7" type="line" smooth="yes"/>
      <point x="476.29999999999995" y="-22.7"/>
      <point x="477.79999999999995" y="-23.9"/>
      <point x="477.79999999999995" y="-38.7" type="curve" smooth="yes"/>
      <point x="477.79999999999995" y="-58.3"/>
      <point x="430.4" y="-67.69999999999999"/>
      <point x="331.19999999999993" y="-67.69999999999999" type="curve" smooth="yes"/>
      <point x="230.59999999999997" y="-67.69999999999999"/>
      <point x="210.09999999999997" y="-62.4"/>
      <point x="210.09999999999997" y="-35.7" type="curve" smooth="yes"/>
      <point x="210.09999999999997" y="-23.400000000000002"/>
      <point x="216.2" y="-18.400000000000002"/>
      <point x="226.3" y="-8.5" type="curve"/>
      <point x="114.3" y="30.9" type="line"/>
      <point x="37.0" y="3.0"/>
      <point x="6.6" y="-38.3"/>
      <point x="6.6" y="-90.69999999999999" type="curve" smooth="yes"/>
      <point x="6.6" y="-177.5"/>
      <point x="108.3" y="-220.0"/>
    </contour>
    <contour>
      <point x="348.99999999999994" y="181.7" type="curve" smooth="yes"/>
      <point x="555.9" y="181.7"/>
      <point x="659.6" y="244.79999999999998"/>
      <point x="659.6" y="371.2" type="curve" smooth="yes"/>
      <point x="659.6" y="497.59999999999997"/>
      <point x="555.9" y="560.7"/>
      <point x="348.99999999999994" y="560.7" type="curve" smooth="yes"/>
      <point x="142.10000000000002" y="560.7"/>
      <point x="38.4" y="497.59999999999997"/>
      <point x="38.4" y="371.2" type="curve" smooth="yes"/>
      <point x="38.4" y="244.79999999999998"/>
      <point x="142.10000000000002" y="181.7"/>
    </contour>
    <contour>
      <point x="348.99999999999994" y="324.5" type="curve" smooth="yes"/>
      <point x="303.0" y="324.5"/>
      <point x="282.9" y="334.40000000000003"/>
      <point x="282.9" y="371.2" type="curve" smooth="yes"/>
      <point x="282.9" y="408.0"/>
      <point x="303.0" y="417.9"/>
      <point x="348.99999999999994" y="417.9" type="curve" smooth="yes"/>
      <point x="395.0" y="417.9"/>
      <point x="415.1" y="408.0"/>
      <point x="415.1" y="371.2" type="curve" smooth="yes"/>
      <point x="415.1" y="334.40000000000003"/>
      <point x="395.0" y="324.5"/>
    </contour>
    <contour>
      <point x="634.0" y="398.59999999999997" type="line"/>
      <point x="644.5" y="410.4"/>
      <point x="656.9000000000001" y="415.5"/>
      <point x="672.6999999999999" y="415.5" type="curve" smooth="yes"/>
      <point x="688.5999999999999" y="415.5"/>
      <point x="708.1999999999999" y="413.5"/>
      <point x="723.2" y="410.1" type="curve"/>
      <point x="747.7" y="582.4" type="line"/>
      <point x="730.3" y="587.1999999999999"/>
      <point x="709.0" y="589.7"/>
      <point x="683.0999999999999" y="589.7" type="curve" smooth="yes"/>
      <point x="602.9999999999999" y="589.7"/>
      <point x="553.3" y="558.1"/>
      <point x="537.0" y="496.3" type="curve"/>
    </contour>
  </outline>
</glyph>
<glyph name="h" format="2">
  <advance width="749.2"/>
  <unicode hex="0068"/>
  <anchor x="367.6" y="395.0" name="center"/>
  <anchor x="374.6" y="0.0" name="bottom"/>
  <anchor x="375.7" y="740.0" name="top"/>
  <outline>
    <contour>
      <point x="43.5" y="0.0" type="line"/>
      <point x="306.0" y="0.0" type="line"/>
      <point x="306.0" y="342.9" type="line"/>
      <point x="336.5" y="353.5"/>
      <point x="362.19999999999993" y="360.40000000000003"/>
      <point x="384.59999999999997" y="360.40000000000003" type="curve" smooth="yes"/>
      <point x="419.4" y="360.40000000000003"/>
      <point x="443.5" y="341.59999999999997"/>
      <point x="443.5" y="282.09999999999997" type="curve" smooth="yes"/>
      <point x="443.5" y="0.0" type="line"/>
      <point x="706.3" y="0.0" type="line"/>
      <point x="706.3" y="372.7" type="line" smooth="yes"/>
      <point x="706.3" y="479.29999999999995"/>
      <point x="639.0999999999999" y="560.0"/>
      <point x="495.00000000000006" y="560.0" type="curve" smooth="yes"/>
      <point x="428.6" y="560.0"/>
      <point x="375.19999999999993" y="542.8"/>
      <point x="306.0" y="504.9" type="curve"/>
      <point x="306.0" y="740.0" type="line"/>
      <point x="43.5" y="740.0" type="line"/>
    </contour>
  </outline>
</glyph>
<glyph name="i" format="2">
  <advance width="349.5"/>
  <unicode hex="0069"/>
  <anchor x="306.0" y="0.0" name="ogonek"/>
  <anchor x="174.9" y="0.0" name="bottom"/>
  <outline>
    <contour>
      <point x="174.9" y="569.7" type="curve" smooth="yes"/>
      <point x="285.1" y="569.7"/>
      <point x="330.3" y="607.4"/>
      <point x="330.3" y="679.7" type="curve" smooth="yes"/>
      <point x="330.3" y="752.6"/>
      <point x="284.5" y="790.0"/>
      <point x="174.9" y="790.0" type="curve" smooth="yes"/>
      <point x="65.0" y="790.0"/>
      <point x="19.200000000000003" y="752.6"/>
      <point x="19.200000000000003" y="679.7" type="curve" smooth="yes"/>
      <point x="19.200000000000003" y="607.1"/>
      <point x="65.0" y="569.7"/>
    </contour>
    <contour>
      <point x="43.5" y="0.0" type="line"/>
      <point x="306.0" y="0.0" type="line"/>
      <point x="306.0" y="550.0" type="line"/>
      <point x="43.5" y="550.0" type="line"/>
    </contour>
  </outline>
</glyph>
<glyph name="j" format="2">
  <advance width="369.1"/>
  <unicode hex="006A"/>
  <outline>
    <contour>
      <point x="325.6" y="550.0" type="line"/>
      <point x="63.099999999999994" y="550.0" type="line"/>
      <point x="63.099999999999994" y="65.8" type="line" smooth="yes"/>
      <point x="63.099999999999994" y="2.8000000000000007"/>
      <point x="40.69999999999999" y="-16.2"/>
      <point x="-13.5" y="-16.2" type="curve" smooth="yes"/>
      <point x="-20.6" y="-16.200000000000003"/>
      <point x="-27.1" y="-15.3"/>
      <point x="-35.1" y="-13.8" type="curve"/>
      <point x="-50.2" y="-211.1" type="line"/>
      <point x="-18.4" y="-216.1"/>
      <point x="31.099999999999998" y="-220.0"/>
      <point x="60.4" y="-220.0" type="curve" smooth="yes"/>
      <point x="248.4" y="-220.0"/>
      <point x="325.6" y="-123.6"/>
      <point x="325.6" y="56.099999999999994" type="curve" smooth="yes"/>
    </contour>
    <contour>
      <point x="194.5" y="569.7" type="curve" smooth="yes"/>
      <point x="304.7" y="569.7"/>
      <point x="349.9" y="607.4"/>
      <point x="349.9" y="679.7" type="curve" smooth="yes"/>
      <point x="349.9" y="752.6"/>
      <point x="304.1" y="790.0"/>
      <point x="194.5" y="790.0" type="curve" smooth="yes"/>
      <point x="84.6" y="790.0"/>
      <point x="38.8" y="752.6"/>
      <point x="38.8" y="679.7" type="curve" smooth="yes"/>
      <point x="38.8" y="607.1"/>
      <point x="84.6" y="569.7"/>
    </contour>
  </outline>
</glyph>
<glyph name="k" format="2">
  <advance width="751.5"/>
  <unicode hex="006B"/>
  <anchor x="166.0" y="740.0" name="top"/>
  <anchor x="381.5" y="0.0" name="bottom"/>
  <outline>
    <contour>
      <point x="671.5" y="-11.0" type="curve" smooth="yes"/>
      <point x="693.5" y="-11.0"/>
      <point x="706.5" y="-10.0"/>
      <point x="720.5" y="-8.0" type="curve"/>
      <point x="720.0" y="210.0" type="line"/>
      <point x="712.5" y="209.5"/>
      <point x="706.5" y="209.5"/>
      <point x="699.5" y="209.5" type="curve" smooth="yes"/>
      <point x="653.0" y="209.5"/>
      <point x="600.5" y="232.0"/>
      <point x="482.5" y="308.5" type="curve" smooth="yes"/>
      <point x="279.5" y="440.0" type="line"/>
      <point x="279.5" y="740.0" type="line"/>
      <point x="52.5" y="740.0" type="line"/>
      <point x="52.5" y="0.0" type="line"/>
      <point x="279.5" y="0.0" type="line"/>
      <point x="279.5" y="177.0" type="line"/>
      <point x="442.5" y="75.0" type="line" smooth="yes"/>
      <point x="555.5" y="4.500000000000001"/>
      <point x="611.5" y="-11.0"/>
    </contour>
    <contour>
      <point x="441.5" y="243.0" type="line"/>
      <point x="544.0" y="318.0"/>
      <point x="679.0" y="439.0"/>
      <point x="719.5" y="548.5" type="curve"/>
      <point x="475.0" y="559.5" type="line"/>
      <point x="447.5" y="483.5"/>
      <point x="379.0" y="416.0"/>
      <point x="243.5" y="312.0" type="curve"/>
    </contour>
  </outline>
</glyph>
<glyph name="l" format="2">
  <advance width="442.1"/>
  <unicode hex="006C"/>
  <anchor x="220.5" y="395.0" name="center"/>
  <anchor x="174.9" y="740.0" name="top"/>
  <anchor x="343.0" y="740.0" name="topright"/>
  <anchor x="237.8" y="0.0" name="bottom"/>
  <outline>
    <contour>
      <point x="306.0" y="740.0" type="line"/>
      <point x="43.5" y="740.0" type="line"/>
      <point x="43.5" y="223.9" type="line" smooth="yes"/>
      <point x="43.5" y="52.0"/>
      <point x="119.1" y="-10.0"/>
      <point x="274.29999999999995" y="-10.0" type="curve" smooth="yes"/>
      <point x="342.90000000000003" y="-10.0"/>
      <point x="397.7" y="4.0"/>
      <point x="445.19999999999993" y="22.3" type="curve"/>
      <point x="418.4" y="204.7" type="line"/>
      <point x="391.0" y="198.1"/>
      <point x="371.0" y="194.3"/>
      <point x="355.09999999999997" y="194.3" type="curve" smooth="yes"/>
      <point x="323.1" y="194.3"/>
      <point x="306.0" y="202.7"/>
      <point x="306.0" y="241.8" type="curve" smooth="yes"/>
    </contour>
  </outline>
</glyph>
<glyph name="m" format="2">
  <advance width="1100.8"/>
  <unicode hex="006D"/>
  <outline>
    <contour>
      <point x="43.5" y="0.0" type="line"/>
      <point x="306.3" y="0.0" type="line"/>
      <point x="306.3" y="342.90000000000003" type="line"/>
      <point x="327.40000000000003" y="351.8"/>
      <point x="347.09999999999997" y="356.90000000000003"/>
      <point x="363.9" y="356.90000000000003" type="curve" smooth="yes"/>
      <point x="399.4" y="356.90000000000003"/>
      <point x="419.3" y="333.20000000000005"/>
      <point x="419.3" y="282.09999999999997" type="curve" smooth="yes"/>
      <point x="419.3" y="0.0" type="line"/>
      <point x="682.1" y="0.0" type="line"/>
      <point x="682.1" y="308.29999999999995" type="line" smooth="yes"/>
      <point x="682.1" y="319.5"/>
      <point x="682.1" y="331.70000000000005"/>
      <point x="681.4" y="342.9" type="curve"/>
      <point x="708.8" y="353.2"/>
      <point x="727.1" y="357.6"/>
      <point x="742.5" y="357.6" type="curve" smooth="yes"/>
      <point x="777.3" y="357.6"/>
      <point x="795.1" y="334.59999999999997"/>
      <point x="795.1" y="282.09999999999997" type="curve" smooth="yes"/>
      <point x="795.1" y="0.0" type="line"/>
      <point x="1057.9" y="0.0" type="line"/>
      <point x="1057.9" y="374.2" type="line" smooth="yes"/>
      <point x="1057.9" y="487.09999999999997"/>
      <point x="984.4000000000001" y="560.0"/>
      <point x="869.0" y="560.0" type="curve" smooth="yes"/>
      <point x="798.7" y="560.0"/>
      <point x="743.9" y="544.0"/>
      <point x="639.3" y="486.4" type="curve"/>
      <point x="609.0" y="538.1"/>
      <point x="563.9" y="560.0"/>
      <point x="482.7" y="560.0" type="curve" smooth="yes"/>
      <point x="422.2" y="560.0"/>
      <point x="358.3" y="541.2"/>
      <point x="279.5" y="494.40000000000003" type="curve"/>
      <point x="279.5" y="550.0" type="line"/>
      <point x="43.5" y="550.0" type="line"/>
    </contour>
  </outline>
</glyph>
<glyph name="n" format="2">
  <advance width="749.5"/>
  <unicode hex="006E"/>
  <anchor x="367.9" y="550.0" name="top"/>
  <anchor x="367.9" y="0.0" name="bottom"/>
  <outline>
    <contour>
      <point x="43.5" y="0.0" type="line"/>
      <point x="306.3" y="0.0" type="line"/>
      <point x="306.3" y="342.9" type="line"/>
      <point x="336.5" y="353.2"/>
      <point x="362.49999999999994" y="360.40000000000003"/>
      <point x="384.9" y="360.40000000000003" type="curve" smooth="yes"/>
      <point x="419.69999999999993" y="360.40000000000003"/>
      <point x="443.79999999999995" y="341.59999999999997"/>
      <point x="443.79999999999995" y="282.09999999999997" type="curve" smooth="yes"/>
      <point x="443.79999999999995" y="0.0" type="line"/>
      <point x="706.6" y="0.0" type="line"/>
      <point x="706.6" y="374.2" type="line" smooth="yes"/>
      <point x="706.6" y="476.59999999999997"/>
      <point x="641.4999999999999" y="560.0"/>
      <point x="495.30000000000007" y="560.0" type="curve" smooth="yes"/>
      <point x="420.8" y="560.0"/>
      <point x="363.90000000000003" y="540.5"/>
      <point x="279.5" y="494.4" type="curve"/>
      <point x="279.5" y="550.0" type="line"/>
      <point x="43.5" y="550.0" type="line"/>
    </contour>
  </outline>
</glyph>
<glyph name="o" format="2">
  <advance width="749.8"/>
  <unicode hex="006F"/>
  <anchor x="502.1" y="3.7" name="ogonek"/>
  <anchor x="374.9" y="550.0" name="top"/>
  <anchor x="597.8000000000001" y="540.0" name="topright"/>
  <anchor x="375.6" y="0.0" name="bottom"/>
  <outline>
    <contour>
      <point x="23.3" y="276.7" type="curve" smooth="yes"/>
      <point x="23.3" y="97.30000000000001"/>
      <point x="121.80000000000001" y="-10.0"/>
      <point x="375.6" y="-10.0" type="curve" smooth="yes"/>
      <point x="627.9999999999999" y="-10.0"/>
      <point x="726.5" y="97.30000000000001"/>
      <point x="726.5" y="276.7" type="curve" smooth="yes"/>
      <point x="726.5" y="447.0"/>
      <point x="640.6" y="560.0"/>
      <point x="375.6" y="560.0" type="curve" smooth="yes"/>
      <point x="109.19999999999999" y="560.0"/>
      <point x="23.3" y="447.0"/>
    </contour>
    <contour>
      <point x="292.0" y="276.0" type="curve" smooth="yes"/>
      <point x="292.0" y="354.2"/>
      <point x="312.2" y="391.3"/>
      <point x="374.9" y="391.3" type="curve" smooth="yes"/>
      <point x="438.0" y="391.3"/>
      <point x="457.79999999999995" y="354.2"/>
      <point x="457.79999999999995" y="276.0" type="curve" smooth="yes"/>
      <point x="457.79999999999995" y="194.29999999999998"/>
      <point x="433.79999999999995" y="159.0"/>
      <point x="374.9" y="159.0" type="curve" smooth="yes"/>
      <point x="315.7" y="159.0"/>
      <point x="292.0" y="194.29999999999998"/>
    </contour>
  </outline>
</glyph>
<glyph name="p" format="2">
  <advance width="775.1"/>
  <unicode hex="0070"/>
  <outline>
    <contour>
      <point x="43.5" y="-210.0" type="line"/>
      <point x="307.0" y="-210.0" type="line"/>
      <point x="307.0" y="-6.4" type="line"/>
      <point x="336.5" y="-8.7"/>
      <point x="367.9" y="-10.0"/>
      <point x="397.19999999999993" y="-10.0" type="curve" smooth="yes"/>
      <point x="642.1999999999999" y="-10.0"/>
      <point x="751.8" y="82.69999999999999"/>
      <point x="751.8" y="281.1" type="curve" smooth="yes"/>
      <point x="751.8" y="459.9"/>
      <point x="667.6" y="560.0"/>
      <point x="519.5" y="560.0" type="curve" smooth="yes"/>
      <point x="442.0" y="560.0"/>
      <point x="366.2" y="538.6999999999999"/>
      <point x="283.1" y="492.4" type="curve"/>
      <point x="279.5" y="550.0" type="line"/>
      <point x="43.5" y="550.0" type="line"/>
    </contour>
    <contour>
      <point x="391.19999999999993" y="161.7" type="curve" smooth="yes"/>
      <point x="362.70000000000005" y="161.7"/>
      <point x="332.4" y="165.8"/>
      <point x="306.3" y="174.0" type="curve"/>
      <point x="306.3" y="342.0" type="line"/>
      <point x="345.4" y="355.2"/>
      <point x="380.9" y="361.8"/>
      <point x="409.09999999999997" y="361.8" type="curve" smooth="yes"/>
      <point x="458.4999999999999" y="361.8"/>
      <point x="482.9" y="336.2"/>
      <point x="482.9" y="262.6" type="curve" smooth="yes"/>
      <point x="482.9" y="190.20000000000002"/>
      <point x="451.50000000000006" y="161.7"/>
    </contour>
  </outline>
</glyph>
<glyph name="q" format="2">
  <advance width="775.4"/>
  <unicode hex="0071"/>
  <outline>
    <contour>
      <point x="731.9" y="529.4" type="line"/>
      <point x="603.4000000000001" y="549.3000000000001"/>
      <point x="487.20000000000005" y="560.0"/>
      <point x="391.4" y="560.0" type="curve" smooth="yes"/>
      <point x="135.29999999999998" y="560.0"/>
      <point x="23.3" y="472.7"/>
      <point x="23.3" y="274.9" type="curve" smooth="yes"/>
      <point x="23.3" y="88.6"/>
      <point x="106.59999999999998" y="-10.0"/>
      <point x="258.0" y="-10.0" type="curve" smooth="yes"/>
      <point x="332.09999999999997" y="-10.0"/>
      <point x="398.8" y="7.999999999999998"/>
      <point x="469.4" y="46.89999999999999" type="curve"/>
      <point x="469.4" y="-210.0" type="line"/>
      <point x="731.9" y="-210.0" type="line"/>
    </contour>
    <contour>
      <point x="469.1" y="377.5" type="curve"/>
      <point x="469.1" y="209.5" type="line"/>
      <point x="430.0" y="196.0"/>
      <point x="394.49999999999994" y="188.8"/>
      <point x="366.0" y="188.8" type="curve" smooth="yes"/>
      <point x="316.9" y="188.8"/>
      <point x="292.5" y="213.79999999999998"/>
      <point x="292.5" y="282.0" type="curve" smooth="yes"/>
      <point x="292.5" y="359.8"/>
      <point x="323.90000000000003" y="388.90000000000003"/>
      <point x="384.5" y="388.90000000000003" type="curve" smooth="yes"/>
      <point x="413.09999999999997" y="388.90000000000003"/>
      <point x="442.9999999999999" y="385.09999999999997"/>
    </contour>
  </outline>
</glyph>
<glyph name="r" format="2">
  <advance width="551.9"/>
  <unicode hex="0072"/>
  <anchor x="281.0" y="550.0" name="top"/>
  <anchor x="174.6" y="0.0" name="bottom"/>
  <outline>
    <contour>
      <point x="279.2" y="550.0" type="line"/>
      <point x="43.5" y="550.0" type="line"/>
      <point x="43.5" y="0.0" type="line"/>
      <point x="305.7" y="0.0" type="line"/>
      <point x="305.7" y="321.40000000000003" type="line"/>
      <point x="350.4" y="339.5"/>
      <point x="385.20000000000005" y="344.3"/>
      <point x="417.0" y="344.3" type="curve" smooth="yes"/>
      <point x="445.4" y="344.3"/>
      <point x="474.0" y="340.09999999999997"/>
      <point x="508.00000000000006" y="332.59999999999997" type="curve"/>
      <point x="545.3" y="548.1999999999999" type="line"/>
      <point x="513.6999999999999" y="556.2"/>
      <point x="485.59999999999997" y="560.0"/>
      <point x="461.19999999999993" y="560.0" type="curve" smooth="yes"/>
      <point x="391.4" y="560.0"/>
      <point x="353.0" y="538.0"/>
      <point x="279.2" y="477.0" type="curve"/>
    </contour>
  </outline>
</glyph>
<glyph name="s" format="2">
  <advance width="611.0"/>
  <unicode hex="0073"/>
  <anchor x="301.5" y="550.0" name="top"/>
  <anchor x="302.5" y="0.0" name="bottom"/>
  <outline>
    <contour>
      <point x="21.999999999999996" y="19.500000000000004" type="line"/>
      <point x="111.5" y="-3.499999999999999"/>
      <point x="194.49999999999997" y="-10.0"/>
      <point x="281.0" y="-10.0" type="curve" smooth="yes"/>
      <point x="426.0" y="-10.0"/>
      <point x="595.5" y="19.000000000000007"/>
      <point x="595.5" y="187.0" type="curve" smooth="yes"/>
      <point x="595.5" y="304.0"/>
      <point x="512.5" y="347.5"/>
      <point x="393.0" y="359.5" type="curve" smooth="yes"/>
      <point x="304.5" y="368.0"/>
      <point x="276.5" y="364.0"/>
      <point x="276.5" y="379.5" type="curve" smooth="yes"/>
      <point x="276.5" y="391.0"/>
      <point x="294.0" y="395.0"/>
      <point x="321.5" y="395.0" type="curve" smooth="yes"/>
      <point x="422.0" y="395.0"/>
      <point x="473.5" y="382.5"/>
      <point x="532.5" y="366.5" type="curve"/>
      <point x="560.0" y="529.0" type="line"/>
      <point x="491.0" y="548.0"/>
      <point x="418.5" y="560.0"/>
      <point x="324.5" y="560.0" type="curve" smooth="yes"/>
      <point x="126.0" y="560.0"/>
      <point x="31.000000000000004" y="499.5"/>
      <point x="31.000000000000004" y="353.5" type="curve" smooth="yes"/>
      <point x="31.000000000000004" y="259.5"/>
      <point x="77.50000000000001" y="213.0"/>
      <point x="175.00000000000003" y="194.5" type="curve" smooth="yes"/>
      <point x="261.5" y="178.5"/>
      <point x="344.5" y="186.5"/>
      <point x="344.5" y="164.5" type="curve" smooth="yes"/>
      <point x="344.5" y="155.5"/>
      <point x="327.0" y="149.0"/>
      <point x="296.0" y="149.0" type="curve" smooth="yes"/>
      <point x="231.0" y="149.0"/>
      <point x="116.0" y="163.5"/>
      <point x="47.5" y="182.5" type="curve"/>
    </contour>
  </outline>
</glyph>
<glyph name="t" format="2">
  <advance width="541.1"/>
  <unicode hex="0074"/>
  <anchor x="260.40000000000003" y="275.0" name="center"/>
  <anchor x="238.70000000000002" y="661.7" name="top"/>
  <anchor x="393.7" y="782.5" name="topright"/>
  <anchor x="295.4" y="0.0" name="bottom"/>
  <outline>
    <contour>
      <point x="312.0" y="-10.0" type="curve" smooth="yes"/>
      <point x="386.40000000000003" y="-10.0"/>
      <point x="450.59999999999997" y="-6.661338147750939e-16"/>
      <point x="526.1999999999999" y="19.9" type="curve"/>
      <point x="494.6" y="207.5" type="line"/>
      <point x="451.6" y="199.9"/>
      <point x="426.2" y="194.7"/>
      <point x="403.8" y="194.7" type="curve" smooth="yes"/>
      <point x="370.5" y="194.7"/>
      <point x="356.0" y="206.6"/>
      <point x="356.0" y="245.1" type="curve" smooth="yes"/>
      <point x="356.0" y="379.7" type="line"/>
      <point x="498.9" y="379.7" type="line"/>
      <point x="498.9" y="550.0" type="line"/>
      <point x="356.0" y="550.0" type="line"/>
      <point x="356.0" y="661.7" type="line"/>
      <point x="121.4" y="661.7" type="line"/>
      <point x="93.5" y="550.0" type="line"/>
      <point x="4.3" y="534.2" type="line"/>
      <point x="4.3" y="380.0" type="line"/>
      <point x="93.5" y="380.0" type="line"/>
      <point x="93.5" y="228.70000000000002" type="line" smooth="yes"/>
      <point x="93.5" y="49.800000000000004"/>
      <point x="175.6" y="-10.0"/>
    </contour>
  </outline>
</glyph>
<glyph name="u" format="2">
  <advance width="771.1"/>
  <unicode hex="0075"/>
  <anchor x="770.5" y="30.4" name="ogonek"/>
  <anchor x="383.4" y="550.0" name="top"/>
  <anchor x="705.6999999999999" y="550.0" name="topright"/>
  <anchor x="386.4" y="0.0" name="bottom"/>
  <outline>
    <contour>
      <point x="256.9" y="-10.0" type="curve" smooth="yes"/>
      <point x="338.8" y="-10.0"/>
      <point x="403.5" y="11.600000000000001"/>
      <point x="476.19999999999993" y="51.9" type="curve"/>
      <point x="506.29999999999995" y="11.8"/>
      <point x="542.7" y="-10.0"/>
      <point x="614.8" y="-10.0" type="curve" smooth="yes"/>
      <point x="674.1" y="-10.0"/>
      <point x="738.0999999999999" y="8.3"/>
      <point x="770.5" y="30.4" type="curve"/>
      <point x="750.3999999999999" y="190.70000000000002" type="line"/>
      <point x="743.2" y="187.60000000000002"/>
      <point x="736.4999999999999" y="186.6"/>
      <point x="729.0" y="186.6" type="curve" smooth="yes"/>
      <point x="715.6999999999999" y="186.6"/>
      <point x="705.6999999999999" y="194.8"/>
      <point x="705.6999999999999" y="215.8" type="curve" smooth="yes"/>
      <point x="705.6999999999999" y="550.0" type="line"/>
      <point x="443.19999999999993" y="550.0" type="line"/>
      <point x="443.19999999999993" y="202.9" type="line"/>
      <point x="409.49999999999994" y="190.2"/>
      <point x="390.9" y="186.8"/>
      <point x="366.70000000000005" y="186.8" type="curve" smooth="yes"/>
      <point x="330.5" y="186.8"/>
      <point x="305.7" y="205.60000000000002"/>
      <point x="305.7" y="258.1" type="curve" smooth="yes"/>
      <point x="305.7" y="550.0" type="line"/>
      <point x="42.900000000000006" y="550.0" type="line"/>
      <point x="42.900000000000006" y="183.3" type="line" smooth="yes"/>
      <point x="42.900000000000006" y="58.099999999999994"/>
      <point x="128.20000000000002" y="-10.0"/>
    </contour>
  </outline>
</glyph>
<glyph name="v" format="2">
  <advance width="758.5"/>
  <unicode hex="0076"/>
  <outline>
    <contour>
      <point x="238.49999999999997" y="0.0" type="line"/>
      <point x="518.4999999999999" y="0.0" type="line"/>
      <point x="752.9999999999999" y="550.0" type="line"/>
      <point x="465.0" y="550.0" type="line"/>
      <point x="388.99999999999994" y="200.0" type="line"/>
      <point x="294.5" y="550.0" type="line"/>
      <point x="4.999999999999999" y="550.0" type="line"/>
    </contour>
  </outline>
</glyph>
<glyph name="w" format="2">
  <advance width="1017.4"/>
  <unicode hex="0077"/>
  <anchor x="508.8" y="550.0" name="top"/>
  <anchor x="508.8" y="0.0" name="bottom"/>
  <outline>
    <contour>
      <point x="147.79999999999998" y="0.0" type="line"/>
      <point x="445.1" y="0.0" type="line"/>
      <point x="501.7" y="288.7" type="line"/>
      <point x="570.6" y="0.0" type="line"/>
      <point x="856.4" y="0.0" type="line"/>
      <point x="1008.6" y="549.9" type="line"/>
      <point x="753.3" y="550.2" type="line"/>
      <point x="715.4" y="214.5" type="line"/>
      <point x="647.2" y="550.0" type="line"/>
      <point x="369.69999999999993" y="550.0" type="line"/>
      <point x="303.0" y="215.6" type="line"/>
      <point x="271.4" y="550.2" type="line"/>
      <point x="8.3" y="549.9" type="line"/>
    </contour>
  </outline>
</glyph>
<glyph name="x" format="2">
  <advance width="776.6"/>
  <unicode hex="0078"/>
  <outline>
    <contour>
      <point x="-0.3999999999999986" y="0.20000000000000107" type="line"/>
      <point x="332.9" y="0.10000000000000009" type="line"/>
      <point x="397.5" y="152.4" type="line"/>
      <point x="463.9" y="0.10000000000000009" type="line"/>
      <point x="777.8" y="0.20000000000000107" type="line"/>
      <point x="563.3" y="283.8" type="line"/>
      <point x="767.2" y="550.2" type="line"/>
      <point x="463.3" y="550.3" type="line"/>
      <point x="395.3" y="403.4" type="line"/>
      <point x="333.3" y="550.0" type="line"/>
      <point x="18.5" y="550.0" type="line"/>
      <point x="220.9" y="282.4" type="line"/>
    </contour>
  </outline>
</glyph>
<glyph name="y" format="2">
  <advance width="764.9999999999999"/>
  <unicode hex="0079"/>
  <anchor x="373.0" y="550.0" name="top"/>
  <anchor x="634.4999999999999" y="0.0" name="bottom"/>
  <outline>
    <contour>
      <point x="177.5" y="-210.0" type="line"/>
      <point x="457.5" y="-210.0" type="line"/>
      <point x="760.0000000000001" y="550.0" type="line"/>
      <point x="484.4999999999999" y="550.0" type="line"/>
      <point x="389.5" y="193.5" type="line"/>
      <point x="298.0" y="550.0" type="line"/>
      <point x="4.999999999999999" y="550.0" type="line"/>
      <point x="238.00000000000003" y="0.0" type="line"/>
      <point x="259.5" y="0.0" type="line"/>
    </contour>
  </outline>
</glyph>
<glyph name="z" format="2">
  <advance width="699.2"/>
  <unicode hex="007A"/>
  <anchor x="350.5" y="550.0" name="top"/>
  <outline>
    <contour>
      <point x="31.599999999999998" y="0.0" type="line"/>
      <point x="665.9" y="0.0" type="line"/>
      <point x="665.9" y="179.1" type="line"/>
      <point x="379.7" y="179.1" type="line"/>
      <point x="647.5999999999999" y="394.5" type="line"/>
      <point x="647.5999999999999" y="550.0" type="line"/>
      <point x="50.8" y="550.0" type="line"/>
      <point x="50.8" y="371.5" type="line"/>
      <point x="306.5" y="371.5" type="line"/>
      <point x="31.599999999999998" y="156.4" type="line"/>
    </contour>
  </outline>
</glyph>
<glyph name="braceleft" format="2">
  <advance width="421.7"/>
  <unicode hex="007B"/>
  <outline>
    <contour>
      <point x="51.89999999999999" y="-33.3" type="curve" smooth="yes"/>
      <point x="51.89999999999999" y="-163.29999999999998"/>
      <point x="149.5" y="-210.3"/>
      <point x="259.6" y="-210.3" type="curve" smooth="yes"/>
      <point x="392.7" y="-210.3" type="line"/>
      <point x="392.7" y="-55.3" type="line"/>
      <point x="331.6" y="-55.3" type="line" smooth="yes"/>
      <point x="295.6" y="-55.3"/>
      <point x="279.3" y="-36.300000000000004"/>
      <point x="279.3" y="-3.3" type="curve" smooth="yes"/>
      <point x="279.3" y="39.7"/>
      <point x="316.0" y="83.7"/>
      <point x="316.0" y="135.7" type="curve" smooth="yes"/>
      <point x="316.0" y="183.70000000000002"/>
      <point x="302.0" y="228.1"/>
      <point x="224.5" y="265.0" type="curve"/>
      <point x="302.0" y="302.40000000000003"/>
      <point x="316.0" y="346.0"/>
      <point x="316.0" y="394.0" type="curve" smooth="yes"/>
      <point x="316.0" y="446.0"/>
      <point x="279.3" y="490.0"/>
      <point x="279.3" y="533.0" type="curve" smooth="yes"/>
      <point x="279.3" y="566.0"/>
      <point x="295.6" y="585.0"/>
      <point x="331.6" y="585.0" type="curve" smooth="yes"/>
      <point x="392.7" y="585.0" type="line"/>
      <point x="392.7" y="740.0" type="line"/>
      <point x="259.6" y="740.0" type="line" smooth="yes"/>
      <point x="149.5" y="740.0"/>
      <point x="51.89999999999999" y="693.0"/>
      <point x="51.89999999999999" y="563.0" type="curve" smooth="yes"/>
      <point x="51.89999999999999" y="476.0"/>
      <point x="94.1" y="432.0"/>
      <point x="94.1" y="390.0" type="curve" smooth="yes"/>
      <point x="94.1" y="358.0"/>
      <point x="84.19999999999999" y="343.0"/>
      <point x="48.2" y="343.0" type="curve" smooth="yes"/>
      <point x="30.800000000000004" y="343.0" type="line"/>
      <point x="30.800000000000004" y="186.7" type="line"/>
      <point x="48.2" y="186.7" type="line" smooth="yes"/>
      <point x="84.19999999999999" y="186.7"/>
      <point x="94.1" y="171.70000000000002"/>
      <point x="94.1" y="139.7" type="curve" smooth="yes"/>
      <point x="94.1" y="97.7"/>
      <point x="51.89999999999999" y="53.7"/>
    </contour>
  </outline>
</glyph>
<glyph name="bar" format="2">
  <advance width="303.0"/>
  <unicode hex="007C"/>
  <outline>
    <contour>
      <point x="254.5" y="790.3" type="line"/>
      <point x="48.5" y="790.3" type="line"/>
      <point x="48.5" y="-210.0" type="line"/>
      <point x="254.5" y="-210.0" type="line"/>
    </contour>
  </outline>
</glyph>
<glyph name="braceright" format="2">
  <advance width="421.7"/>
  <unicode hex="007D"/>
  <outline>
    <contour>
      <point x="29.0" y="-55.3" type="line"/>
      <point x="29.0" y="-210.3" type="line"/>
      <point x="162.1" y="-210.3" type="line" smooth="yes"/>
      <point x="272.2" y="-210.3"/>
      <point x="369.8" y="-163.29999999999998"/>
      <point x="369.8" y="-33.3" type="curve" smooth="yes"/>
      <point x="369.8" y="53.7"/>
      <point x="327.6" y="97.7"/>
      <point x="327.6" y="139.7" type="curve" smooth="yes"/>
      <point x="327.6" y="171.70000000000002"/>
      <point x="337.5" y="186.7"/>
      <point x="373.5" y="186.7" type="curve" smooth="yes"/>
      <point x="390.9" y="186.7" type="line"/>
      <point x="390.9" y="343.0" type="line"/>
      <point x="373.5" y="343.0" type="line" smooth="yes"/>
      <point x="337.5" y="343.0"/>
      <point x="327.6" y="358.0"/>
      <point x="327.6" y="390.0" type="curve" smooth="yes"/>
      <point x="327.6" y="432.0"/>
      <point x="369.8" y="476.0"/>
      <point x="369.8" y="563.0" type="curve" smooth="yes"/>
      <point x="369.8" y="693.0"/>
      <point x="272.2" y="740.0"/>
      <point x="162.1" y="740.0" type="curve" smooth="yes"/>
      <point x="29.0" y="740.0" type="line"/>
      <point x="29.0" y="585.0" type="line"/>
      <point x="85.0" y="585.0" type="line" smooth="yes"/>
      <point x="121.00000000000001" y="585.0"/>
      <point x="137.3" y="566.0"/>
      <point x="137.3" y="533.0" type="curve" smooth="yes"/>
      <point x="137.3" y="490.0"/>
      <point x="100.6" y="446.0"/>
      <point x="100.6" y="394.0" type="curve" smooth="yes"/>
      <point x="100.6" y="346.0"/>
      <point x="114.6" y="302.40000000000003"/>
      <point x="192.1" y="265.0" type="curve"/>
      <point x="114.60000000000001" y="228.1"/>
      <point x="100.6" y="183.70000000000002"/>
      <point x="100.6" y="135.7" type="curve" smooth="yes"/>
      <point x="100.6" y="83.7"/>
      <point x="137.3" y="39.7"/>
      <point x="137.3" y="-3.3" type="curve" smooth="yes"/>
      <point x="137.3" y="-36.300000000000004"/>
      <point x="121.00000000000001" y="-55.3"/>
      <point x="85.0" y="-55.3" type="curve" smooth="yes"/>
    </contour>
  </outline>
</glyph>
<glyph name="asciitilde" format="2">
  <advance width="673.4"/>
  <unicode hex="007E"/>
  <outline>
    <contour>
      <point x="615.8" y="222.3" type="curve"/>
      <point x="615.8" y="413.3" type="line"/>
      <point x="585.6" y="385.8"/>
      <point x="546.3" y="374.3"/>
      <point x="496.9" y="374.3" type="curve" smooth="yes"/>
      <point x="358.8" y="374.3"/>
      <point x="285.5" y="452.3"/>
      <point x="182.8" y="452.3" type="curve" smooth="yes"/>
      <point x="105.8" y="452.3"/>
      <point x="68.9" y="420.29999999999995"/>
      <point x="58.3" y="413.29999999999995" type="curve"/>
      <point x="58.3" y="222.29999999999998" type="line"/>
      <point x="87.8" y="240.5"/>
      <point x="117.7" y="258.5"/>
      <point x="175.1" y="258.5" type="curve" smooth="yes"/>
      <point x="285.5" y="258.5"/>
      <point x="367.2" y="179.8"/>
      <point x="497.59999999999997" y="179.8" type="curve" smooth="yes"/>
      <point x="544.1999999999999" y="179.8"/>
      <point x="589.1" y="197.60000000000002"/>
    </contour>
  </outline>
</glyph>
<glyph name="exclamdown" format="2">
  <advance width="333.0"/>
  <unicode hex="00A1"/>
  <outline>
    <contour>
      <point x="279.9" y="290.3" type="line"/>
      <point x="58.599999999999994" y="290.3" type="line"/>
      <point x="39.79999999999999" y="-190.7" type="line"/>
      <point x="297.8" y="-190.7" type="line"/>
    </contour>
    <contour>
      <point x="308.5" y="445.1" type="curve" smooth="yes"/>
      <point x="308.5" y="521.0"/>
      <point x="268.6" y="560.0"/>
      <point x="166.5" y="560.0" type="curve" smooth="yes"/>
      <point x="64.4" y="560.0"/>
      <point x="24.5" y="521.0"/>
      <point x="24.5" y="445.1" type="curve" smooth="yes"/>
      <point x="24.5" y="368.2"/>
      <point x="64.4" y="329.2"/>
      <point x="166.5" y="329.2" type="curve" smooth="yes"/>
      <point x="268.6" y="329.2"/>
      <point x="308.5" y="368.2"/>
    </contour>
  </outline>
</glyph>
<glyph name="cent" format="2">
  <advance width="861.0"/>
  <unicode hex="00A2"/>
  <outline>
    <contour>
      <point x="447.0" y="-10.3" type="curve" smooth="yes"/>
      <point x="546.4" y="-10.3"/>
      <point x="648.5" y="1.0999999999999996"/>
      <point x="735.1" y="22.299999999999997" type="curve"/>
      <point x="703.7" y="200.4" type="line"/>
      <point x="625.9" y="187.1"/>
      <point x="572.1" y="182.0"/>
      <point x="511.90000000000003" y="182.0" type="curve" smooth="yes"/>
      <point x="424.20000000000005" y="182.0"/>
      <point x="374.0" y="208.5"/>
      <point x="374.0" y="272.0" type="curve" smooth="yes"/>
      <point x="374.0" y="336.40000000000003"/>
      <point x="414.5" y="364.2"/>
      <point x="492.0" y="364.2" type="curve" smooth="yes"/>
      <point x="556.9000000000001" y="364.2"/>
      <point x="623.8" y="357.4"/>
      <point x="691.0999999999999" y="344.59999999999997" type="curve"/>
      <point x="720.7" y="533.9" type="line"/>
      <point x="643.3" y="550.4000000000001"/>
      <point x="575.9999999999999" y="560.6"/>
      <point x="469.1" y="560.6" type="curve" smooth="yes"/>
      <point x="208.9" y="560.6"/>
      <point x="115.19999999999997" y="421.9"/>
      <point x="115.19999999999997" y="266.0" type="curve" smooth="yes"/>
      <point x="115.19999999999997" y="87.3"/>
      <point x="232.6" y="-10.3"/>
    </contour>
    <contour>
      <point x="342.19999999999993" y="-105.3" type="line"/>
      <point x="531.1999999999999" y="-105.3" type="line"/>
      <point x="531.1999999999999" y="9.8" type="line"/>
      <point x="342.19999999999993" y="16.7" type="line"/>
    </contour>
    <contour>
      <point x="342.19999999999993" y="529.2" type="line"/>
      <point x="531.1999999999999" y="541.8" type="line"/>
      <point x="531.1999999999999" y="654.7" type="line"/>
      <point x="342.19999999999993" y="654.7" type="line"/>
    </contour>
  </outline>
</glyph>
<glyph name="sterling" format="2">
  <advance width="861.0"/>
  <unicode hex="00A3"/>
  <outline>
    <contour>
      <point x="105.0" y="0.0" type="line"/>
      <point x="764.0999999999999" y="0.0" type="line"/>
      <point x="764.0999999999999" y="188.0" type="line"/>
      <point x="409.5" y="188.0" type="line"/>
      <point x="441.1" y="206.8"/>
      <point x="465.9" y="246.1"/>
      <point x="465.9" y="281.3" type="curve" smooth="yes"/>
      <point x="465.9" y="334.6"/>
      <point x="408.0" y="401.1"/>
      <point x="408.0" y="444.0" type="curve" smooth="yes"/>
      <point x="408.0" y="493.1"/>
      <point x="461.5" y="506.5"/>
      <point x="513.0" y="506.5" type="curve" smooth="yes"/>
      <point x="598.6999999999999" y="506.5"/>
      <point x="666.4" y="497.19999999999993"/>
      <point x="727.8" y="478.5" type="curve"/>
      <point x="760.4" y="667.2" type="line"/>
      <point x="672.5999999999999" y="695.5"/>
      <point x="602.6999999999999" y="710.0"/>
      <point x="485.49999999999994" y="710.0" type="curve" smooth="yes"/>
      <point x="256.4" y="710.0"/>
      <point x="139.59999999999997" y="635.8000000000001"/>
      <point x="139.59999999999997" y="515.8" type="curve" smooth="yes"/>
      <point x="139.59999999999997" y="422.8"/>
      <point x="215.5" y="343.8"/>
      <point x="215.5" y="277.9" type="curve" smooth="yes"/>
      <point x="215.5" y="224.70000000000002"/>
      <point x="186.4" y="198.3"/>
      <point x="105.0" y="153.0" type="curve"/>
    </contour>
    <contour>
      <point x="98.1" y="289.7" type="line"/>
      <point x="650.9" y="289.7" type="line"/>
      <point x="650.9" y="394.7" type="line"/>
      <point x="98.1" y="394.7" type="line"/>
    </contour>
  </outline>
</glyph>
<glyph name="currency" format="2">
  <advance width="560.0"/>
  <unicode hex="00A4"/>
  <outline>
    <contour>
      <point x="54.099999999999994" y="421.4" type="line"/>
      <point x="107.9" y="366.6" type="line"/>
      <point x="102.4" y="349.3"/>
      <point x="99.3" y="331.3"/>
      <point x="99.3" y="311.9" type="curve" smooth="yes"/>
      <point x="99.3" y="291.5"/>
      <point x="102.4" y="272.2"/>
      <point x="108.9" y="254.6" type="curve"/>
      <point x="54.099999999999994" y="199.8" type="line"/>
      <point x="169.2" y="84.7" type="line"/>
      <point x="240.1" y="154.9" type="line"/>
      <point x="251.9" y="152.9"/>
      <point x="265.0" y="152.9"/>
      <point x="278.8" y="152.9" type="curve" smooth="yes"/>
      <point x="293.4" y="152.9"/>
      <point x="306.3" y="153.6"/>
      <point x="319.2" y="155.3" type="curve"/>
      <point x="390.8" y="84.7" type="line"/>
      <point x="505.9" y="199.8" type="line"/>
      <point x="448.8" y="256.6" type="line"/>
      <point x="454.2" y="274.1"/>
      <point x="457.6" y="292.3"/>
      <point x="457.6" y="311.9" type="curve" smooth="yes"/>
      <point x="457.6" y="330.2"/>
      <point x="454.9" y="347.4"/>
      <point x="449.1" y="364.6" type="curve"/>
      <point x="505.9" y="421.4" type="line"/>
      <point x="390.8" y="536.5" type="line"/>
      <point x="320.4" y="466.1" type="line"/>
      <point x="307.2" y="468.5"/>
      <point x="293.7" y="469.5"/>
      <point x="278.8" y="469.5" type="curve" smooth="yes"/>
      <point x="264.4" y="469.5"/>
      <point x="251.3" y="468.2"/>
      <point x="238.9" y="466.5" type="curve"/>
      <point x="169.2" y="536.5" type="line"/>
    </contour>
    <contour>
      <point x="278.1" y="278.4" type="curve" smooth="yes"/>
      <point x="258.4" y="278.4"/>
      <point x="244.9" y="291.2"/>
      <point x="244.9" y="311.6" type="curve" smooth="yes"/>
      <point x="244.9" y="329.3"/>
      <point x="257.7" y="343.7"/>
      <point x="278.1" y="343.7" type="curve" smooth="yes"/>
      <point x="298.5" y="343.7"/>
      <point x="312.0" y="329.3"/>
      <point x="312.0" y="311.6" type="curve" smooth="yes"/>
      <point x="312.0" y="291.2"/>
      <point x="297.8" y="278.4"/>
    </contour>
  </outline>
</glyph>
<glyph name="yen" format="2">
  <advance width="891.9999999999999"/>
  <unicode hex="00A5"/>
  <outline>
    <contour>
      <point x="112.5" y="301.5" type="line"/>
      <point x="320.99999999999994" y="301.5" type="line"/>
      <point x="320.99999999999994" y="259.0" type="line"/>
      <point x="112.5" y="259.0" type="line"/>
      <point x="112.5" y="168.0" type="line"/>
      <point x="320.99999999999994" y="168.0" type="line"/>
      <point x="320.99999999999994" y="0.0" type="line"/>
      <point x="572.5" y="0.0" type="line"/>
      <point x="572.5" y="168.0" type="line"/>
      <point x="787.5" y="168.0" type="line"/>
      <point x="787.5" y="259.0" type="line"/>
      <point x="572.5" y="259.0" type="line"/>
      <point x="572.5" y="301.5" type="line"/>
      <point x="787.5" y="301.5" type="line"/>
      <point x="787.5" y="392.5" type="line"/>
      <point x="572.5" y="392.5" type="line"/>
      <point x="849.0" y="699.0" type="line"/>
      <point x="591.0" y="701.0" type="line"/>
      <point x="449.49999999999994" y="518.0" type="line"/>
      <point x="306.0" y="701.0" type="line"/>
      <point x="42.999999999999986" y="699.0" type="line"/>
      <point x="320.99999999999994" y="392.5" type="line"/>
      <point x="112.5" y="392.5" type="line"/>
    </contour>
  </outline>
</glyph>
<glyph name="brokenbar" format="2">
  <advance width="302.7"/>
  <unicode hex="00A6"/>
  <outline>
    <contour>
      <point x="254.2" y="391.0" type="line"/>
      <point x="254.2" y="790.3" type="line"/>
      <point x="48.5" y="790.3" type="line"/>
      <point x="48.5" y="391.0" type="line"/>
    </contour>
    <contour>
      <point x="48.5" y="190.3" type="line"/>
      <point x="48.5" y="-210.0" type="line"/>
      <point x="254.2" y="-210.0" type="line"/>
      <point x="254.2" y="190.3" type="line"/>
    </contour>
  </outline>
</glyph>
<glyph name="section" format="2">
  <advance width="736.0999999999999"/>
  <unicode hex="00A7"/>
  <outline>
    <contour>
      <point x="285.9" y="-220.3" type="curve" smooth="yes"/>
      <point x="529.1" y="-220.3"/>
      <point x="673.7" y="-101.8"/>
      <point x="673.7" y="92.0" type="curve" smooth="yes"/>
      <point x="673.7" y="184.5"/>
      <point x="646.3" y="258.5"/>
      <point x="568.9000000000001" y="360.9" type="curve" smooth="yes"/>
      <point x="521.4" y="430.0"/>
      <point x="501.4" y="461.79999999999995"/>
      <point x="501.4" y="486.09999999999997" type="curve" smooth="yes"/>
      <point x="501.4" y="513.6999999999999"/>
      <point x="522.6999999999999" y="531.6999999999999"/>
      <point x="556.3" y="531.6999999999999" type="curve" smooth="yes"/>
      <point x="569.7" y="531.6999999999999"/>
      <point x="582.5" y="529.6999999999999"/>
      <point x="599.4" y="523.4000000000001" type="curve"/>
      <point x="632.1999999999999" y="725.9" type="line"/>
      <point x="568.7" y="743.6"/>
      <point x="507.5" y="750.0"/>
      <point x="451.6" y="750.0" type="curve" smooth="yes"/>
      <point x="191.0" y="750.0"/>
      <point x="63.1" y="637.5999999999999"/>
      <point x="65.2" y="451.5" type="curve" smooth="yes"/>
      <point x="66.1" y="364.3"/>
      <point x="93.2" y="294.20000000000005"/>
      <point x="167.4" y="176.5" type="curve" smooth="yes"/>
      <point x="217.1" y="97.4"/>
      <point x="240.2" y="65.1"/>
      <point x="240.2" y="35.599999999999994" type="curve" smooth="yes"/>
      <point x="240.2" y="9.599999999999998"/>
      <point x="217.39999999999998" y="-6.9"/>
      <point x="176.89999999999998" y="-6.9" type="curve" smooth="yes"/>
      <point x="151.4" y="-6.9"/>
      <point x="129.9" y="-1.5000000000000013"/>
      <point x="101.10000000000001" y="8.399999999999999" type="curve"/>
      <point x="60.699999999999996" y="-184.29999999999998" type="line"/>
      <point x="135.29999999999998" y="-208.1"/>
      <point x="206.89999999999998" y="-220.3"/>
    </contour>
    <contour>
      <point x="306.20000000000005" y="-95.89999999999999" type="curve" smooth="yes"/>
      <point x="278.29999999999995" y="-95.89999999999999"/>
      <point x="247.7" y="-91.6"/>
      <point x="222.5" y="-77.8" type="curve"/>
      <point x="257.9" y="-107.2" type="line"/>
      <point x="360.7" y="-113.8"/>
      <point x="446.2" y="-55.0"/>
      <point x="446.2" y="36.0" type="curve" smooth="yes"/>
      <point x="446.2" y="90.50000000000001"/>
      <point x="418.20000000000005" y="153.5"/>
      <point x="352.6" y="260.0" type="curve" smooth="yes"/>
      <point x="292.59999999999997" y="357.8"/>
      <point x="268.29999999999995" y="418.8"/>
      <point x="268.29999999999995" y="472.0" type="curve" smooth="yes"/>
      <point x="268.29999999999995" y="549.6"/>
      <point x="324.1" y="606.2"/>
      <point x="398.9" y="606.2" type="curve" smooth="yes"/>
      <point x="433.29999999999995" y="606.2"/>
      <point x="454.7" y="600.5"/>
      <point x="481.0" y="583.7" type="curve"/>
      <point x="444.3" y="621.2" type="line"/>
      <point x="375.2" y="622.9"/>
      <point x="303.70000000000005" y="568.5"/>
      <point x="303.7" y="490.8" type="curve" smooth="yes"/>
      <point x="303.7" y="432.20000000000005"/>
      <point x="322.99999999999994" y="388.79999999999995"/>
      <point x="382.8" y="286.9" type="curve" smooth="yes"/>
      <point x="457.5" y="161.6"/>
      <point x="481.4999999999999" y="112.39999999999999"/>
      <point x="481.4999999999999" y="59.8" type="curve" smooth="yes"/>
      <point x="481.49999999999994" y="-8.799999999999997"/>
      <point x="436.4" y="-95.89999999999999"/>
    </contour>
  </outline>
</glyph>
<glyph name="copyright" format="2">
  <advance width="854.5999999999999"/>
  <unicode hex="00A9"/>
  <outline>
    <contour>
      <point x="427.29999999999995" y="68.8" type="curve" smooth="yes"/>
      <point x="232.2" y="68.8"/>
      <point x="136.0" y="183.9"/>
      <point x="136.0" y="348.9" type="curve" smooth="yes"/>
      <point x="136.0" y="515.3"/>
      <point x="232.89999999999998" y="626.9"/>
      <point x="427.29999999999995" y="626.9" type="curve" smooth="yes"/>
      <point x="622.6000000000001" y="626.9"/>
      <point x="718.3" y="515.3"/>
      <point x="718.3" y="348.9" type="curve" smooth="yes"/>
      <point x="718.3" y="183.9"/>
      <point x="623.3000000000001" y="68.8"/>
    </contour>
    <contour>
      <point x="427.29999999999995" y="710.0" type="curve" smooth="yes"/>
      <point x="184.5" y="710.0"/>
      <point x="45.0" y="556.6"/>
      <point x="45.0" y="348.9" type="curve" smooth="yes"/>
      <point x="45.0" y="142.9"/>
      <point x="182.4" y="-10.0"/>
      <point x="427.29999999999995" y="-10.0" type="curve" smooth="yes"/>
      <point x="672.2" y="-10.0"/>
      <point x="809.5999999999999" y="142.9"/>
      <point x="809.5999999999999" y="348.9" type="curve" smooth="yes"/>
      <point x="809.5999999999999" y="556.6"/>
      <point x="670.1" y="710.0"/>
    </contour>
    <contour>
      <point x="231.6" y="346.20000000000005" type="curve" smooth="yes"/>
      <point x="231.6" y="206.6"/>
      <point x="317.6" y="155.79999999999998"/>
      <point x="429.0" y="155.79999999999998" type="curve" smooth="yes"/>
      <point x="490.20000000000005" y="155.79999999999998"/>
      <point x="552.8999999999999" y="169.4"/>
      <point x="598.1000000000001" y="191.70000000000002" type="curve"/>
      <point x="579.0999999999999" y="291.2" type="line"/>
      <point x="549.3" y="281.8"/>
      <point x="501.6" y="270.7"/>
      <point x="458.0" y="270.7" type="curve" smooth="yes"/>
      <point x="400.9" y="270.7"/>
      <point x="375.20000000000005" y="288.5"/>
      <point x="375.20000000000005" y="347.6" type="curve" smooth="yes"/>
      <point x="375.20000000000005" y="415.0"/>
      <point x="401.4000000000001" y="435.3"/>
      <point x="461.59999999999997" y="435.3" type="curve" smooth="yes"/>
      <point x="497.0" y="435.3"/>
      <point x="541.8" y="425.8"/>
      <point x="570.8" y="417.6" type="curve"/>
      <point x="593.5" y="519.4000000000001" type="line"/>
      <point x="551.7" y="540.6999999999999"/>
      <point x="494.59999999999997" y="551.6"/>
      <point x="440.4" y="551.6" type="curve" smooth="yes"/>
      <point x="321.5" y="551.6"/>
      <point x="231.6" y="495.0"/>
    </contour>
  </outline>
</glyph>
<glyph name="ordfeminine" format="2">
  <advance width="532.0"/>
  <unicode hex="00AA"/>
  <outline>
    <contour>
      <point x="54.099999999999994" y="171.0" type="line"/>
      <point x="506.29999999999995" y="171.0" type="line"/>
      <point x="506.29999999999995" y="304.59999999999997" type="line"/>
      <point x="54.099999999999994" y="304.59999999999997" type="line"/>
    </contour>
    <component base="a.superior" xOffset="8.0"/>
  </outline>
</glyph>
<glyph name="logicalnot" format="2">
  <advance width="673.4"/>
  <unicode hex="00AC"/>
  <outline>
    <contour>
      <point x="54.6" y="282.8" type="line"/>
      <point x="427.3" y="282.8" type="line"/>
      <point x="427.3" y="160.1" type="line"/>
      <point x="618.8" y="160.1" type="line"/>
      <point x="618.8" y="474.3" type="line"/>
      <point x="54.6" y="474.3" type="line"/>
    </contour>
  </outline>
</glyph>
<glyph name="registered" format="2">
  <advance width="820.4999999999999"/>
  <unicode hex="00AE"/>
  <outline>
    <contour>
      <point x="401.00000000000006" y="206.5" type="curve" smooth="yes"/>
      <point x="643.5" y="206.5"/>
      <point x="775.4999999999999" y="347.5"/>
      <point x="775.4999999999999" y="549.5" type="curve" smooth="yes"/>
      <point x="775.4999999999999" y="746.5"/>
      <point x="644.0" y="893.5000000000001"/>
      <point x="401.00000000000006" y="893.5000000000001" type="curve" smooth="yes"/>
      <point x="170.0" y="893.5000000000001"/>
      <point x="45.0" y="746.5"/>
      <point x="45.0" y="549.5" type="curve" smooth="yes"/>
      <point x="45.0" y="353.5"/>
      <point x="168.0" y="206.5"/>
    </contour>
    <contour>
      <point x="401.00000000000006" y="281.5" type="curve" smooth="yes"/>
      <point x="215.99999999999997" y="281.5"/>
      <point x="131.5" y="393.0"/>
      <point x="131.5" y="549.5" type="curve" smooth="yes"/>
      <point x="131.5" y="707.5"/>
      <point x="216.5" y="814.5"/>
      <point x="401.00000000000006" y="814.5" type="curve" smooth="yes"/>
      <point x="598.0" y="814.5"/>
      <point x="688.4999999999999" y="707.0"/>
      <point x="688.4999999999999" y="549.5" type="curve" smooth="yes"/>
      <point x="688.4999999999999" y="392.0"/>
      <point x="596.4999999999999" y="281.5"/>
    </contour>
    <contour>
      <point x="593.0" y="381.99999999999994" type="curve" smooth="yes"/>
      <point x="596.5" y="381.99999999999994"/>
      <point x="599.5" y="381.99999999999994"/>
      <point x="602.5" y="382.0" type="curve"/>
      <point x="602.5" y="492.49999999999994" type="line"/>
      <point x="601.5" y="492.49999999999994"/>
      <point x="599.9999999999999" y="492.49999999999994"/>
      <point x="599.0" y="492.49999999999994" type="curve" smooth="yes"/>
      <point x="575.0" y="493.5"/>
      <point x="546.0" y="507.5"/>
      <point x="522.0" y="521.0" type="curve"/>
      <point x="569.0" y="528.5"/>
      <point x="603.0" y="557.0"/>
      <point x="603.0" y="617.5" type="curve" smooth="yes"/>
      <point x="603.0" y="691.5"/>
      <point x="552.9999999999999" y="725.5"/>
      <point x="414.0" y="725.5" type="curve" smooth="yes"/>
      <point x="380.5" y="725.5"/>
      <point x="319.5" y="724.0"/>
      <point x="235.49999999999997" y="720.0000000000001" type="curve"/>
      <point x="235.49999999999997" y="387.0" type="line"/>
      <point x="360.0" y="387.0" type="line"/>
      <point x="360.0" y="485.5" type="line"/>
      <point x="364.5" y="485.5"/>
      <point x="368.49999999999994" y="485.5"/>
      <point x="372.49999999999994" y="485.5" type="curve" smooth="yes"/>
      <point x="377.99999999999994" y="485.5"/>
      <point x="381.99999999999994" y="485.5"/>
      <point x="386.99999999999994" y="485.5" type="curve"/>
      <point x="451.00000000000006" y="416.49999999999994"/>
      <point x="519.0" y="382.49999999999994"/>
    </contour>
    <contour>
      <point x="397.0" y="559.0" type="curve" smooth="yes"/>
      <point x="388.0" y="559.0"/>
      <point x="380.0" y="559.5"/>
      <point x="360.0" y="560.0" type="curve"/>
      <point x="360.0" y="634.5" type="line"/>
      <point x="391.5" y="636.0"/>
      <point x="397.00000000000006" y="636.0"/>
      <point x="418.99999999999994" y="636.0" type="curve" smooth="yes"/>
      <point x="464.9999999999999" y="636.0"/>
      <point x="474.0" y="625.5"/>
      <point x="474.0" y="601.0000000000001" type="curve" smooth="yes"/>
      <point x="474.0" y="568.5"/>
      <point x="465.99999999999994" y="559.0"/>
    </contour>
  </outline>
</glyph>
<glyph name="degree" format="2">
  <advance width="446.0"/>
  <unicode hex="00B0"/>
  <outline>
    <contour>
      <point x="223.0" y="330.0" type="curve" smooth="yes"/>
      <point x="355.0" y="330.0"/>
      <point x="413.4" y="424.0"/>
      <point x="413.4" y="520.0" type="curve" smooth="yes"/>
      <point x="413.4" y="609.0"/>
      <point x="363.1" y="710.0"/>
      <point x="223.0" y="710.0" type="curve" smooth="yes"/>
      <point x="82.9" y="710.0"/>
      <point x="32.6" y="609.0"/>
      <point x="32.6" y="520.0" type="curve" smooth="yes"/>
      <point x="32.6" y="424.0"/>
      <point x="91.0" y="330.0"/>
    </contour>
    <contour>
      <point x="223.0" y="470.7" type="curve" smooth="yes"/>
      <point x="197.9" y="470.7"/>
      <point x="182.3" y="489.5"/>
      <point x="182.3" y="519.0" type="curve" smooth="yes"/>
      <point x="182.3" y="546.5"/>
      <point x="196.2" y="565.3"/>
      <point x="223.0" y="565.3" type="curve" smooth="yes"/>
      <point x="249.8" y="565.3"/>
      <point x="263.7" y="546.5"/>
      <point x="263.7" y="519.0" type="curve" smooth="yes"/>
      <point x="263.7" y="489.5"/>
      <point x="248.1" y="470.7"/>
    </contour>
  </outline>
</glyph>
<glyph name="plusminus" format="2">
  <advance width="673.4"/>
  <unicode hex="00B1"/>
  <outline>
    <contour>
      <point x="54.599999999999994" y="-0.7" type="line"/>
      <point x="618.8" y="-0.7" type="line"/>
      <point x="618.8" y="190.8" type="line"/>
      <point x="446.1" y="190.8" type="line"/>
      <point x="446.1" y="288.6" type="line"/>
      <point x="618.8" y="288.6" type="line"/>
      <point x="618.8" y="480.1" type="line"/>
      <point x="446.1" y="480.1" type="line"/>
      <point x="446.1" y="596.1" type="line"/>
      <point x="226.60000000000002" y="596.1" type="line"/>
      <point x="226.60000000000002" y="480.1" type="line"/>
      <point x="54.599999999999994" y="480.1" type="line"/>
      <point x="54.599999999999994" y="288.6" type="line"/>
      <point x="226.60000000000002" y="288.6" type="line"/>
      <point x="226.60000000000002" y="190.8" type="line"/>
      <point x="54.599999999999994" y="190.8" type="line"/>
    </contour>
  </outline>
</glyph>
<glyph name="uni00B2" format="2">
  <advance width="507.2"/>
  <unicode hex="00B2"/>
  <outline>
    <contour>
      <point x="32.400000000000006" y="370.0" type="line"/>
      <point x="477.9" y="370.0" type="line"/>
      <point x="477.9" y="484.8" type="line"/>
      <point x="321.0" y="484.8" type="line"/>
      <point x="411.09999999999997" y="536.0999999999999"/>
      <point x="436.09999999999997" y="575.1999999999999"/>
      <point x="436.09999999999997" y="632.8000000000001" type="curve" smooth="yes"/>
      <point x="436.09999999999997" y="719.1"/>
      <point x="354.9" y="773.5999999999999"/>
      <point x="232.2" y="773.5999999999999" type="curve" smooth="yes"/>
      <point x="163.2" y="773.5999999999999"/>
      <point x="77.3" y="753.9"/>
      <point x="26.60000000000001" y="726.7" type="curve"/>
      <point x="72.9" y="605.9" type="line"/>
      <point x="128.10000000000002" y="628.2"/>
      <point x="153.4" y="635.7"/>
      <point x="185.9" y="635.7" type="curve" smooth="yes"/>
      <point x="216.5" y="635.7"/>
      <point x="233.69999999999996" y="619.7"/>
      <point x="233.69999999999996" y="598.6" type="curve" smooth="yes"/>
      <point x="233.69999999999996" y="562.5"/>
      <point x="173.60000000000002" y="527.2"/>
      <point x="32.400000000000006" y="471.9" type="curve"/>
    </contour>
  </outline>
</glyph>
<glyph name="uni00B3" format="2">
  <advance width="520.9"/>
  <unicode hex="00B3"/>
  <outline>
    <contour>
      <point x="22.1" y="391.90000000000003" type="line"/>
      <point x="91.89999999999999" y="368.8"/>
      <point x="164.5" y="363.9"/>
      <point x="239.2" y="363.9" type="curve" smooth="yes"/>
      <point x="390.59999999999997" y="363.9"/>
      <point x="495.29999999999995" y="400.09999999999997"/>
      <point x="495.29999999999995" y="489.0" type="curve" smooth="yes"/>
      <point x="495.29999999999995" y="533.8"/>
      <point x="471.5" y="562.5"/>
      <point x="414.09999999999997" y="582.5" type="curve"/>
      <point x="453.5" y="595.0"/>
      <point x="484.40000000000003" y="625.8"/>
      <point x="484.40000000000003" y="669.5999999999999" type="curve" smooth="yes"/>
      <point x="484.40000000000003" y="733.4"/>
      <point x="415.59999999999997" y="774.2"/>
      <point x="250.2" y="774.2" type="curve" smooth="yes"/>
      <point x="154.7" y="774.2"/>
      <point x="70.8" y="763.9"/>
      <point x="26.8" y="747.9" type="curve"/>
      <point x="57.9" y="634.6999999999999" type="line"/>
      <point x="60.89999999999999" y="636.5"/>
      <point x="98.80000000000001" y="651.6999999999999"/>
      <point x="199.10000000000002" y="651.6999999999999" type="curve" smooth="yes"/>
      <point x="253.90000000000003" y="651.6999999999999"/>
      <point x="304.0" y="643.4"/>
      <point x="304.0" y="632.7" type="curve" smooth="yes"/>
      <point x="304.0" y="622.1999999999999"/>
      <point x="288.0" y="618.5"/>
      <point x="256.5" y="618.5" type="curve" smooth="yes"/>
      <point x="127.79999999999998" y="618.5" type="line"/>
      <point x="127.79999999999998" y="516.4" type="line"/>
      <point x="231.79999999999998" y="516.4" type="line" smooth="yes"/>
      <point x="298.9" y="516.4"/>
      <point x="306.9" y="510.30000000000007"/>
      <point x="306.9" y="501.0" type="curve" smooth="yes"/>
      <point x="306.9" y="487.59999999999997"/>
      <point x="283.1" y="478.7"/>
      <point x="219.09999999999997" y="478.7" type="curve" smooth="yes"/>
      <point x="124.69999999999999" y="478.7"/>
      <point x="91.0" y="485.2"/>
      <point x="57.599999999999994" y="496.6" type="curve"/>
    </contour>
  </outline>
</glyph>
<glyph name="uni00B5" format="2">
  <advance width="771.7"/>
  <unicode hex="00B5"/>
  <outline>
    <contour>
      <point x="43.5" y="-210.0" type="line"/>
      <point x="303.3" y="-210.0" type="line"/>
      <point x="303.3" y="-5.699999999999996" type="line"/>
      <point x="315.7" y="-8.099999999999998"/>
      <point x="328.7" y="-9.4"/>
      <point x="343.3" y="-9.4" type="curve" smooth="yes"/>
      <point x="397.70000000000005" y="-9.4"/>
      <point x="437.90000000000003" y="11.600000000000001"/>
      <point x="480.0999999999999" y="48.3" type="curve"/>
      <point x="509.9" y="10.3"/>
      <point x="540.9000000000001" y="-10.0"/>
      <point x="615.4" y="-10.0" type="curve" smooth="yes"/>
      <point x="674.7" y="-10.0"/>
      <point x="738.6999999999999" y="8.3"/>
      <point x="771.1" y="30.4" type="curve"/>
      <point x="750.9999999999999" y="187.4" type="line"/>
      <point x="743.8" y="184.3"/>
      <point x="737.0999999999999" y="183.29999999999998"/>
      <point x="729.6" y="183.29999999999998" type="curve" smooth="yes"/>
      <point x="716.3" y="183.29999999999998"/>
      <point x="706.3" y="191.5"/>
      <point x="706.3" y="212.5" type="curve" smooth="yes"/>
      <point x="706.3" y="550.0" type="line"/>
      <point x="443.79999999999995" y="550.0" type="line"/>
      <point x="443.79999999999995" y="201.4" type="line"/>
      <point x="410.09999999999997" y="188.7"/>
      <point x="391.5" y="185.3"/>
      <point x="367.3" y="185.3" type="curve" smooth="yes"/>
      <point x="331.1" y="185.3"/>
      <point x="306.3" y="204.10000000000002"/>
      <point x="306.3" y="256.6" type="curve" smooth="yes"/>
      <point x="306.3" y="550.0" type="line"/>
      <point x="43.5" y="550.0" type="line"/>
    </contour>
  </outline>
</glyph>
<glyph name="paragraph" format="2">
  <advance width="859.5"/>
  <unicode hex="00B6"/>
  <outline>
    <contour>
      <point x="577.1999999999999" y="-210.0" type="line"/>
      <point x="779.0" y="-210.0" type="line"/>
      <point x="779.0" y="740.0" type="line"/>
      <point x="577.1999999999999" y="740.0" type="line"/>
    </contour>
    <contour>
      <point x="324.79999999999995" y="349.0" type="line"/>
      <point x="300.1" y="357.5"/>
      <point x="281.7" y="392.79999999999995"/>
      <point x="281.7" y="451.8" type="curve" smooth="yes"/>
      <point x="281.7" y="523.9"/>
      <point x="302.0" y="547.9"/>
      <point x="344.0" y="547.9" type="curve"/>
      <point x="344.0" y="-210.0" type="line"/>
      <point x="545.8000000000001" y="-210.0" type="line"/>
      <point x="545.8000000000001" y="740.0" type="line"/>
      <point x="401.6" y="740.0" type="line" smooth="yes"/>
      <point x="146.1" y="740.0"/>
      <point x="60.599999999999994" y="647.6999999999999"/>
      <point x="60.599999999999994" y="477.1" type="curve" smooth="yes"/>
      <point x="60.599999999999994" y="324.0"/>
      <point x="136.8" y="232.39999999999998"/>
      <point x="301.7" y="214.6" type="curve"/>
    </contour>
  </outline>
</glyph>
<glyph name="periodcentered" format="2">
  <advance width="333.0"/>
  <unicode hex="00B7"/>
  <outline>
    <contour>
      <point x="24.499999999999996" y="319.6" type="curve" smooth="yes"/>
      <point x="24.499999999999996" y="243.7"/>
      <point x="64.4" y="204.7"/>
      <point x="166.5" y="204.7" type="curve" smooth="yes"/>
      <point x="268.6" y="204.7"/>
      <point x="308.5" y="243.7"/>
      <point x="308.5" y="319.6" type="curve" smooth="yes"/>
      <point x="308.5" y="396.5"/>
      <point x="268.6" y="435.5"/>
      <point x="166.5" y="435.5" type="curve" smooth="yes"/>
      <point x="64.4" y="435.5"/>
      <point x="24.499999999999996" y="396.5"/>
    </contour>
  </outline>
</glyph>
<glyph name="uni00B9" format="2">
  <advance width="490.2"/>
  <unicode hex="00B9"/>
  <outline>
    <contour>
      <point x="62.099999999999994" y="370.0" type="line"/>
      <point x="471.5" y="370.0" type="line"/>
      <point x="471.5" y="488.3" type="line"/>
      <point x="372.2" y="488.3" type="line"/>
      <point x="372.2" y="765.5" type="line"/>
      <point x="273.09999999999997" y="765.5" type="line"/>
      <point x="25.2" y="694.5" type="line"/>
      <point x="70.9" y="564.3000000000001" type="line"/>
      <point x="171.2" y="589.4" type="line"/>
      <point x="171.2" y="488.3" type="line"/>
      <point x="62.099999999999994" y="488.3" type="line"/>
    </contour>
  </outline>
</glyph>
<glyph name="ordmasculine" format="2">
  <advance width="526.6"/>
  <unicode hex="00BA"/>
  <outline>
    <contour>
      <point x="34.699999999999996" y="171.0" type="line"/>
      <point x="486.9" y="171.0" type="line"/>
      <point x="486.9" y="304.59999999999997" type="line"/>
      <point x="34.699999999999996" y="304.59999999999997" type="line"/>
    </contour>
    <component base="o.superior" xOffset="8.0"/>
  </outline>
</glyph>
<glyph name="questiondown" format="2">
  <advance width="652.2"/>
  <unicode hex="00BF"/>
  <outline>
    <contour>
      <point x="467.2" y="287.0" type="line"/>
      <point x="245.6" y="287.0" type="line"/>
      <point x="244.2" y="234.3" type="line"/>
      <point x="83.9" y="193.5"/>
      <point x="32.6" y="121.1"/>
      <point x="32.6" y="20.099999999999998" type="curve" smooth="yes"/>
      <point x="32.6" y="-138.0"/>
      <point x="176.20000000000002" y="-203.7"/>
      <point x="339.70000000000005" y="-203.7" type="curve" smooth="yes"/>
      <point x="434.79999999999995" y="-203.7"/>
      <point x="563.4" y="-171.8"/>
      <point x="638.6" y="-126.3" type="curve"/>
      <point x="572.8" y="59.99999999999999" type="line"/>
      <point x="502.40000000000003" y="27.399999999999995"/>
      <point x="438.6" y="7.099999999999998"/>
      <point x="384.1" y="7.099999999999998" type="curve" smooth="yes"/>
      <point x="330.4" y="7.099999999999998"/>
      <point x="305.59999999999997" y="18.0"/>
      <point x="305.59999999999997" y="40.6" type="curve" smooth="yes"/>
      <point x="305.59999999999997" y="64.4"/>
      <point x="314.8" y="85.19999999999999"/>
      <point x="473.29999999999995" y="118.5" type="curve"/>
    </contour>
    <contour>
      <point x="499.29999999999995" y="441.8" type="curve" smooth="yes"/>
      <point x="499.29999999999995" y="517.7"/>
      <point x="459.7" y="556.7"/>
      <point x="357.29999999999995" y="556.7" type="curve" smooth="yes"/>
      <point x="255.5" y="556.7"/>
      <point x="215.29999999999998" y="517.7"/>
      <point x="215.29999999999998" y="441.8" type="curve" smooth="yes"/>
      <point x="215.29999999999998" y="364.9"/>
      <point x="255.5" y="325.9"/>
      <point x="357.29999999999995" y="325.9" type="curve" smooth="yes"/>
      <point x="459.7" y="325.9"/>
      <point x="499.29999999999995" y="364.9"/>
    </contour>
  </outline>
</glyph>
<glyph name="AE" format="2">
  <advance width="1351.1999999999998"/>
  <unicode hex="00C6"/>
  <anchor x="737.9000000000001" y="700.0" name="top"/>
  <outline>
    <contour>
      <point x="0.5999999999999996" y="0.0" type="line"/>
      <point x="303.5" y="0.0" type="line"/>
      <point x="395.70000000000005" y="136.0" type="line"/>
      <point x="605.2" y="136.0" type="line"/>
      <point x="605.2" y="0.0" type="line"/>
      <point x="1317.5" y="0.0" type="line"/>
      <point x="1317.5" y="196.9" type="line"/>
      <point x="849.8" y="196.9" type="line"/>
      <point x="849.8" y="261.90000000000003" type="line"/>
      <point x="1264.6" y="261.90000000000003" type="line"/>
      <point x="1264.6" y="438.3" type="line"/>
      <point x="849.8" y="438.3" type="line"/>
      <point x="849.8" y="501.6" type="line"/>
      <point x="1293.9" y="501.6" type="line"/>
      <point x="1293.9" y="700.0" type="line"/>
      <point x="475.6" y="700.0" type="line"/>
    </contour>
    <contour>
      <point x="505.79999999999995" y="321.5" type="line"/>
      <point x="604.6" y="512.1" type="line"/>
      <point x="604.6" y="321.5" type="line"/>
    </contour>
  </outline>
</glyph>
<glyph name="multiply" format="2">
  <advance width="603.4"/>
  <unicode hex="00D7"/>
  <outline>
    <contour>
      <point x="163.60000000000002" y="83.6" type="line"/>
      <point x="301.7" y="198.60000000000002" type="line"/>
      <point x="439.8" y="83.60000000000001" type="line"/>
      <point x="564.0" y="229.5" type="line"/>
      <point x="449.7" y="324.9" type="line"/>
      <point x="564.0" y="421.0" type="line"/>
      <point x="439.8" y="566.9" type="line"/>
      <point x="301.7" y="451.2" type="line"/>
      <point x="163.6" y="566.9" type="line"/>
      <point x="39.4" y="421.0" type="line"/>
      <point x="153.0" y="324.9" type="line"/>
      <point x="39.400000000000006" y="229.50000000000003" type="line"/>
    </contour>
  </outline>
</glyph>
<glyph name="Oslash" format="2">
  <advance width="974.0"/>
  <unicode hex="00D8"/>
  <anchor x="487.0" y="700.0" name="top"/>
  <outline>
    <contour>
      <point x="193.5" y="-15.0" type="line"/>
      <point x="317.0" y="120.0" type="line"/>
      <point x="315.5" y="115.5" type="line"/>
      <point x="766.4999999999999" y="539.0" type="line"/>
      <point x="765.9999999999999" y="535.0" type="line"/>
      <point x="939.0" y="720.0" type="line"/>
      <point x="779.4999999999999" y="720.0" type="line"/>
      <point x="669.4999999999999" y="603.0" type="line"/>
      <point x="670.4999999999999" y="607.0" type="line"/>
      <point x="207.0" y="170.0" type="line"/>
      <point x="207.5" y="172.0" type="line"/>
      <point x="35.00000000000001" y="-15.0" type="line"/>
    </contour>
    <contour>
      <point x="487.5" y="165.0" type="curve" smooth="yes"/>
      <point x="368.5" y="165.0"/>
      <point x="279.0" y="208.5"/>
      <point x="279.0" y="350.5" type="curve" smooth="yes"/>
      <point x="279.0" y="493.5"/>
      <point x="369.0" y="535.0"/>
      <point x="487.5" y="535.0" type="curve" smooth="yes"/>
      <point x="604.5" y="535.0"/>
      <point x="694.9999999999999" y="494.5"/>
      <point x="694.9999999999999" y="351.5" type="curve" smooth="yes"/>
      <point x="694.9999999999999" y="207.5"/>
      <point x="603.5" y="165.0"/>
    </contour>
    <contour>
      <point x="487.0" y="-10.0" type="curve" smooth="yes"/>
      <point x="775.0" y="-10.0"/>
      <point x="938.5" y="93.5"/>
      <point x="938.5" y="354.0" type="curve" smooth="yes"/>
      <point x="938.5" y="604.0"/>
      <point x="784.5" y="710.0"/>
      <point x="487.5" y="710.0" type="curve" smooth="yes"/>
      <point x="188.00000000000003" y="710.0"/>
      <point x="35.5" y="602.5"/>
      <point x="35.5" y="351.0" type="curve" smooth="yes"/>
      <point x="35.5" y="96.0"/>
      <point x="199.00000000000003" y="-10.0"/>
    </contour>
  </outline>
</glyph>
<glyph name="Thorn" format="2">
  <advance width="933.3"/>
  <unicode hex="00DE"/>
  <outline>
    <contour>
      <point x="59.1" y="0.0" type="line"/>
      <point x="335.9" y="0.0" type="line"/>
      <point x="335.9" y="96.0" type="line"/>
      <point x="457.0" y="92.0"/>
      <point x="412.0" y="92.0"/>
      <point x="536.2" y="92.0" type="curve" smooth="yes"/>
      <point x="815.6999999999999" y="92.0"/>
      <point x="900.9" y="173.70000000000002"/>
      <point x="900.9" y="370.0" type="curve" smooth="yes"/>
      <point x="900.9" y="570.2"/>
      <point x="815.4" y="642.0"/>
      <point x="461.9" y="642.0" type="curve" smooth="yes"/>
      <point x="436.2" y="642.0"/>
      <point x="385.7" y="641.3000000000001"/>
      <point x="336.2" y="640.6" type="curve"/>
      <point x="336.2" y="700.0" type="line"/>
      <point x="59.1" y="700.0" type="line"/>
    </contour>
    <contour>
      <point x="427.6" y="290.1" type="curve" smooth="yes"/>
      <point x="403.8" y="290.1"/>
      <point x="387.19999999999993" y="290.79999999999995"/>
      <point x="336.2" y="294.20000000000005" type="curve"/>
      <point x="336.2" y="444.40000000000003" type="line"/>
      <point x="417.9" y="448.1"/>
      <point x="429.3" y="448.1"/>
      <point x="484.4" y="448.1" type="curve" smooth="yes"/>
      <point x="591.9000000000001" y="448.1"/>
      <point x="619.2" y="422.59999999999997"/>
      <point x="619.2" y="372.9" type="curve" smooth="yes"/>
      <point x="619.2" y="321.5"/>
      <point x="609.5" y="290.1"/>
    </contour>
  </outline>
</glyph>
<glyph name="germandbls" format="2">
  <advance width="947.9"/>
  <unicode hex="00DF"/>
  <outline>
    <contour>
      <point x="96.29999999999998" y="0.0" type="line"/>
      <point x="358.8" y="0.0" type="line"/>
      <point x="358.8" y="470.2" type="line" smooth="yes"/>
      <point x="358.8" y="545.7"/>
      <point x="423.4" y="573.2"/>
      <point x="524.4" y="573.2" type="curve" smooth="yes"/>
      <point x="623.6" y="573.2"/>
      <point x="643.5" y="561.7"/>
      <point x="643.5" y="544.5" type="curve" smooth="yes"/>
      <point x="643.5" y="530.6"/>
      <point x="630.7" y="525.7"/>
      <point x="581.1" y="516.7" type="curve" smooth="yes"/>
      <point x="468.2" y="505.5"/>
      <point x="419.5" y="438.2"/>
      <point x="419.5" y="358.5" type="curve" smooth="yes"/>
      <point x="419.5" y="243.6"/>
      <point x="464.3" y="192.7"/>
      <point x="624.0" y="181.1" type="curve" smooth="yes"/>
      <point x="698.8" y="176.4"/>
      <point x="708.9" y="176.2"/>
      <point x="708.9" y="163.8" type="curve" smooth="yes"/>
      <point x="708.9" y="150.3"/>
      <point x="688.2" y="146.5"/>
      <point x="657.4" y="146.5" type="curve" smooth="yes"/>
      <point x="590.0" y="146.5"/>
      <point x="485.3" y="160.5"/>
      <point x="419.3" y="177.1" type="curve"/>
      <point x="395.1" y="17.200000000000003" type="line"/>
      <point x="480.2" y="-3.9000000000000004"/>
      <point x="560.3" y="-9.8"/>
      <point x="642.6" y="-9.8" type="curve" smooth="yes"/>
      <point x="783.5" y="-9.8"/>
      <point x="948.1" y="21.0"/>
      <point x="948.1" y="182.9" type="curve" smooth="yes"/>
      <point x="948.1" y="300.1"/>
      <point x="883.0" y="344.7"/>
      <point x="758.7" y="351.3" type="curve" smooth="yes"/>
      <point x="672.4" y="354.1"/>
      <point x="655.9" y="357.3"/>
      <point x="655.9" y="368.0" type="curve" smooth="yes"/>
      <point x="655.9" y="378.5"/>
      <point x="668.7" y="378.8"/>
      <point x="708.2" y="384.7" type="curve" smooth="yes"/>
      <point x="820.1" y="403.2"/>
      <point x="884.3" y="447.8"/>
      <point x="884.3" y="549.5" type="curve" smooth="yes"/>
      <point x="884.3" y="692.3"/>
      <point x="755.1" y="750.0"/>
      <point x="514.5" y="750.0" type="curve" smooth="yes"/>
      <point x="234.2" y="750.0"/>
      <point x="96.19999999999999" y="681.2"/>
      <point x="96.29999999999998" y="511.1" type="curve" smooth="yes"/>
      <point x="96.29999999999998" y="497.2" type="line"/>
      <point x="11.5" y="480.9" type="line"/>
      <point x="11.5" y="326.9" type="line"/>
      <point x="96.29999999999998" y="326.9" type="line"/>
    </contour>
  </outline>
</glyph>
<glyph name="ae" format="2">
  <advance width="1094.9"/>
  <unicode hex="00E6"/>
  <anchor x="553.8" y="550.0" name="top"/>
  <outline>
    <contour>
      <point x="222.1" y="-10.0" type="curve" smooth="yes"/>
      <point x="326.1" y="-10.0"/>
      <point x="399.3" y="22.5"/>
      <point x="472.8" y="71.4" type="curve"/>
      <point x="474.5" y="71.4" type="line"/>
      <point x="544.3" y="10.8"/>
      <point x="620.2" y="-10.0"/>
      <point x="764.2" y="-10.0" type="curve" smooth="yes"/>
      <point x="874.2" y="-10.0"/>
      <point x="961.2" y="-0.5000000000000018"/>
      <point x="1063.4" y="24.1" type="curve"/>
      <point x="1034.8" y="199.3" type="line"/>
      <point x="946.6" y="182.9"/>
      <point x="851.3" y="172.9"/>
      <point x="787.2" y="172.9" type="curve" smooth="yes"/>
      <point x="692.9" y="172.9"/>
      <point x="671.0" y="169.4"/>
      <point x="664.6" y="199.5" type="curve" smooth="yes"/>
      <point x="663.9" y="200.9"/>
      <point x="663.9" y="206.3"/>
      <point x="664.0" y="204.4" type="curve"/>
      <point x="836.5" y="209.4"/>
      <point x="966.8" y="219.1"/>
      <point x="1059.0" y="224.5" type="curve"/>
      <point x="1059.8" y="243.7"/>
      <point x="1061.0" y="269.2"/>
      <point x="1061.0" y="289.9" type="curve" smooth="yes"/>
      <point x="1061.0" y="482.8"/>
      <point x="962.5" y="560.0"/>
      <point x="747.9" y="560.0" type="curve" smooth="yes"/>
      <point x="662.6" y="560.0"/>
      <point x="612.4" y="549.9"/>
      <point x="557.9" y="515.3" type="curve"/>
      <point x="556.2" y="515.3" type="line"/>
      <point x="481.6" y="551.0"/>
      <point x="432.59999999999997" y="560.0"/>
      <point x="320.3" y="560.0" type="curve" smooth="yes"/>
      <point x="238.4" y="560.0"/>
      <point x="139.5" y="547.2"/>
      <point x="53.499999999999986" y="525.5" type="curve"/>
      <point x="85.89999999999999" y="347.6" type="line"/>
      <point x="155.60000000000002" y="365.2"/>
      <point x="251.1" y="374.2"/>
      <point x="301.6" y="374.2" type="curve" smooth="yes"/>
      <point x="375.69999999999993" y="374.2"/>
      <point x="400.1" y="364.1"/>
      <point x="400.1" y="345.4" type="curve" smooth="yes"/>
      <point x="400.1" y="343.6" type="line"/>
      <point x="136.1" y="342.5"/>
      <point x="20.6" y="304.6"/>
      <point x="20.6" y="164.7" type="curve" smooth="yes"/>
      <point x="20.6" y="51.6"/>
      <point x="95.49999999999999" y="-10.0"/>
    </contour>
    <contour>
      <point x="326.1" y="136.9" type="curve" smooth="yes"/>
      <point x="304.2" y="136.9"/>
      <point x="287.9" y="147.0"/>
      <point x="287.9" y="171.5" type="curve" smooth="yes"/>
      <point x="287.9" y="217.8"/>
      <point x="332.0" y="219.9"/>
      <point x="401.0" y="221.1" type="curve"/>
      <point x="401.20000000000005" y="212.9"/>
      <point x="401.20000000000005" y="202.6"/>
      <point x="401.20000000000005" y="196.8" type="curve" smooth="yes"/>
      <point x="401.20000000000005" y="186.4"/>
      <point x="400.5" y="175.8"/>
      <point x="401.5" y="164.7" type="curve"/>
      <point x="390.2" y="155.2"/>
      <point x="353.4" y="136.9"/>
    </contour>
    <contour>
      <point x="664.0" y="335.6" type="curve"/>
      <point x="668.6" y="392.0"/>
      <point x="702.9" y="395.3"/>
      <point x="731.5" y="395.3" type="curve" smooth="yes"/>
      <point x="766.3" y="395.3"/>
      <point x="781.5" y="383.9"/>
      <point x="794.0" y="339.6" type="curve"/>
      <point x="738.0" y="338.5"/>
      <point x="699.4999999999999" y="336.3"/>
    </contour>
  </outline>
</glyph>
<glyph name="eth" format="2">
  <advance width="771.0"/>
  <unicode hex="00F0"/>
  <outline>
    <contour>
      <point x="544.5" y="346.0" type="curve"/>
      <point x="549.5" y="488.0" type="line"/>
      <point x="484.5" y="516.0"/>
      <point x="426.99999999999994" y="524.0"/>
      <point x="347.5" y="524.0" type="curve" smooth="yes"/>
      <point x="130.5" y="524.0"/>
      <point x="26.500000000000004" y="423.5"/>
      <point x="26.500000000000004" y="249.5" type="curve" smooth="yes"/>
      <point x="26.500000000000004" y="82.5"/>
      <point x="141.0" y="-10.0"/>
      <point x="360.5" y="-10.0" type="curve" smooth="yes"/>
      <point x="624.0" y="-10.0"/>
      <point x="744.0" y="100.0"/>
      <point x="744.0" y="375.5" type="curve" smooth="yes"/>
      <point x="744.0" y="647.5"/>
      <point x="572.0" y="759.0"/>
      <point x="295.0" y="759.0" type="curve" smooth="yes"/>
      <point x="211.49999999999997" y="759.0"/>
      <point x="123.0" y="748.0"/>
      <point x="30.500000000000007" y="728.0" type="curve"/>
      <point x="47.50000000000001" y="597.0" type="line"/>
      <point x="133.0" y="609.5"/>
      <point x="182.99999999999997" y="615.5"/>
      <point x="242.0" y="615.5" type="curve" smooth="yes"/>
      <point x="451.0" y="615.5"/>
      <point x="511.5" y="571.0"/>
      <point x="511.5" y="379.0" type="curve" smooth="yes"/>
      <point x="511.5" y="184.0"/>
      <point x="475.0" y="144.5"/>
      <point x="383.5" y="144.5" type="curve" smooth="yes"/>
      <point x="308.5" y="144.5"/>
      <point x="269.5" y="178.0"/>
      <point x="269.5" y="257.5" type="curve" smooth="yes"/>
      <point x="269.5" y="351.0"/>
      <point x="311.5" y="374.5"/>
      <point x="392.5" y="374.5" type="curve" smooth="yes"/>
      <point x="446.5" y="374.5"/>
      <point x="499.5" y="364.5"/>
    </contour>
    <contour>
      <point x="258.0" y="543.5" type="line"/>
      <point x="472.0" y="631.5" type="line"/>
      <point x="479.5" y="640.0" type="line"/>
      <point x="730.0" y="759.0" type="line"/>
      <point x="552.0" y="759.5" type="line"/>
      <point x="391.49999999999994" y="685.0" type="line"/>
      <point x="396.99999999999994" y="680.5" type="line"/>
      <point x="82.5" y="544.0" type="line"/>
    </contour>
  </outline>
</glyph>
<glyph name="divide" format="2">
  <advance width="673.4"/>
  <unicode hex="00F7"/>
  <outline>
    <contour>
      <point x="222.89999999999998" y="92.3" type="curve" smooth="yes"/>
      <point x="222.89999999999998" y="35.0"/>
      <point x="255.8" y="5.0"/>
      <point x="336.7" y="5.0" type="curve" smooth="yes"/>
      <point x="418.0" y="5.0"/>
      <point x="451.20000000000005" y="35.0"/>
      <point x="451.20000000000005" y="92.3" type="curve" smooth="yes"/>
      <point x="451.20000000000005" y="151.3"/>
      <point x="418.0" y="181.3"/>
      <point x="336.7" y="181.3" type="curve" smooth="yes"/>
      <point x="255.79999999999998" y="181.3"/>
      <point x="222.89999999999998" y="151.3"/>
    </contour>
    <contour>
      <point x="222.89999999999998" y="551.3000000000001" type="curve" smooth="yes"/>
      <point x="222.89999999999998" y="494.0"/>
      <point x="255.79999999999998" y="464.0"/>
      <point x="336.7" y="464.0" type="curve" smooth="yes"/>
      <point x="418.0" y="464.0"/>
      <point x="451.20000000000005" y="494.0"/>
      <point x="451.20000000000005" y="551.3000000000001" type="curve" smooth="yes"/>
      <point x="451.20000000000005" y="610.3000000000001"/>
      <point x="418.0" y="640.3000000000001"/>
      <point x="336.7" y="640.3000000000001" type="curve" smooth="yes"/>
      <point x="255.79999999999998" y="640.3000000000001"/>
      <point x="222.89999999999998" y="610.3000000000001"/>
    </contour>
    <contour>
      <point x="54.599999999999994" y="226.5" type="line"/>
      <point x="618.8" y="226.5" type="line"/>
      <point x="618.8" y="418.0" type="line"/>
      <point x="54.599999999999994" y="418.0" type="line"/>
    </contour>
  </outline>
</glyph>
<glyph name="oslash" format="2">
  <advance width="787.5"/>
  <unicode hex="00F8"/>
  <anchor x="393.0" y="550.0" name="top"/>
  <outline>
    <contour>
      <point x="393.5" y="-10.0" type="curve" smooth="yes"/>
      <point x="125.5" y="-10.0"/>
      <point x="28.500000000000004" y="111.5"/>
      <point x="28.500000000000004" y="277.0" type="curve" smooth="yes"/>
      <point x="28.500000000000004" y="433.0"/>
      <point x="112.99999999999999" y="560.0"/>
      <point x="393.5" y="560.0" type="curve" smooth="yes"/>
      <point x="673.5" y="560.0"/>
      <point x="758.5" y="433.0"/>
      <point x="758.5" y="277.0" type="curve" smooth="yes"/>
      <point x="758.5" y="111.5"/>
      <point x="661.0" y="-10.0"/>
    </contour>
    <contour>
      <point x="393.0" y="149.5" type="curve" smooth="yes"/>
      <point x="487.0" y="149.5"/>
      <point x="523.5" y="185.0"/>
      <point x="523.5" y="276.5" type="curve" smooth="yes"/>
      <point x="523.5" y="362.5"/>
      <point x="493.5" y="401.0"/>
      <point x="393.0" y="401.0" type="curve" smooth="yes"/>
      <point x="292.5" y="401.0"/>
      <point x="263.0" y="362.5"/>
      <point x="263.0" y="276.5" type="curve" smooth="yes"/>
      <point x="263.0" y="185.0"/>
      <point x="298.5" y="149.5"/>
    </contour>
    <contour>
      <point x="27.500000000000004" y="-4.999999999999999" type="line"/>
      <point x="179.5" y="150.5" type="line"/>
      <point x="180.5" y="150.5" type="line"/>
      <point x="533.0" y="462.0" type="line"/>
      <point x="534.0" y="462.0" type="line"/>
      <point x="626.0" y="560.0" type="line"/>
      <point x="759.5" y="560.0" type="line"/>
      <point x="616.0" y="414.0" type="line"/>
      <point x="615.0" y="414.0" type="line"/>
      <point x="258.0" y="97.0" type="line"/>
      <point x="257.0" y="97.0" type="line"/>
      <point x="159.0" y="-4.999999999999999" type="line"/>
    </contour>
  </outline>
</glyph>
<glyph name="thorn" format="2">
  <advance width="774.8"/>
  <unicode hex="00FE"/>
  <outline>
    <contour>
      <point x="43.5" y="-210.0" type="line"/>
      <point x="306.1" y="-210.0" type="line"/>
      <point x="306.1" y="-7.9" type="line"/>
      <point x="332.9" y="-9.3"/>
      <point x="360.09999999999997" y="-10.0"/>
      <point x="387.59999999999997" y="-10.0" type="curve" smooth="yes"/>
      <point x="644.0" y="-10.0"/>
      <point x="751.5" y="75.5"/>
      <point x="751.5" y="283.5" type="curve" smooth="yes"/>
      <point x="751.5" y="462.9"/>
      <point x="667.9" y="560.0"/>
      <point x="517.4" y="560.0" type="curve" smooth="yes"/>
      <point x="450.2" y="560.0"/>
      <point x="379.3" y="541.3"/>
      <point x="306.7" y="504.19999999999993" type="curve"/>
      <point x="306.7" y="740.0" type="line"/>
      <point x="43.5" y="740.0" type="line"/>
    </contour>
    <contour>
      <point x="390.9" y="160.5" type="curve" smooth="yes"/>
      <point x="363.0" y="160.5"/>
      <point x="332.7" y="164.3"/>
      <point x="306.3" y="171.9" type="curve"/>
      <point x="306.3" y="339.90000000000003" type="line"/>
      <point x="346.0" y="353.7"/>
      <point x="380.6" y="360.6"/>
      <point x="409.4" y="360.6" type="curve" smooth="yes"/>
      <point x="458.5" y="360.6"/>
      <point x="482.9" y="335.6"/>
      <point x="482.9" y="267.40000000000003" type="curve" smooth="yes"/>
      <point x="482.9" y="189.6"/>
      <point x="451.50000000000006" y="160.5"/>
    </contour>
  </outline>
</glyph>
<glyph name="Dcroat" format="2">
  <advance width="933.3999999999999"/>
  <unicode hex="0110"/>
  <outline>
    <contour>
      <point x="15.899999999999999" y="263.1" type="line"/>
      <point x="476.29999999999995" y="263.1" type="line"/>
      <point x="476.29999999999995" y="441.5" type="line"/>
      <point x="15.899999999999999" y="441.5" type="line"/>
    </contour>
    <component base="D" xOffset="5.6000000000000005"/>
  </outline>
</glyph>
<glyph name="dcroat" format="2">
  <advance width="784.9"/>
  <unicode hex="0111"/>
  <outline>
    <contour>
      <point x="286.8" y="591.0" type="line"/>
      <point x="791.9999999999999" y="591.0" type="line"/>
      <point x="791.9999999999999" y="695.0" type="line"/>
      <point x="286.8" y="695.0" type="line"/>
    </contour>
    <component base="d"/>
  </outline>
</glyph>
<glyph name="Hbar" format="2">
  <advance width="939.0999999999998"/>
  <unicode hex="0126"/>
  <outline>
    <contour>
      <point x="20.099999999999998" y="500.90000000000003" type="line"/>
      <point x="62.599999999999994" y="500.90000000000003" type="line"/>
      <point x="62.599999999999994" y="0.0" type="line"/>
      <point x="339.1" y="0.0" type="line"/>
      <point x="339.1" y="216.10000000000002" type="line"/>
      <point x="607.0" y="216.10000000000002" type="line"/>
      <point x="607.0" y="0.0" type="line"/>
      <point x="876.5" y="0.0" type="line"/>
      <point x="876.5" y="500.90000000000003" type="line"/>
      <point x="919.0000000000001" y="500.90000000000003" type="line"/>
      <point x="919.0000000000001" y="643.0" type="line"/>
      <point x="876.5" y="643.0" type="line"/>
      <point x="876.5" y="700.0" type="line"/>
      <point x="607.0" y="700.0" type="line"/>
      <point x="607.0" y="643.0" type="line"/>
      <point x="339.1" y="643.0" type="line"/>
      <point x="339.1" y="700.0" type="line"/>
      <point x="62.599999999999994" y="700.0" type="line"/>
      <point x="62.599999999999994" y="643.0" type="line"/>
      <point x="20.099999999999998" y="643.0" type="line"/>
    </contour>
    <contour>
      <point x="339.1" y="439.6" type="line"/>
      <point x="339.1" y="500.90000000000003" type="line"/>
      <point x="607.0" y="500.90000000000003" type="line"/>
      <point x="607.0" y="439.6" type="line"/>
    </contour>
  </outline>
</glyph>
<glyph name="hbar" format="2">
  <advance width="749.2"/>
  <unicode hex="0127"/>
  <outline>
    <contour>
      <point x="-6.599999999999998" y="591.0" type="line"/>
      <point x="493.0" y="591.0" type="line"/>
      <point x="493.0" y="695.0" type="line"/>
      <point x="-6.599999999999998" y="695.0" type="line"/>
    </contour>
    <component base="h"/>
  </outline>
</glyph>
<glyph name="Idotaccent" format="2">
  <advance width="394.70000000000005"/>
  <unicode hex="0130"/>
  <outline>
    <contour>
      <point x="197.8" y="719.7" type="curve" smooth="yes"/>
      <point x="308.0" y="719.7"/>
      <point x="353.2" y="757.4"/>
      <point x="353.2" y="829.7" type="curve" smooth="yes"/>
      <point x="353.2" y="902.6"/>
      <point x="307.4" y="940.0"/>
      <point x="197.8" y="940.0" type="curve" smooth="yes"/>
      <point x="87.89999999999999" y="940.0"/>
      <point x="42.099999999999994" y="902.6"/>
      <point x="42.099999999999994" y="829.7" type="curve" smooth="yes"/>
      <point x="42.099999999999994" y="757.1"/>
      <point x="87.89999999999999" y="719.7"/>
    </contour>
    <component base="I"/>
  </outline>
</glyph>
<glyph name="dotlessi" format="2">
  <advance width="350.4"/>
  <unicode hex="0131"/>
  <anchor x="284.7" y="10.0" name="ogonek"/>
  <anchor x="175.8" y="0.0" name="bottom"/>
  <anchor x="175.2" y="550.0" name="top"/>
  <outline>
    <contour>
      <point x="43.5" y="0.0" type="line"/>
      <point x="306.9" y="0.0" type="line"/>
      <point x="306.9" y="550.0" type="line"/>
      <point x="43.5" y="550.0" type="line"/>
    </contour>
  </outline>
</glyph>
<glyph name="Ldot" format="2">
  <advance width="779.7"/>
  <unicode hex="013F"/>
  <outline>
    <contour>
      <point x="449.3999999999999" y="438.7" type="curve" smooth="yes"/>
      <point x="449.3999999999999" y="371.2"/>
      <point x="486.29999999999995" y="336.4"/>
      <point x="581.2" y="336.4" type="curve" smooth="yes"/>
      <point x="676.3999999999999" y="336.4"/>
      <point x="713.3" y="371.2"/>
      <point x="713.3" y="438.7" type="curve" smooth="yes"/>
      <point x="713.3" y="507.2"/>
      <point x="676.3999999999999" y="542.0"/>
      <point x="581.2" y="542.0" type="curve" smooth="yes"/>
      <point x="486.29999999999995" y="542.0"/>
      <point x="449.3999999999999" y="507.2"/>
    </contour>
    <component base="L"/>
  </outline>
</glyph>
<glyph name="ldot" format="2">
  <advance width="501.70000000000005"/>
  <unicode hex="0140"/>
  <outline>
    <contour>
      <point x="442.1" y="332.6" type="curve" smooth="yes"/>
      <point x="494.5" y="332.6"/>
      <point x="517.1" y="358.4"/>
      <point x="517.1" y="411.7" type="curve" smooth="yes"/>
      <point x="517.1" y="465.3"/>
      <point x="494.5" y="491.1"/>
      <point x="442.1" y="491.1" type="curve" smooth="yes"/>
      <point x="390.0" y="491.1"/>
      <point x="367.4" y="465.3"/>
      <point x="367.4" y="411.7" type="curve" smooth="yes"/>
      <point x="367.4" y="358.4"/>
      <point x="390.0" y="332.6"/>
    </contour>
    <component base="l"/>
  </outline>
</glyph>
<glyph name="Lslash" format="2">
  <advance width="784.8"/>
  <unicode hex="0141"/>
  <outline>
    <contour>
      <point x="0.40000000000000036" y="160.6" type="line"/>
      <point x="64.2" y="188.7" type="line"/>
      <point x="64.2" y="0.0" type="line"/>
      <point x="757.3" y="0.0" type="line"/>
      <point x="757.3" y="221.39999999999998" type="line"/>
      <point x="341.0" y="221.39999999999998" type="line"/>
      <point x="341.0" y="311.2" type="line"/>
      <point x="566.0" y="409.6" type="line"/>
      <point x="566.0" y="621.4000000000001" type="line"/>
      <point x="341.0" y="523.0" type="line"/>
      <point x="341.0" y="700.0" type="line"/>
      <point x="64.2" y="700.0" type="line"/>
      <point x="64.2" y="400.5" type="line"/>
      <point x="0.40000000000000036" y="372.4" type="line"/>
    </contour>
  </outline>
</glyph>
<glyph name="lslash" format="2">
  <advance width="472.29999999999995"/>
  <unicode hex="0142"/>
  <outline>
    <contour>
      <point x="257.2" y="-10.0" type="curve" smooth="yes"/>
      <point x="333.5" y="-10.0"/>
      <point x="410.0" y="4.0"/>
      <point x="470.09999999999997" y="22.3" type="curve"/>
      <point x="443.29999999999995" y="215.60000000000002" type="line"/>
      <point x="406.8" y="209.0"/>
      <point x="379.8" y="205.2"/>
      <point x="359.0" y="205.2" type="curve" smooth="yes"/>
      <point x="331.9" y="205.2"/>
      <point x="316.9" y="214.29999999999998"/>
      <point x="316.9" y="246.39999999999998" type="curve" smooth="yes"/>
      <point x="316.9" y="331.4" type="line"/>
      <point x="426.0" y="384.8" type="line"/>
      <point x="426.0" y="568.0" type="line"/>
      <point x="316.9" y="514.5999999999999" type="line"/>
      <point x="316.9" y="740.0" type="line"/>
      <point x="54.400000000000006" y="740.0" type="line"/>
      <point x="54.400000000000006" y="377.3" type="line"/>
      <point x="-3.3000000000000007" y="348.8" type="line"/>
      <point x="-3.3000000000000007" y="165.6" type="line"/>
      <point x="55.800000000000004" y="194.8" type="line"/>
      <point x="57.2" y="172.79999999999998" type="line" smooth="yes"/>
      <point x="69.1" y="40.10000000000001"/>
      <point x="130.0" y="-10.0"/>
    </contour>
  </outline>
</glyph>
<glyph name="Eng" format="2">
  <advance width="881.0"/>
  <unicode hex="014A"/>
  <outline>
    <contour>
      <point x="58.999999999999986" y="0.0" type="line"/>
      <point x="307.5" y="0.0" type="line"/>
      <point x="307.5" y="322.0" type="line"/>
      <point x="567.4999999999999" y="10.999999999999998" type="line"/>
      <point x="567.4999999999999" y="2.499999999999999" type="line" smooth="yes"/>
      <point x="567.4999999999999" y="-12.500000000000007"/>
      <point x="545.0" y="-25.500000000000014"/>
      <point x="501.0" y="-25.500000000000014" type="curve" smooth="yes"/>
      <point x="477.0" y="-25.500000000000014"/>
      <point x="444.49999999999994" y="-22.500000000000007"/>
      <point x="402.0" y="-13.000000000000007" type="curve"/>
      <point x="363.0" y="-199.0" type="line"/>
      <point x="417.99999999999994" y="-212.5"/>
      <point x="472.5" y="-220.0"/>
      <point x="532.0" y="-220.0" type="curve" smooth="yes"/>
      <point x="702.5" y="-220.0"/>
      <point x="821.9999999999999" y="-154.5"/>
      <point x="821.9999999999999" y="-12.0" type="curve" smooth="yes"/>
      <point x="821.9999999999999" y="700.0" type="line"/>
      <point x="574.4999999999999" y="700.0" type="line"/>
      <point x="574.4999999999999" y="356.5" type="line"/>
      <point x="305.5" y="700.0" type="line"/>
      <point x="58.999999999999986" y="700.0" type="line"/>
    </contour>
  </outline>
</glyph>
<glyph name="eng" format="2">
  <advance width="749.5"/>
  <unicode hex="014B"/>
  <outline>
    <contour>
      <point x="706.6" y="47.0" type="curve"/>
      <point x="706.6" y="375.7" type="line" smooth="yes"/>
      <point x="706.6" y="475.7"/>
      <point x="641.8" y="560.0"/>
      <point x="495.30000000000007" y="560.0" type="curve" smooth="yes"/>
      <point x="418.40000000000003" y="560.0"/>
      <point x="361.20000000000005" y="538.4"/>
      <point x="279.5" y="494.4" type="curve"/>
      <point x="279.5" y="550.0" type="line"/>
      <point x="43.5" y="550.0" type="line"/>
      <point x="43.5" y="0.0" type="line"/>
      <point x="306.3" y="0.0" type="line"/>
      <point x="306.3" y="342.9" type="line"/>
      <point x="336.2" y="352.9"/>
      <point x="362.19999999999993" y="360.40000000000003"/>
      <point x="384.9" y="360.40000000000003" type="curve" smooth="yes"/>
      <point x="420.59999999999997" y="360.40000000000003"/>
      <point x="443.79999999999995" y="340.7"/>
      <point x="443.79999999999995" y="282.09999999999997" type="curve" smooth="yes"/>
      <point x="443.79999999999995" y="48.0" type="line" smooth="yes"/>
      <point x="443.79999999999995" y="-2.1000000000000005"/>
      <point x="428.8999999999999" y="-12.900000000000002"/>
      <point x="398.8" y="-12.900000000000002" type="curve" smooth="yes"/>
      <point x="388.8" y="-12.9"/>
      <point x="375.1" y="-11.2"/>
      <point x="362.6" y="-9.5" type="curve"/>
      <point x="346.9000000000001" y="-211.6" type="line"/>
      <point x="378.20000000000005" y="-217.29999999999998"/>
      <point x="408.70000000000005" y="-220.0"/>
      <point x="439.29999999999995" y="-220.0" type="curve" smooth="yes"/>
      <point x="601.1" y="-220.0"/>
      <point x="706.6" y="-119.1"/>
    </contour>
  </outline>
</glyph>
<glyph name="OE" format="2">
  <advance width="1359.9"/>
  <unicode hex="0152"/>
  <outline>
    <contour>
      <point x="1326.2" y="0.0" type="line"/>
      <point x="1326.2" y="196.9" type="line"/>
      <point x="862.6999999999999" y="196.9" type="line"/>
      <point x="862.6999999999999" y="261.9" type="line"/>
      <point x="1273.3" y="261.9" type="line"/>
      <point x="1273.3" y="438.3" type="line"/>
      <point x="862.6999999999999" y="438.3" type="line"/>
      <point x="862.6999999999999" y="501.6" type="line"/>
      <point x="1302.6" y="501.6" type="line"/>
      <point x="1302.6" y="700.0" type="line"/>
      <point x="847.4" y="700.0" type="line"/>
      <point x="736.3" y="705.2"/>
      <point x="629.5999999999999" y="710.0"/>
      <point x="466.1" y="710.0" type="curve" smooth="yes"/>
      <point x="145.1" y="710.0"/>
      <point x="27.9" y="565.3"/>
      <point x="27.9" y="355.4" type="curve" smooth="yes"/>
      <point x="27.9" y="105.8"/>
      <point x="152.10000000000002" y="-10.0"/>
      <point x="485.40000000000003" y="-10.0" type="curve" smooth="yes"/>
      <point x="640.1" y="-10.0"/>
      <point x="749.8" y="-6.9"/>
      <point x="862.4" y="0.0" type="curve"/>
    </contour>
    <contour>
      <point x="592.1999999999999" y="183.3" type="line"/>
      <point x="565.2" y="181.3"/>
      <point x="522.2" y="179.3"/>
      <point x="453.2" y="179.3" type="curve" smooth="yes"/>
      <point x="367.90000000000003" y="179.3"/>
      <point x="310.0" y="233.3"/>
      <point x="310.0" y="352.1" type="curve" smooth="yes"/>
      <point x="310.0" y="464.7"/>
      <point x="365.6" y="519.4"/>
      <point x="446.09999999999997" y="519.4" type="curve" smooth="yes"/>
      <point x="511.50000000000006" y="519.4"/>
      <point x="538.0999999999999" y="516.7"/>
      <point x="592.1999999999999" y="514.6999999999999" type="curve"/>
    </contour>
  </outline>
</glyph>
<glyph name="oe" format="2">
  <advance width="1162.1"/>
  <unicode hex="0153"/>
  <outline>
    <contour>
      <point x="23.3" y="276.8" type="curve" smooth="yes"/>
      <point x="23.3" y="97.30000000000001"/>
      <point x="121.7" y="-10.0"/>
      <point x="375.6" y="-10.0" type="curve" smooth="yes"/>
      <point x="466.6" y="-10.0"/>
      <point x="537.8" y="8.2"/>
      <point x="591.5" y="36.7" type="curve"/>
      <point x="654.3" y="8.700000000000003"/>
      <point x="729.5" y="-10.0"/>
      <point x="830.8" y="-10.0" type="curve" smooth="yes"/>
      <point x="945.6" y="-10.0"/>
      <point x="1030.6" y="-0.5"/>
      <point x="1130.0" y="23.6" type="curve"/>
      <point x="1101.4" y="199.4" type="line"/>
      <point x="999.0" y="180.5"/>
      <point x="905.8" y="171.6"/>
      <point x="851.9" y="171.6" type="curve" smooth="yes"/>
      <point x="746.9" y="171.6"/>
      <point x="728.4" y="185.1"/>
      <point x="728.4" y="200.9" type="curve" smooth="yes"/>
      <point x="728.4" y="202.0"/>
      <point x="728.2" y="203.1"/>
      <point x="728.5" y="204.7" type="curve"/>
      <point x="899.3" y="209.7"/>
      <point x="1035.6" y="219.9"/>
      <point x="1126.2" y="224.5" type="curve"/>
      <point x="1127.7" y="243.9"/>
      <point x="1128.2" y="272.7"/>
      <point x="1128.2" y="289.9" type="curve" smooth="yes"/>
      <point x="1128.2" y="473.4"/>
      <point x="1032.2" y="560.0"/>
      <point x="811.4" y="560.0" type="curve" smooth="yes"/>
      <point x="734.6999999999999" y="560.0"/>
      <point x="664.8" y="536.9"/>
      <point x="605.7" y="505.5" type="curve"/>
      <point x="548.2" y="540.2"/>
      <point x="473.4" y="560.0"/>
      <point x="375.6" y="560.0" type="curve" smooth="yes"/>
      <point x="108.99999999999999" y="560.0"/>
      <point x="23.3" y="446.8"/>
    </contour>
    <contour>
      <point x="291.4" y="276.1" type="curve" smooth="yes"/>
      <point x="291.4" y="354.6"/>
      <point x="311.4" y="391.8"/>
      <point x="374.9" y="391.8" type="curve" smooth="yes"/>
      <point x="438.3" y="391.8"/>
      <point x="457.9" y="354.6"/>
      <point x="457.9" y="276.1" type="curve" smooth="yes"/>
      <point x="457.9" y="193.6"/>
      <point x="434.5" y="158.5"/>
      <point x="374.9" y="158.5" type="curve" smooth="yes"/>
      <point x="315.0" y="158.5"/>
      <point x="291.4" y="193.6"/>
    </contour>
    <contour>
      <point x="728.9" y="335.4" type="curve"/>
      <point x="740.1" y="386.2"/>
      <point x="762.1999999999999" y="395.3"/>
      <point x="797.8" y="395.3" type="curve" smooth="yes"/>
      <point x="832.8" y="395.3"/>
      <point x="850.1" y="380.9"/>
      <point x="860.6" y="339.6" type="curve"/>
      <point x="816.4000000000001" y="337.8"/>
      <point x="770.0" y="336.1"/>
    </contour>
  </outline>
</glyph>
<glyph name="uni0162" format="2">
  <advance width="863.6"/>
  <unicode hex="0162"/>
  <outline>
    <contour>
      <point x="287.4" y="-67.1" type="curve"/>
      <point x="283.5" y="-208.6" type="line"/>
      <point x="321.5" y="-216.6"/>
      <point x="354.4" y="-220.0"/>
      <point x="384.79999999999995" y="-220.0" type="curve" smooth="yes"/>
      <point x="518.0" y="-220.0"/>
      <point x="565.9999999999999" y="-153.8"/>
      <point x="565.9999999999999" y="-82.2" type="curve" smooth="yes"/>
      <point x="565.9999999999999" y="-51.699999999999996"/>
      <point x="555.6" y="-14.6"/>
      <point x="541.8" y="8.8" type="curve"/>
      <point x="341.7" y="8.8" type="line"/>
      <point x="354.4" y="-4.000000000000002"/>
      <point x="361.6" y="-21.9"/>
      <point x="361.6" y="-34.8" type="curve" smooth="yes"/>
      <point x="361.6" y="-58.80000000000001"/>
      <point x="346.09999999999997" y="-69.7"/>
      <point x="314.2" y="-69.7" type="curve" smooth="yes"/>
      <point x="308.09999999999997" y="-69.7"/>
      <point x="295.6" y="-68.69999999999999"/>
    </contour>
    <component base="T"/>
  </outline>
</glyph>
<glyph name="Tbar" format="2">
  <advance width="877.6"/>
  <unicode hex="0166"/>
  <outline>
    <contour>
      <point x="131.79999999999998" y="197.5" type="line"/>
      <point x="300.7" y="197.5" type="line"/>
      <point x="300.7" y="0.0" type="line"/>
      <point x="577.2" y="0.0" type="line"/>
      <point x="577.2" y="197.5" type="line"/>
      <point x="745.2" y="197.5" type="line"/>
      <point x="745.2" y="393.7" type="line"/>
      <point x="577.2" y="393.7" type="line"/>
      <point x="577.2" y="477.40000000000003" type="line"/>
      <point x="850.1" y="477.40000000000003" type="line"/>
      <point x="850.1" y="700.0" type="line"/>
      <point x="27.499999999999996" y="700.0" type="line"/>
      <point x="27.499999999999996" y="477.40000000000003" type="line"/>
      <point x="300.7" y="477.40000000000003" type="line"/>
      <point x="300.7" y="393.7" type="line"/>
      <point x="131.79999999999998" y="393.7" type="line"/>
    </contour>
  </outline>
</glyph>
<glyph name="tbar" format="2">
  <advance width="541.1"/>
  <unicode hex="0167"/>
  <outline>
    <contour>
      <point x="356.0" y="245.3" type="line"/>
      <point x="485.9" y="245.3" type="line"/>
      <point x="485.9" y="366.5" type="line"/>
      <point x="356.0" y="366.5" type="line"/>
      <point x="356.0" y="402.1" type="line"/>
      <point x="498.9" y="402.1" type="line"/>
      <point x="498.9" y="550.0" type="line"/>
      <point x="356.0" y="550.0" type="line"/>
      <point x="356.0" y="661.7" type="line"/>
      <point x="121.4" y="661.7" type="line"/>
      <point x="93.5" y="550.0" type="line"/>
      <point x="4.3" y="534.2" type="line"/>
      <point x="4.3" y="402.40000000000003" type="line"/>
      <point x="93.5" y="402.40000000000003" type="line"/>
      <point x="93.5" y="366.5" type="line"/>
      <point x="5.200000000000003" y="366.5" type="line"/>
      <point x="5.200000000000003" y="245.3" type="line"/>
      <point x="93.5" y="245.3" type="line"/>
      <point x="93.5" y="217.5" type="line" smooth="yes"/>
      <point x="93.5" y="56.1"/>
      <point x="175.6" y="-10.0"/>
      <point x="312.0" y="-10.0" type="curve" smooth="yes"/>
      <point x="386.40000000000003" y="-10.0"/>
      <point x="450.59999999999997" y="-6.661338147750939e-16"/>
      <point x="526.1999999999999" y="19.9" type="curve"/>
      <point x="494.6" y="207.5" type="line"/>
      <point x="454.1" y="197.5"/>
      <point x="425.09999999999997" y="194.7"/>
      <point x="405.9" y="194.7" type="curve" smooth="yes"/>
      <point x="370.5" y="194.7"/>
      <point x="356.0" y="205.2"/>
      <point x="356.0" y="224.10000000000002" type="curve" smooth="yes"/>
    </contour>
  </outline>
</glyph>
<glyph name="uogonek" format="2">
  <advance width="771.1"/>
  <unicode hex="0173"/>
  <outline>
    <contour>
      <point x="669.5" y="-189.6" type="curve" smooth="yes"/>
      <point x="714.8" y="-189.6"/>
      <point x="748.1" y="-185.6"/>
      <point x="772.4" y="-177.60000000000002" type="curve"/>
      <point x="765.8" y="-39.2" type="line"/>
      <point x="760.6999999999999" y="-40.2"/>
      <point x="754.3000000000001" y="-41.2"/>
      <point x="745.9" y="-41.2" type="curve" smooth="yes"/>
      <point x="721.6999999999999" y="-41.2"/>
      <point x="708.9000000000001" y="-32.900000000000006"/>
      <point x="708.9000000000001" y="-14.700000000000001" type="curve" smooth="yes"/>
      <point x="708.9000000000001" y="4.299999999999997"/>
      <point x="723.8" y="16.699999999999996"/>
      <point x="770.5" y="30.4" type="curve"/>
      <point x="750.3999999999999" y="190.70000000000002" type="line"/>
      <point x="743.2" y="187.60000000000002"/>
      <point x="736.4999999999999" y="186.6"/>
      <point x="729.0" y="186.6" type="curve" smooth="yes"/>
      <point x="715.6999999999999" y="186.6"/>
      <point x="705.6999999999999" y="194.8"/>
      <point x="705.6999999999999" y="215.8" type="curve" smooth="yes"/>
      <point x="705.6999999999999" y="550.0" type="line"/>
      <point x="443.19999999999993" y="550.0" type="line"/>
      <point x="443.19999999999993" y="202.9" type="line"/>
      <point x="409.49999999999994" y="190.2"/>
      <point x="390.9" y="186.8"/>
      <point x="366.70000000000005" y="186.8" type="curve" smooth="yes"/>
      <point x="330.5" y="186.8"/>
      <point x="305.7" y="205.60000000000002"/>
      <point x="305.7" y="258.1" type="curve" smooth="yes"/>
      <point x="305.7" y="550.0" type="line"/>
      <point x="42.900000000000006" y="550.0" type="line"/>
      <point x="42.900000000000006" y="183.3" type="line" smooth="yes"/>
      <point x="42.900000000000006" y="58.099999999999994"/>
      <point x="128.20000000000002" y="-10.0"/>
      <point x="256.9" y="-10.0" type="curve" smooth="yes"/>
      <point x="338.8" y="-10.0"/>
      <point x="403.5" y="11.600000000000001"/>
      <point x="476.19999999999993" y="51.9" type="curve"/>
      <point x="506.29999999999995" y="11.8"/>
      <point x="542.7" y="-10.0"/>
      <point x="614.8" y="-10.0" type="curve" smooth="yes"/>
      <point x="638.6" y="-10.0"/>
      <point x="659.3" y="-8.299999999999999"/>
      <point x="681.5" y="-2.8" type="curve"/>
      <point x="627.5" y="18.2" type="line"/>
      <point x="576.0" y="7.099999999999998"/>
      <point x="519.0" y="-31.400000000000002"/>
      <point x="519.0" y="-87.7" type="curve" smooth="yes"/>
      <point x="519.0" y="-150.5"/>
      <point x="577.0" y="-189.6"/>
    </contour>
  </outline>
</glyph>
<glyph name="longs" format="2">
  <advance width="524.5999999999999"/>
  <unicode hex="017F"/>
  <outline>
    <contour>
      <point x="358.9" y="503.8" type="line"/>
      <point x="358.9" y="548.6"/>
      <point x="408.0" y="555.0"/>
      <point x="435.79999999999995" y="555.0" type="curve" smooth="yes"/>
      <point x="475.79999999999995" y="555.0"/>
      <point x="527.0999999999999" y="546.8000000000001"/>
      <point x="548.0" y="540.6999999999999" type="curve"/>
      <point x="578.5" y="718.2" type="line"/>
      <point x="522.8000000000001" y="737.0"/>
      <point x="451.79999999999995" y="750.0"/>
      <point x="376.8" y="750.0" type="curve" smooth="yes"/>
      <point x="221.2" y="750.0"/>
      <point x="96.4" y="680.2"/>
      <point x="96.4" y="513.2" type="curve" smooth="yes"/>
      <point x="96.4" y="497.5" type="line"/>
      <point x="11.299999999999997" y="481.40000000000003" type="line"/>
      <point x="11.299999999999997" y="327.20000000000005" type="line"/>
      <point x="96.4" y="327.20000000000005" type="line"/>
      <point x="96.4" y="0.0" type="line"/>
      <point x="358.9" y="0.0" type="line"/>
    </contour>
  </outline>
</glyph>
<glyph name="uni018F" format="2">
  <advance width="858.1"/>
  <unicode hex="018F"/>
  <outline>
    <contour>
      <point x="62.3" y="471.7" type="line"/>
      <point x="178.29999999999998" y="494.3"/>
      <point x="278.90000000000003" y="505.9"/>
      <point x="355.29999999999995" y="505.9" type="curve" smooth="yes"/>
      <point x="478.70000000000005" y="505.9"/>
      <point x="528.8" y="479.6"/>
      <point x="529.9999999999999" y="443.5" type="curve" smooth="yes"/>
      <point x="530.3" y="440.0"/>
      <point x="530.3" y="437.5"/>
      <point x="530.3" y="433.7" type="curve"/>
      <point x="326.6" y="425.8"/>
      <point x="159.8" y="416.79999999999995"/>
      <point x="21.300000000000004" y="408.2" type="curve"/>
      <point x="19.6" y="386.90000000000003"/>
      <point x="18.6" y="360.1"/>
      <point x="18.6" y="330.9" type="curve" smooth="yes"/>
      <point x="18.6" y="96.89999999999999"/>
      <point x="139.29999999999998" y="-10.0"/>
      <point x="401.4" y="-10.0" type="curve" smooth="yes"/>
      <point x="651.1999999999999" y="-10.0"/>
      <point x="830.1999999999999" y="116.10000000000001"/>
      <point x="830.1999999999999" y="370.90000000000003" type="curve" smooth="yes"/>
      <point x="830.1999999999999" y="595.6999999999999"/>
      <point x="681.9000000000001" y="709.7"/>
      <point x="387.0" y="709.7" type="curve" smooth="yes"/>
      <point x="267.7" y="709.7"/>
      <point x="176.6" y="696.8"/>
      <point x="27.19999999999999" y="661.6999999999999" type="curve"/>
    </contour>
    <contour>
      <point x="531.4" y="273.2" type="curve"/>
      <point x="532.1" y="212.1"/>
      <point x="479.8999999999999" y="183.60000000000002"/>
      <point x="415.79999999999995" y="183.60000000000002" type="curve" smooth="yes"/>
      <point x="341.5" y="183.60000000000002"/>
      <point x="321.3" y="201.39999999999998"/>
      <point x="311.5" y="266.8" type="curve"/>
      <point x="368.4" y="268.8"/>
      <point x="474.2" y="271.5"/>
    </contour>
  </outline>
</glyph>
<glyph name="florin" format="2">
  <advance width="861.0"/>
  <unicode hex="0192"/>
  <outline>
    <contour>
      <point x="149.6" y="393.2" type="line"/>
      <point x="124.89999999999999" y="239.0" type="line"/>
      <point x="215.7" y="239.0" type="line"/>
      <point x="143.5" y="-210.0" type="line"/>
      <point x="403.09999999999997" y="-210.0" type="line"/>
      <point x="474.6" y="239.0" type="line"/>
      <point x="682.1999999999999" y="239.0" type="line"/>
      <point x="708.9999999999999" y="409.29999999999995" type="line"/>
      <point x="502.1" y="409.29999999999995" type="line"/>
      <point x="506.8" y="436.59999999999997" type="line" smooth="yes"/>
      <point x="517.0" y="484.5"/>
      <point x="540.6999999999999" y="504.2"/>
      <point x="588.0" y="504.2" type="curve" smooth="yes"/>
      <point x="637.3" y="504.2"/>
      <point x="681.4" y="495.5"/>
      <point x="737.7" y="477.6" type="curve"/>
      <point x="797.9" y="667.7" type="line"/>
      <point x="744.4999999999999" y="692.9"/>
      <point x="659.2" y="710.0"/>
      <point x="569.1999999999999" y="710.0" type="curve" smooth="yes"/>
      <point x="397.5" y="710.0"/>
      <point x="277.4" y="620.3"/>
      <point x="253.29999999999995" y="473.2" type="curve" smooth="yes"/>
      <point x="243.2" y="409.29999999999995" type="line"/>
    </contour>
  </outline>
</glyph>
<glyph name="uni0237" format="2">
  <advance width="369.1"/>
  <unicode hex="0237"/>
  <anchor x="194.20000000000002" y="550.0" name="top"/>
  <outline>
    <contour>
      <point x="325.6" y="56.099999999999994" type="curve" smooth="yes"/>
      <point x="325.6" y="550.0" type="line"/>
      <point x="63.099999999999994" y="550.0" type="line"/>
      <point x="63.099999999999994" y="65.8" type="line"/>
      <point x="63.099999999999994" y="2.8000000000000007"/>
      <point x="40.69999999999999" y="-16.2"/>
      <point x="-13.5" y="-16.2" type="curve" smooth="yes"/>
      <point x="-20.6" y="-16.200000000000003"/>
      <point x="-27.1" y="-15.3"/>
      <point x="-35.1" y="-13.8" type="curve"/>
      <point x="-50.2" y="-211.1" type="line"/>
      <point x="-18.4" y="-216.1"/>
      <point x="31.099999999999998" y="-220.0"/>
      <point x="60.4" y="-220.0" type="curve" smooth="yes"/>
      <point x="248.4" y="-220.0"/>
      <point x="325.6" y="-123.6"/>
    </contour>
  </outline>
</glyph>
<glyph name="uni0259" format="2">
  <advance width="727.9000000000001"/>
  <unicode hex="0259"/>
  <outline>
    <contour>
      <point x="36.699999999999996" y="325.3" type="curve"/>
      <point x="35.0" y="306.0"/>
      <point x="34.699999999999996" y="276.8"/>
      <point x="34.699999999999996" y="260.1" type="curve" smooth="yes"/>
      <point x="34.699999999999996" y="76.4"/>
      <point x="130.70000000000002" y="-10.0"/>
      <point x="351.7" y="-10.0" type="curve" smooth="yes"/>
      <point x="547.2" y="-10.0"/>
      <point x="704.6" y="84.9"/>
      <point x="704.6" y="292.09999999999997" type="curve" smooth="yes"/>
      <point x="704.6" y="471.9"/>
      <point x="583.9" y="560.0"/>
      <point x="340.1" y="560.0" type="curve" smooth="yes"/>
      <point x="220.79999999999998" y="560.0"/>
      <point x="132.7" y="549.5"/>
      <point x="32.8" y="526.2" type="curve"/>
      <point x="61.7" y="350.5" type="line"/>
      <point x="164.1" y="369.7"/>
      <point x="256.0" y="376.8"/>
      <point x="310.4" y="376.8" type="curve" smooth="yes"/>
      <point x="401.9" y="376.8"/>
      <point x="433.1" y="371.7"/>
      <point x="433.1" y="349.3" type="curve" smooth="yes"/>
      <point x="433.1" y="347.7"/>
      <point x="433.1" y="347.09999999999997"/>
      <point x="433.09999999999997" y="345.5" type="curve"/>
      <point x="258.6" y="340.5"/>
      <point x="127.1" y="330.3"/>
    </contour>
    <contour>
      <point x="433.00000000000006" y="213.8" type="curve"/>
      <point x="421.80000000000007" y="164.4"/>
      <point x="399.9" y="155.2"/>
      <point x="365.3" y="155.2" type="curve" smooth="yes"/>
      <point x="330.29999999999995" y="155.2"/>
      <point x="313.9" y="169.79999999999998"/>
      <point x="303.4" y="209.70000000000002" type="curve"/>
      <point x="346.09999999999997" y="211.4"/>
      <point x="390.59999999999997" y="212.4"/>
    </contour>
  </outline>
</glyph>
<glyph name="gravecomb" format="2">
  <unicode hex="0300"/>
  <anchor x="-458.1" y="789.7" name="top"/>
  <anchor x="-376.4" y="550.0" name="_top"/>
  <outline>
    <contour>
      <point x="-480.0" y="595.7" type="line"/>
      <point x="-277.4" y="595.7" type="line"/>
      <point x="-365.9" y="789.7" type="line"/>
      <point x="-626.6" y="789.7" type="line"/>
    </contour>
  </outline>
</glyph>
<glyph name="acutecomb" format="2">
  <unicode hex="0301"/>
  <anchor x="-307.1" y="789.7" name="top"/>
  <anchor x="-376.4" y="550.0" name="_top"/>
  <outline>
    <contour>
      <point x="-478.9" y="595.7" type="line"/>
      <point x="-283.2" y="595.7" type="line"/>
      <point x="-136.3" y="789.7" type="line"/>
      <point x="-390.40000000000003" y="789.7" type="line"/>
    </contour>
  </outline>
</glyph>
<glyph name="uni0302" format="2">
  <unicode hex="0302"/>
  <anchor x="-376.2" y="787.1" name="top"/>
  <anchor x="-376.2" y="550.0" name="_top"/>
  <anchor x="-58.900000000000006" y="657.9" name="top_viet"/>
  <outline>
    <contour>
      <point x="-633.2" y="595.7" type="line"/>
      <point x="-427.4" y="595.7" type="line"/>
      <point x="-376.9" y="674.7" type="line"/>
      <point x="-326.2" y="595.7" type="line"/>
      <point x="-119.9" y="595.7" type="line"/>
      <point x="-227.7" y="789.7" type="line"/>
      <point x="-518.4" y="789.7" type="line"/>
    </contour>
  </outline>
</glyph>
<glyph name="tildecomb" format="2">
  <unicode hex="0303"/>
  <anchor x="-376.4" y="777.3000000000001" name="top"/>
  <anchor x="-376.4" y="550.0" name="_top"/>
  <outline>
    <contour>
      <point x="-612.3" y="595.7" type="curve"/>
      <point x="-480.80000000000007" y="595.7" type="line"/>
      <point x="-480.7999999999999" y="597.7"/>
      <point x="-480.5" y="600.1999999999999"/>
      <point x="-480.5" y="602.2" type="curve" smooth="yes"/>
      <point x="-480.5" y="615.2"/>
      <point x="-470.30000000000007" y="623.8"/>
      <point x="-452.7" y="623.8" type="curve" smooth="yes"/>
      <point x="-418.70000000000005" y="623.8"/>
      <point x="-347.8" y="598.1"/>
      <point x="-290.0" y="598.1" type="curve" smooth="yes"/>
      <point x="-182.5" y="598.1"/>
      <point x="-137.8" y="642.7"/>
      <point x="-137.8" y="737.3" type="curve" smooth="yes"/>
      <point x="-137.8" y="752.5999999999999"/>
      <point x="-138.8" y="769.6"/>
      <point x="-141.5" y="787.3" type="curve"/>
      <point x="-272.99999999999994" y="787.3" type="line"/>
      <point x="-273.0" y="785.6"/>
      <point x="-273.0" y="783.1"/>
      <point x="-273.0" y="781.1" type="curve" smooth="yes"/>
      <point x="-273.0" y="767.8"/>
      <point x="-283.8" y="759.5"/>
      <point x="-300.79999999999995" y="759.5" type="curve" smooth="yes"/>
      <point x="-334.0" y="759.5"/>
      <point x="-402.7" y="785.1999999999999"/>
      <point x="-463.9" y="785.1999999999999" type="curve" smooth="yes"/>
      <point x="-572.3" y="785.1999999999999"/>
      <point x="-615.9999999999999" y="738.8"/>
      <point x="-615.9999999999999" y="645.7" type="curve" smooth="yes"/>
      <point x="-615.9999999999999" y="630.6999999999999"/>
      <point x="-615.3" y="613.6999999999999"/>
    </contour>
  </outline>
</glyph>
<glyph name="uni0304" format="2">
  <unicode hex="0304"/>
  <anchor x="-376.4" y="775.2" name="top"/>
  <anchor x="-376.4" y="550.0" name="_top"/>
  <outline>
    <contour>
      <point x="-567.8999999999999" y="604.2" type="line"/>
      <point x="-184.89999999999998" y="604.2" type="line"/>
      <point x="-184.89999999999998" y="769.2" type="line"/>
      <point x="-567.8999999999999" y="769.2" type="line"/>
    </contour>
  </outline>
</glyph>
